AnekKannada-Medium.ufo
<glyph name="dollar" format="2">
  <advance width="1049"/>
  <unicode hex="0024"/>
  <outline>
    <component base="S"/>
    <contour>
      <point x="607" y="1487" type="line"/>
      <point x="433" y="1487" type="line"/>
      <point x="433" y="1195" type="line"/>
      <point x="607" y="1195" type="line"/>
    </contour>
    <contour>
      <point x="607" y="113" type="line"/>
      <point x="433" y="113" type="line"/>
      <point x="433" y="-214" type="line"/>
      <point x="607" y="-214" type="line"/>
    </contour>
  </outline>
</glyph>
<glyph name="asterisk" format="2">
  <advance width="769"/>
  <unicode hex="002A"/>
  <outline>
    <contour>
      <point x="382" y="848" type="line"/>
      <point x="386" y="848" type="line"/>
      <point x="525" y="644" type="line"/>
      <point x="658" y="736" type="line"/>
      <point x="489" y="920" type="line"/>
      <point x="490" y="924" type="line"/>
      <point x="721" y="970" type="line"/>
      <point x="682" y="1125" type="line"/>
      <point x="452" y="1036" type="line"/>
      <point x="449" y="1038" type="line"/>
      <point x="471" y="1278" type="line"/>
      <point x="298" y="1278" type="line"/>
      <point x="320" y="1038" type="line"/>
      <point x="317" y="1036" type="line"/>
      <point x="87" y="1125" type="line"/>
      <point x="48" y="970" type="line"/>
      <point x="278" y="924" type="line"/>
      <point x="279" y="920" type="line"/>
      <point x="110" y="736" type="line"/>
      <point x="244" y="644" type="line"/>
    </contour>
  </outline>
</glyph>
<glyph name="slash" format="2">
  <advance width="850"/>
  <unicode hex="002F"/>
  <outline>
    <contour>
      <point x="203" y="-242" type="line"/>
      <point x="829" y="1343" type="line"/>
      <point x="648" y="1343" type="line"/>
      <point x="21" y="-242" type="line"/>
    </contour>
  </outline>
</glyph>
<glyph name="three" format="2">
  <advance width="991"/>
  <unicode hex="0033"/>
  <outline>
    <contour>
      <point x="446" y="-23" type="curve" smooth="yes"/>
      <point x="763" y="-23"/>
      <point x="909" y="114"/>
      <point x="909" y="344" type="curve" smooth="yes"/>
      <point x="909" y="378" type="line" smooth="yes"/>
      <point x="909" y="547"/>
      <point x="836" y="634"/>
      <point x="661" y="667" type="curve"/>
      <point x="667" y="646" type="line"/>
      <point x="667" y="676" type="line"/>
      <point x="828" y="704"/>
      <point x="899" y="802"/>
      <point x="899" y="953" type="curve" smooth="yes"/>
      <point x="899" y="973" type="line" smooth="yes"/>
      <point x="899" y="1181"/>
      <point x="765" y="1301"/>
      <point x="474" y="1301" type="curve" smooth="yes"/>
      <point x="302" y="1301"/>
      <point x="177" y="1258"/>
      <point x="94" y="1211" type="curve"/>
      <point x="77" y="1037" type="line"/>
      <point x="170" y="1086"/>
      <point x="298" y="1131"/>
      <point x="440" y="1131" type="curve" smooth="yes"/>
      <point x="627" y="1131"/>
      <point x="696" y="1066"/>
      <point x="696" y="942" type="curve" smooth="yes"/>
      <point x="696" y="928" type="line" smooth="yes"/>
      <point x="696" y="811"/>
      <point x="629" y="744"/>
      <point x="441" y="740" type="curve" smooth="yes"/>
      <point x="231" y="735" type="line"/>
      <point x="231" y="576" type="line"/>
      <point x="440" y="572" type="line" smooth="yes"/>
      <point x="633" y="568"/>
      <point x="703" y="509"/>
      <point x="703" y="376" type="curve" smooth="yes"/>
      <point x="703" y="357" type="line" smooth="yes"/>
      <point x="703" y="227"/>
      <point x="629" y="153"/>
      <point x="429" y="153" type="curve" smooth="yes"/>
      <point x="283" y="153"/>
      <point x="159" y="196"/>
      <point x="69" y="246" type="curve"/>
      <point x="88" y="52" type="line"/>
      <point x="157" y="19"/>
      <point x="282" y="-23"/>
    </contour>
  </outline>
</glyph>
<glyph name="five" format="2">
  <advance width="1053"/>
  <unicode hex="0035"/>
  <outline>
    <contour>
      <point x="500" y="-23" type="curve" smooth="yes"/>
      <point x="826" y="-23"/>
      <point x="968" y="135"/>
      <point x="968" y="386" type="curve" smooth="yes"/>
      <point x="968" y="449" type="line" smooth="yes"/>
      <point x="968" y="683"/>
      <point x="857" y="825"/>
      <point x="626" y="825" type="curve" smooth="yes"/>
      <point x="467" y="825"/>
      <point x="372" y="755"/>
      <point x="322" y="661" type="curve"/>
      <point x="314" y="661" type="line"/>
      <point x="317" y="829" type="line"/>
      <point x="317" y="1108" type="line"/>
      <point x="929" y="1108" type="line"/>
      <point x="929" y="1278" type="line"/>
      <point x="123" y="1278" type="line"/>
      <point x="123" y="548" type="line"/>
      <point x="299" y="518" type="line"/>
      <point x="355" y="604"/>
      <point x="436" y="660"/>
      <point x="556" y="660" type="curve" smooth="yes"/>
      <point x="703" y="660"/>
      <point x="768" y="580"/>
      <point x="768" y="443" type="curve" smooth="yes"/>
      <point x="768" y="388" type="line" smooth="yes"/>
      <point x="768" y="240"/>
      <point x="688" y="154"/>
      <point x="482" y="154" type="curve" smooth="yes"/>
      <point x="332" y="154"/>
      <point x="205" y="199"/>
      <point x="117" y="248" type="curve"/>
      <point x="137" y="57" type="line"/>
      <point x="206" y="21"/>
      <point x="332" y="-23"/>
    </contour>
  </outline>
</glyph>
<glyph name="K" format="2">
  <advance width="1149"/>
  <unicode hex="004B"/>
  <anchor x="586" y="0" name="bottom"/>
  <anchor x="586" y="1278" name="top"/>
  <outline>
    <contour>
      <point x="1118" y="0" type="line"/>
      <point x="610" y="687" type="line"/>
      <point x="611" y="639" type="line"/>
      <point x="1105" y="1278" type="line"/>
      <point x="877" y="1278" type="line"/>
      <point x="460" y="733" type="line"/>
      <point x="327" y="733" type="line"/>
      <point x="327" y="574" type="line"/>
      <point x="460" y="574" type="line"/>
      <point x="883" y="0" type="line"/>
    </contour>
    <contour>
      <point x="341" y="0" type="line"/>
      <point x="341" y="1278" type="line"/>
      <point x="142" y="1278" type="line"/>
      <point x="142" y="0" type="line"/>
    </contour>
  </outline>
</glyph>
<glyph name="W" format="2">
  <advance width="1653"/>
  <unicode hex="0057"/>
  <anchor x="827" y="0" name="bottom"/>
  <anchor x="827" y="1278" name="top"/>
  <outline>
    <contour>
      <point x="625" y="0" type="line"/>
      <point x="752" y="697" type="line"/>
      <point x="819" y="1080" type="line"/>
      <point x="835" y="1080" type="line"/>
      <point x="902" y="697" type="line"/>
      <point x="1030" y="0" type="line"/>
      <point x="1342" y="0" type="line"/>
      <point x="1595" y="1278" type="line"/>
      <point x="1391" y="1278" type="line"/>
      <point x="1230" y="391" type="line"/>
      <point x="1188" y="168" type="line"/>
      <point x="1171" y="168" type="line"/>
      <point x="1131" y="391" type="line"/>
      <point x="973" y="1246" type="line"/>
      <point x="681" y="1246" type="line"/>
      <point x="522" y="391" type="line"/>
      <point x="482" y="168" type="line"/>
      <point x="466" y="168" type="line"/>
      <point x="424" y="391" type="line"/>
      <point x="263" y="1278" type="line"/>
      <point x="58" y="1278" type="line"/>
      <point x="312" y="0" type="line"/>
    </contour>
  </outline>
</glyph>
<glyph name="j" format="2">
  <advance width="475"/>
  <unicode hex="006A"/>
  <outline>
    <component base="jbottom"/>
    <contour>
      <point x="348" y="170" type="line"/>
      <point x="348" y="978" type="line"/>
      <point x="152" y="978" type="line"/>
      <point x="152" y="170" type="line"/>
    </contour>
    <contour>
      <point x="250" y="1122" type="curve" smooth="yes"/>
      <point x="327" y="1122"/>
      <point x="365" y="1162"/>
      <point x="365" y="1233" type="curve" smooth="yes"/>
      <point x="365" y="1237" type="line" smooth="yes"/>
      <point x="365" y="1306"/>
      <point x="327" y="1348"/>
      <point x="250" y="1348" type="curve" smooth="yes"/>
      <point x="172" y="1348"/>
      <point x="135" y="1306"/>
      <point x="135" y="1237" type="curve" smooth="yes"/>
      <point x="135" y="1233" type="line" smooth="yes"/>
      <point x="135" y="1163"/>
      <point x="172" y="1122"/>
    </contour>
  </outline>
</glyph>
<glyph name="r" format="2">
  <advance width="754"/>
  <unicode hex="0072"/>
  <anchor x="222" y="0" name="bottom"/>
  <anchor x="406" y="978" name="top"/>
  <outline>
    <contour>
      <point x="312" y="591" type="line"/>
      <point x="358" y="728"/>
      <point x="467" y="804"/>
      <point x="610" y="804" type="curve" smooth="yes"/>
      <point x="657" y="804"/>
      <point x="697" y="797"/>
      <point x="729" y="787" type="curve"/>
      <point x="717" y="978" type="line"/>
      <point x="691" y="986"/>
      <point x="661" y="993"/>
      <point x="621" y="993" type="curve" smooth="yes"/>
      <point x="453" y="993"/>
      <point x="359" y="898"/>
      <point x="318" y="744" type="curve"/>
      <point x="270" y="744" type="line"/>
    </contour>
    <contour>
      <point x="320" y="0" type="line"/>
      <point x="320" y="679" type="line"/>
      <point x="306" y="693" type="line"/>
      <point x="315" y="978" type="line"/>
      <point x="124" y="978" type="line"/>
      <point x="124" y="0" type="line"/>
    </contour>
  </outline>
</glyph>
<glyph name="cent" format="2">
  <advance width="873"/>
  <unicode hex="00A2"/>
  <outline>
    <component base="c"/>
    <contour>
      <point x="591" y="1188" type="line"/>
      <point x="423" y="1188" type="line"/>
      <point x="423" y="926" type="line"/>
      <point x="591" y="926" type="line"/>
    </contour>
    <contour>
      <point x="591" y="78" type="line"/>
      <point x="423" y="78" type="line"/>
      <point x="423" y="-214" type="line"/>
      <point x="591" y="-214" type="line"/>
    </contour>
  </outline>
</glyph>
<glyph name="yen" format="2">
  <advance width="1133"/>
  <unicode hex="00A5"/>
  <outline>
    <component base="Y" xOffset="9"/>
    <contour>
      <point x="1011" y="536" type="line"/>
      <point x="1025" y="682" type="line"/>
      <point x="681" y="682" type="line"/>
      <point x="646" y="536" type="line"/>
    </contour>
    <contour>
      <point x="111" y="240" type="line"/>
      <point x="1011" y="240" type="line"/>
      <point x="1025" y="385" type="line"/>
      <point x="125" y="385" type="line"/>
    </contour>
    <contour>
      <point x="125" y="682" type="line"/>
      <point x="111" y="536" type="line"/>
      <point x="484" y="536" type="line"/>
      <point x="448" y="682" type="line"/>
    </contour>
  </outline>
</glyph>
<glyph name="ordfeminine" format="2">
  <advance width="665"/>
  <unicode hex="00AA"/>
  <outline>
    <contour>
      <point x="579" y="642" type="line"/>
      <point x="579" y="1053" type="line" smooth="yes"/>
      <point x="579" y="1190"/>
      <point x="518" y="1292"/>
      <point x="326" y="1292" type="curve" smooth="yes"/>
      <point x="229" y="1292"/>
      <point x="152" y="1263"/>
      <point x="98" y="1232" type="curve"/>
      <point x="86" y="1112" type="line"/>
      <point x="146" y="1145"/>
      <point x="219" y="1176"/>
      <point x="303" y="1176" type="curve" smooth="yes"/>
      <point x="405" y="1176"/>
      <point x="444" y="1133"/>
      <point x="444" y="1056" type="curve"/>
      <point x="444" y="1001" type="line"/>
      <point x="444" y="801" type="line"/>
      <point x="446" y="790" type="line"/>
      <point x="440" y="642" type="line"/>
    </contour>
    <contour>
      <point x="250" y="629" type="curve" smooth="yes"/>
      <point x="368" y="629"/>
      <point x="415" y="684"/>
      <point x="439" y="759" type="curve"/>
      <point x="463" y="759" type="line"/>
      <point x="447" y="854" type="line"/>
      <point x="430" y="792"/>
      <point x="373" y="746"/>
      <point x="298" y="746" type="curve" smooth="yes"/>
      <point x="230" y="746"/>
      <point x="199" y="777"/>
      <point x="199" y="829" type="curve" smooth="yes"/>
      <point x="199" y="840" type="line" smooth="yes"/>
      <point x="199" y="893"/>
      <point x="230" y="917"/>
      <point x="306" y="929" type="curve" smooth="yes"/>
      <point x="470" y="954" type="line"/>
      <point x="461" y="1054" type="line"/>
      <point x="275" y="1026" type="line" smooth="yes"/>
      <point x="125" y="1003"/>
      <point x="59" y="948"/>
      <point x="59" y="831" type="curve" smooth="yes"/>
      <point x="59" y="816" type="line" smooth="yes"/>
      <point x="59" y="696"/>
      <point x="126" y="629"/>
    </contour>
  </outline>
</glyph>
<glyph name="logicalnot" format="2">
  <advance width="1018"/>
  <unicode hex="00AC"/>
  <outline>
    <contour>
      <point x="905" y="640" type="line"/>
      <point x="739" y="640" type="line"/>
      <point x="739" y="198" type="line"/>
      <point x="905" y="198" type="line"/>
    </contour>
    <contour>
      <point x="905" y="543" type="line"/>
      <point x="905" y="700" type="line"/>
      <point x="99" y="700" type="line"/>
      <point x="99" y="543" type="line"/>
    </contour>
  </outline>
</glyph>
<glyph name="plusminus" format="2">
  <advance width="1031"/>
  <unicode hex="00B1"/>
  <outline>
    <contour>
      <point x="918" y="130" type="line"/>
      <point x="918" y="286" type="line"/>
      <point x="113" y="286" type="line"/>
      <point x="113" y="130" type="line"/>
    </contour>
    <contour>
      <point x="599" y="1098" type="line"/>
      <point x="432" y="1098" type="line"/>
      <point x="432" y="406" type="line"/>
      <point x="599" y="406" type="line"/>
    </contour>
    <contour>
      <point x="918" y="674" type="line"/>
      <point x="918" y="830" type="line"/>
      <point x="113" y="830" type="line"/>
      <point x="113" y="674" type="line"/>
    </contour>
  </outline>
</glyph>
<glyph name="Eth" format="2">
  <advance width="1195"/>
  <unicode hex="00D0"/>
  <outline>
    <component base="D"/>
    <contour>
      <point x="634" y="581" type="line"/>
      <point x="634" y="731" type="line"/>
      <point x="5" y="731" type="line"/>
      <point x="5" y="581" type="line"/>
    </contour>
  </outline>
</glyph>
<glyph name="multiply" format="2">
  <advance width="958"/>
  <unicode hex="00D7"/>
  <outline>
    <contour>
      <point x="208" y="1010" type="line"/>
      <point x="95" y="908" type="line"/>
      <point x="755" y="228" type="line"/>
      <point x="868" y="331" type="line"/>
    </contour>
    <contour>
      <point x="203" y="228" type="line"/>
      <point x="863" y="908" type="line"/>
      <point x="750" y="1010" type="line"/>
      <point x="90" y="331" type="line"/>
    </contour>
  </outline>
</glyph>
<glyph name="eth" format="2">
  <advance width="1051"/>
  <unicode hex="00F0"/>
  <outline>
    <contour>
      <point x="526" y="-25" type="curve" smooth="yes"/>
      <point x="814" y="-25"/>
      <point x="965" y="133"/>
      <point x="965" y="421" type="curve"/>
      <point x="965" y="523" type="line"/>
      <point x="965" y="866"/>
      <point x="777" y="1055"/>
      <point x="476" y="1324" type="curve"/>
      <point x="230" y="1324" type="line"/>
      <point x="230" y="1323" type="line"/>
      <point x="556" y="1051"/>
      <point x="738" y="890"/>
      <point x="767" y="688" type="curve"/>
      <point x="768" y="628"/>
      <point x="768" y="597"/>
      <point x="769" y="532" type="curve"/>
      <point x="769" y="481"/>
      <point x="769" y="450"/>
      <point x="769" y="409" type="curve" smooth="yes"/>
      <point x="769" y="231"/>
      <point x="685" y="134"/>
      <point x="526" y="134" type="curve" smooth="yes"/>
      <point x="367" y="134"/>
      <point x="283" y="231"/>
      <point x="283" y="409" type="curve" smooth="yes"/>
      <point x="283" y="486" type="line" smooth="yes"/>
      <point x="283" y="662"/>
      <point x="365" y="759"/>
      <point x="522" y="759" type="curve" smooth="yes"/>
      <point x="684" y="759"/>
      <point x="769" y="662"/>
      <point x="769" y="486" type="curve"/>
      <point x="783" y="779" type="line"/>
      <point x="733" y="765" type="line"/>
      <point x="686" y="858"/>
      <point x="607" y="915"/>
      <point x="465" y="915" type="curve" smooth="yes"/>
      <point x="233" y="915"/>
      <point x="86" y="754"/>
      <point x="86" y="482" type="curve" smooth="yes"/>
      <point x="86" y="421" type="line" smooth="yes"/>
      <point x="86" y="133"/>
      <point x="238" y="-25"/>
    </contour>
    <contour>
      <point x="912" y="1155" type="line"/>
      <point x="912" y="1281" type="line"/>
      <point x="198" y="1109" type="line"/>
      <point x="198" y="983" type="line"/>
    </contour>
  </outline>
</glyph>
<glyph name="divide" format="2">
  <advance width="1004"/>
  <unicode hex="00F7"/>
  <outline>
    <component base="period" xScale="0.9" yScale="0.9" xOffset="326" yOffset="178"/>
    <component base="period" xScale="0.9" yScale="0.9" xOffset="326" yOffset="873"/>
    <contour>
      <point x="905" y="541" type="line"/>
      <point x="905" y="701" type="line"/>
      <point x="99" y="701" type="line"/>
      <point x="99" y="541" type="line"/>
    </contour>
  </outline>
</glyph>
<glyph name="tildecomb" format="2">
  <advance width="775"/>
  <unicode hex="0303"/>
  <anchor x="389" y="978" name="_top"/>
  <anchor x="389" y="1320" name="top"/>
  <outline>
    <contour>
      <point x="520" y="1117" type="curve" smooth="yes"/>
      <point x="632" y="1117"/>
      <point x="675" y="1186"/>
      <point x="675" y="1303" type="curve" smooth="yes"/>
      <point x="675" y="1338" type="line"/>
      <point x="552" y="1338" type="line"/>
      <point x="552" y="1324" type="line" smooth="yes"/>
      <point x="552" y="1278"/>
      <point x="539" y="1255"/>
      <point x="502" y="1255" type="curve" smooth="yes"/>
      <point x="438" y="1255"/>
      <point x="354" y="1327"/>
      <point x="256" y="1327" type="curve" smooth="yes"/>
      <point x="143" y="1327"/>
      <point x="100" y="1256"/>
      <point x="100" y="1140" type="curve" smooth="yes"/>
      <point x="100" y="1106" type="line"/>
      <point x="223" y="1106" type="line"/>
      <point x="223" y="1120" type="line" smooth="yes"/>
      <point x="223" y="1165"/>
      <point x="237" y="1188"/>
      <point x="273" y="1188" type="curve" smooth="yes"/>
      <point x="337" y="1188"/>
      <point x="425" y="1117"/>
    </contour>
  </outline>
</glyph>
<glyph name="Danda.dv" format="2">
  <advance width="773"/>
  <unicode hex="0964"/>
  <outline>
    <contour>
      <point x="479" y="1301" type="line"/>
      <point x="479" y="-5" type="line"/>
      <point x="294" y="-5" type="line"/>
      <point x="294" y="1328" type="line"/>
    </contour>
  </outline>
</glyph>
<glyph name="Candrabindu_Spacing.ka" format="2">
  <advance width="1230"/>
  <unicode hex="0C80"/>
  <unicode hex="0D04"/>
  <outline>
    <contour>
      <point x="615" y="918" type="curve" smooth="yes"/>
      <point x="683" y="918"/>
      <point x="717" y="877"/>
      <point x="717" y="792" type="curve" smooth="yes"/>
      <point x="717" y="652" type="line" smooth="yes"/>
      <point x="717" y="568"/>
      <point x="683" y="526"/>
      <point x="615" y="526" type="curve" smooth="yes"/>
      <point x="548" y="526"/>
      <point x="513" y="568"/>
      <point x="513" y="652" type="curve" smooth="yes"/>
      <point x="513" y="792" type="line" smooth="yes"/>
      <point x="513" y="877"/>
      <point x="548" y="918"/>
    </contour>
    <contour>
      <point x="615" y="106" type="curve" smooth="yes"/>
      <point x="952" y="106"/>
      <point x="1124" y="281"/>
      <point x="1124" y="617" type="curve" smooth="yes"/>
      <point x="1124" y="676"/>
      <point x="1120" y="710"/>
      <point x="1111" y="769" type="curve"/>
      <point x="938" y="769" type="line"/>
      <point x="938" y="645" type="line" smooth="yes"/>
      <point x="938" y="398"/>
      <point x="834" y="277"/>
      <point x="615" y="277" type="curve" smooth="yes"/>
      <point x="396" y="277"/>
      <point x="292" y="398"/>
      <point x="292" y="645" type="curve" smooth="yes"/>
      <point x="292" y="769" type="line"/>
      <point x="119" y="769" type="line"/>
      <point x="110" y="710"/>
      <point x="106" y="676"/>
      <point x="106" y="617" type="curve" smooth="yes"/>
      <point x="106" y="281"/>
      <point x="278" y="106"/>
    </contour>
  </outline>
</glyph>
<glyph name="Candrabindu" format="2">
  <unicode hex="0C81"/>
  <unicode hex="0D01"/>
  <outline>
    <contour>
      <point x="-787" y="1452" type="curve" smooth="yes"/>
      <point x="-943" y="1452"/>
      <point x="-1019" y="1527"/>
      <point x="-1019" y="1658" type="curve" smooth="yes"/>
      <point x="-1019" y="1681" type="line"/>
      <point x="-1173" y="1681" type="line"/>
      <point x="-1173" y="1654" type="line" smooth="yes"/>
      <point x="-1173" y="1433"/>
      <point x="-1045" y="1312"/>
      <point x="-788" y="1312" type="curve" smooth="yes"/>
      <point x="-531" y="1312"/>
      <point x="-401" y="1433"/>
      <point x="-401" y="1654" type="curve" smooth="yes"/>
      <point x="-401" y="1681" type="line"/>
      <point x="-555" y="1681" type="line"/>
      <point x="-555" y="1658" type="line" smooth="yes"/>
      <point x="-555" y="1527"/>
      <point x="-631" y="1452"/>
    </contour>
    <contour>
      <point x="-890" y="1685" type="line" smooth="yes"/>
      <point x="-890" y="1617"/>
      <point x="-856" y="1578"/>
      <point x="-787" y="1578" type="curve" smooth="yes"/>
      <point x="-720" y="1578"/>
      <point x="-684" y="1617"/>
      <point x="-684" y="1685" type="curve" smooth="yes"/>
      <point x="-684" y="1690" type="line" smooth="yes"/>
      <point x="-684" y="1760"/>
      <point x="-720" y="1798"/>
      <point x="-787" y="1798" type="curve" smooth="yes"/>
      <point x="-856" y="1798"/>
      <point x="-890" y="1760"/>
      <point x="-890" y="1690" type="curve" smooth="yes"/>
    </contour>
  </outline>
</glyph>
<glyph name="Visarga.kn" format="2">
  <advance width="717"/>
  <unicode hex="0C83"/>
  <outline>
    <contour>
      <point x="358" y="1" type="curve" smooth="yes"/>
      <point x="553" y="1"/>
      <point x="653" y="92"/>
      <point x="653" y="262" type="curve" smooth="yes"/>
      <point x="653" y="273" type="line" smooth="yes"/>
      <point x="653" y="443"/>
      <point x="553" y="534"/>
      <point x="358" y="534" type="curve" smooth="yes"/>
      <point x="164" y="534"/>
      <point x="63" y="443"/>
      <point x="63" y="273" type="curve" smooth="yes"/>
      <point x="63" y="262" type="line" smooth="yes"/>
      <point x="63" y="92"/>
      <point x="164" y="1"/>
    </contour>
    <contour>
      <point x="358" y="387" type="curve" smooth="yes"/>
      <point x="436" y="387"/>
      <point x="477" y="347"/>
      <point x="477" y="273" type="curve" smooth="yes"/>
      <point x="477" y="262" type="line" smooth="yes"/>
      <point x="477" y="187"/>
      <point x="436" y="148"/>
      <point x="358" y="148" type="curve" smooth="yes"/>
      <point x="281" y="148"/>
      <point x="239" y="187"/>
      <point x="239" y="262" type="curve" smooth="yes"/>
      <point x="239" y="273" type="line" smooth="yes"/>
      <point x="239" y="347"/>
      <point x="281" y="387"/>
    </contour>
    <contour>
      <point x="358" y="609" type="curve" smooth="yes"/>
      <point x="553" y="609"/>
      <point x="653" y="700"/>
      <point x="653" y="870" type="curve" smooth="yes"/>
      <point x="653" y="880" type="line" smooth="yes"/>
      <point x="653" y="1050"/>
      <point x="553" y="1141"/>
      <point x="358" y="1141" type="curve" smooth="yes"/>
      <point x="164" y="1141"/>
      <point x="63" y="1050"/>
      <point x="63" y="880" type="curve" smooth="yes"/>
      <point x="63" y="870" type="line" smooth="yes"/>
      <point x="63" y="700"/>
      <point x="164" y="609"/>
    </contour>
    <contour>
      <point x="358" y="994" type="curve" smooth="yes"/>
      <point x="436" y="994"/>
      <point x="477" y="954"/>
      <point x="477" y="880" type="curve" smooth="yes"/>
      <point x="477" y="870" type="line" smooth="yes"/>
      <point x="477" y="795"/>
      <point x="436" y="756"/>
      <point x="358" y="756" type="curve" smooth="yes"/>
      <point x="281" y="756"/>
      <point x="239" y="795"/>
      <point x="239" y="870" type="curve" smooth="yes"/>
      <point x="239" y="880" type="line" smooth="yes"/>
      <point x="239" y="954"/>
      <point x="281" y="994"/>
    </contour>
  </outline>
</glyph>
<glyph name="swastisri" format="2">
  <advance width="1515"/>
  <unicode hex="0C84"/>
  <outline>
    <contour>
      <point x="1437" y="533" type="line" smooth="yes"/>
      <point x="1437" y="151"/>
      <point x="1207" y="-46"/>
      <point x="781" y="-46" type="curve" smooth="yes"/>
      <point x="325" y="-46"/>
      <point x="80" y="167"/>
      <point x="80" y="583" type="curve" smooth="yes"/>
      <point x="80" y="620" type="line" smooth="yes"/>
      <point x="80" y="1080"/>
      <point x="345" y="1323"/>
      <point x="849" y="1323" type="curve"/>
      <point x="863" y="1181" type="line"/>
      <point x="458" y="1181"/>
      <point x="246" y="987"/>
      <point x="246" y="620" type="curve" smooth="yes"/>
      <point x="246" y="584" type="line" smooth="yes"/>
      <point x="246" y="266"/>
      <point x="438" y="96"/>
      <point x="779" y="96" type="curve" smooth="yes"/>
      <point x="1097" y="96"/>
      <point x="1271" y="252"/>
      <point x="1271" y="538" type="curve" smooth="yes"/>
      <point x="1271" y="573" type="line" smooth="yes"/>
      <point x="1271" y="826"/>
      <point x="1135" y="952"/>
      <point x="890" y="952" type="curve" smooth="yes"/>
      <point x="661" y="952"/>
      <point x="535" y="839"/>
      <point x="535" y="622" type="curve" smooth="yes"/>
      <point x="535" y="588" type="line" smooth="yes"/>
      <point x="535" y="423"/>
      <point x="626" y="335"/>
      <point x="783" y="335" type="curve" smooth="yes"/>
      <point x="918" y="335"/>
      <point x="986" y="402"/>
      <point x="986" y="540" type="curve" smooth="yes"/>
      <point x="986" y="588" type="line" smooth="yes"/>
      <point x="986" y="674"/>
      <point x="955" y="714"/>
      <point x="895" y="714" type="curve" smooth="yes"/>
      <point x="841" y="714"/>
      <point x="814" y="683"/>
      <point x="814" y="625" type="curve" smooth="yes"/>
      <point x="814" y="611" type="line" smooth="yes"/>
      <point x="814" y="557"/>
      <point x="839" y="533"/>
      <point x="887" y="533" type="curve"/>
      <point x="887" y="434" type="line"/>
      <point x="869" y="421"/>
      <point x="839" y="414"/>
      <point x="804" y="414" type="curve" smooth="yes"/>
      <point x="706" y="414"/>
      <point x="649" y="480"/>
      <point x="649" y="597" type="curve" smooth="yes"/>
      <point x="649" y="618" type="line" smooth="yes"/>
      <point x="649" y="776"/>
      <point x="736" y="856"/>
      <point x="892" y="856" type="curve" smooth="yes"/>
      <point x="1057" y="856"/>
      <point x="1151" y="761"/>
      <point x="1151" y="583" type="curve" smooth="yes"/>
      <point x="1151" y="537" type="line" smooth="yes"/>
      <point x="1151" y="312"/>
      <point x="1017" y="193"/>
      <point x="783" y="193" type="curve" smooth="yes"/>
      <point x="521" y="193"/>
      <point x="370" y="330"/>
      <point x="370" y="586" type="curve" smooth="yes"/>
      <point x="370" y="620" type="line" smooth="yes"/>
      <point x="370" y="927"/>
      <point x="558" y="1094"/>
      <point x="891" y="1094" type="curve" smooth="yes"/>
      <point x="1243" y="1094"/>
      <point x="1437" y="915"/>
      <point x="1437" y="568" type="curve" smooth="yes"/>
    </contour>
  </outline>
</glyph>
<glyph name="vowelI.kn" format="2">
  <advance width="1465"/>
  <unicode hex="0C87"/>
  <outline>
    <contour>
      <point x="1387" y="-165" type="line"/>
      <point x="1347" y="18"/>
      <point x="1291" y="181"/>
      <point x="1213" y="308" type="curve"/>
      <point x="1106" y="180" type="line"/>
      <point x="1142" y="74"/>
      <point x="1167" y="-39"/>
      <point x="1180" y="-165" type="curve"/>
    </contour>
    <contour>
      <point x="1347" y="695" type="curve" smooth="yes"/>
      <point x="1347" y="807" type="line" smooth="yes"/>
      <point x="1347" y="1071"/>
      <point x="1232" y="1202"/>
      <point x="997" y="1202" type="curve" smooth="yes"/>
      <point x="817" y="1202"/>
      <point x="722" y="1120"/>
      <point x="705" y="981" type="curve"/>
      <point x="699" y="981" type="line"/>
      <point x="683" y="1120"/>
      <point x="588" y="1202"/>
      <point x="403" y="1202" type="curve" smooth="yes"/>
      <point x="181" y="1202"/>
      <point x="67" y="1091"/>
      <point x="67" y="869" type="curve" smooth="yes"/>
      <point x="67" y="860" type="line" smooth="yes"/>
      <point x="67" y="781"/>
      <point x="77" y="725"/>
      <point x="99" y="681" type="curve"/>
      <point x="280" y="681" type="line"/>
      <point x="266" y="719"/>
      <point x="254" y="772"/>
      <point x="254" y="839" type="curve" smooth="yes"/>
      <point x="254" y="846" type="line" smooth="yes"/>
      <point x="254" y="968"/>
      <point x="313" y="1029"/>
      <point x="428" y="1029" type="curve" smooth="yes"/>
      <point x="546" y="1029"/>
      <point x="600.131" y="960.972"/>
      <point x="605" y="821" type="curve" smooth="yes"/>
      <point x="609" y="706" type="line"/>
      <point x="796" y="706" type="line"/>
      <point x="800" y="821" type="line" smooth="yes"/>
      <point x="805" y="961"/>
      <point x="858" y="1029"/>
      <point x="974" y="1029" type="curve" smooth="yes"/>
      <point x="1095" y="1029"/>
      <point x="1155" y="953"/>
      <point x="1155" y="799" type="curve" smooth="yes"/>
      <point x="1155" y="693" type="line" smooth="yes"/>
      <point x="1155" y="556"/>
      <point x="1141" y="457"/>
      <point x="1093" y="367" type="curve"/>
      <point x="1076" y="337" type="line"/>
      <point x="1009" y="225"/>
      <point x="866" y="141"/>
      <point x="672" y="141" type="curve" smooth="yes"/>
      <point x="502" y="141"/>
      <point x="417" y="189"/>
      <point x="417" y="285" type="curve" smooth="yes"/>
      <point x="417" y="290" type="line" smooth="yes"/>
      <point x="417" y="387"/>
      <point x="499" y="436"/>
      <point x="666" y="436" type="curve" smooth="yes"/>
      <point x="852" y="436"/>
      <point x="983" y="370"/>
      <point x="1066" y="247" type="curve"/>
      <point x="1159" y="359" type="line"/>
      <point x="1066" y="513"/>
      <point x="907" y="598"/>
      <point x="654" y="598" type="curve" smooth="yes"/>
      <point x="374" y="598"/>
      <point x="225" y="498"/>
      <point x="225" y="289" type="curve" smooth="yes"/>
      <point x="225" y="284" type="line" smooth="yes"/>
      <point x="225" y="75"/>
      <point x="377" y="-26"/>
      <point x="665" y="-26" type="curve" smooth="yes"/>
      <point x="888" y="-26"/>
      <point x="1067" y="50"/>
      <point x="1166" y="173" type="curve"/>
      <point x="1215" y="214" type="line"/>
      <point x="1313" y="333"/>
      <point x="1347" y="487"/>
    </contour>
  </outline>
</glyph>
<glyph name="vowelII.kn" format="2">
  <advance width="1820"/>
  <unicode hex="0C88"/>
  <outline>
    <contour>
      <point x="426" y="1035" type="line"/>
      <point x="426" y="1005" type="line"/>
      <point x="282" y="963.101"/>
      <point x="207" y="826.431"/>
      <point x="207" y="591" type="curve" smooth="yes"/>
      <point x="207" y="473" type="line" smooth="yes"/>
      <point x="207" y="137"/>
      <point x="387" y="-33"/>
      <point x="733" y="-33" type="curve" smooth="yes"/>
      <point x="1081" y="-33"/>
      <point x="1261" y="137"/>
      <point x="1261" y="473" type="curve" smooth="yes"/>
      <point x="1261" y="591" type="line" smooth="yes"/>
      <point x="1261" y="825.863"/>
      <point x="1185.69" y="962.202"/>
      <point x="1042" y="1004" type="curve"/>
      <point x="1042" y="1034" type="line"/>
    </contour>
    <contour>
      <point x="733" y="136" type="curve" smooth="yes"/>
      <point x="510" y="136"/>
      <point x="399" y="263"/>
      <point x="399" y="509" type="curve" smooth="yes"/>
      <point x="399" y="641" type="line" smooth="yes"/>
      <point x="399" y="888.332"/>
      <point x="510" y="1011"/>
      <point x="733" y="1011" type="curve" smooth="yes"/>
      <point x="958" y="1011"/>
      <point x="1069" y="887.333"/>
      <point x="1069" y="640" type="curve" smooth="yes"/>
      <point x="1069" y="509" type="line" smooth="yes"/>
      <point x="1069" y="263"/>
      <point x="959" y="136"/>
    </contour>
    <contour>
      <point x="974" y="1011" type="line"/>
      <point x="974" y="1171" type="line"/>
      <point x="187" y="1171" type="line"/>
      <point x="187" y="1011" type="line"/>
    </contour>
    <contour>
      <point x="1543" y="302" type="line" smooth="yes"/>
      <point x="1543" y="189"/>
      <point x="1498" y="142"/>
      <point x="1403" y="142" type="curve" smooth="yes"/>
      <point x="1369" y="142"/>
      <point x="1329" y="149"/>
      <point x="1304" y="158" type="curve"/>
      <point x="1325" y="-4" type="line"/>
      <point x="1366" y="-17"/>
      <point x="1416" y="-23"/>
      <point x="1463" y="-23" type="curve" smooth="yes"/>
      <point x="1644" y="-23"/>
      <point x="1733" y="64"/>
      <point x="1733" y="250" type="curve" smooth="yes"/>
      <point x="1733" y="285" type="line" smooth="yes"/>
      <point x="1733" y="426"/>
      <point x="1678" y="503"/>
      <point x="1580" y="525" type="curve"/>
      <point x="1580" y="547" type="line"/>
      <point x="1330" y="547" type="line"/>
      <point x="1337" y="506" type="line"/>
      <point x="1392" y="506" type="line" smooth="yes"/>
      <point x="1495" y="506"/>
      <point x="1543" y="454"/>
      <point x="1543" y="336" type="curve" smooth="yes"/>
    </contour>
    <contour>
      <point x="1511" y="531" type="line"/>
      <point x="1589" y="531" type="line" smooth="yes"/>
      <point x="1685" y="531"/>
      <point x="1723" y="581"/>
      <point x="1723" y="670" type="curve" smooth="yes"/>
      <point x="1723" y="751"/>
      <point x="1693" y="912"/>
      <point x="1650" y="1002" type="curve"/>
      <point x="1510" y="1002" type="line"/>
      <point x="1510" y="665" type="line"/>
      <point x="1167" y="665" type="line"/>
      <point x="1135" y="666" type="line"/>
      <point x="311" y="666" type="line"/>
      <point x="288" y="666" type="line"/>
      <point x="40" y="666" type="line"/>
      <point x="40" y="505" type="line"/>
      <point x="287" y="505" type="line"/>
      <point x="311" y="507" type="line"/>
      <point x="1144" y="507" type="line"/>
      <point x="1176" y="506" type="line"/>
      <point x="1494" y="506" type="line"/>
    </contour>
    <contour>
      <point x="1080" y="1535" type="line"/>
      <point x="1113" y="1463"/>
      <point x="1137" y="1384"/>
      <point x="1137" y="1306" type="curve" smooth="yes"/>
      <point x="1137" y="1210"/>
      <point x="1100" y="1171"/>
      <point x="1009" y="1171" type="curve" smooth="yes"/>
      <point x="946" y="1171" type="line"/>
      <point x="960" y="1010" type="line"/>
      <point x="1078" y="1010" type="line" smooth="yes"/>
      <point x="1237" y="1010"/>
      <point x="1314" y="1093.65"/>
      <point x="1314" y="1268" type="curve" smooth="yes"/>
      <point x="1314" y="1371"/>
      <point x="1286" y="1462"/>
      <point x="1237" y="1535" type="curve"/>
    </contour>
  </outline>
</glyph>
<glyph name="vowelU.kn" format="2">
  <advance width="2435"/>
  <unicode hex="0C89"/>
  <outline>
    <contour>
      <point x="466" y="1202" type="curve" smooth="yes"/>
      <point x="690" y="1202"/>
      <point x="803" y="1080"/>
      <point x="803" y="845" type="curve" smooth="yes"/>
      <point x="803" y="810" type="line" smooth="yes"/>
      <point x="803" y="595"/>
      <point x="713" y="484"/>
      <point x="538" y="484" type="curve" smooth="yes"/>
      <point x="414" y="484"/>
      <point x="335" y="538"/>
      <point x="303" y="626" type="curve"/>
      <point x="268" y="626" type="line"/>
      <point x="275" y="775" type="line"/>
      <point x="313" y="691"/>
      <point x="380" y="644"/>
      <point x="477" y="644" type="curve" smooth="yes"/>
      <point x="570" y="644"/>
      <point x="616" y="696"/>
      <point x="616" y="813" type="curve" smooth="yes"/>
      <point x="616" y="848" type="line" smooth="yes"/>
      <point x="616" y="973"/>
      <point x="568" y="1037"/>
      <point x="465" y="1037" type="curve" smooth="yes"/>
      <point x="341" y="1037"/>
      <point x="295" y="959"/>
      <point x="295" y="780" type="curve" smooth="yes"/>
      <point x="295" y="650" type="line"/>
      <point x="108" y="640" type="line"/>
      <point x="108" y="766" type="line" smooth="yes"/>
      <point x="108" y="1062"/>
      <point x="221" y="1202"/>
    </contour>
    <contour>
      <point x="295" y="531" type="line" smooth="yes"/>
      <point x="295" y="274"/>
      <point x="407" y="145"/>
      <point x="634" y="145" type="curve" smooth="yes"/>
      <point x="852" y="145"/>
      <point x="962" y="270"/>
      <point x="962" y="514" type="curve" smooth="yes"/>
      <point x="962" y="805" type="line" smooth="yes"/>
      <point x="962" y="1066"/>
      <point x="1077" y="1197"/>
      <point x="1311" y="1197" type="curve" smooth="yes"/>
      <point x="1545" y="1197"/>
      <point x="1661" y="1066"/>
      <point x="1661" y="805" type="curve" smooth="yes"/>
      <point x="1661" y="613" type="line"/>
      <point x="1471" y="613" type="line"/>
      <point x="1471" y="805" type="line" smooth="yes"/>
      <point x="1471" y="956"/>
      <point x="1422" y="1026"/>
      <point x="1311" y="1026" type="curve" smooth="yes"/>
      <point x="1200" y="1026"/>
      <point x="1152" y="957"/>
      <point x="1152" y="805" type="curve" smooth="yes"/>
      <point x="1152" y="509" type="line" smooth="yes"/>
      <point x="1152" y="154"/>
      <point x="978" y="-27"/>
      <point x="635" y="-27" type="curve" smooth="yes"/>
      <point x="283" y="-27"/>
      <point x="108" y="161"/>
      <point x="108" y="531" type="curve" smooth="yes"/>
      <point x="108" y="662" type="line"/>
      <point x="295" y="678" type="line"/>
    </contour>
    <contour>
      <point x="2320" y="447" type="line" smooth="yes"/>
      <point x="2320" y="129"/>
      <point x="2180" y="-27"/>
      <point x="1897" y="-27" type="curve" smooth="yes"/>
      <point x="1613" y="-27"/>
      <point x="1471" y="126"/>
      <point x="1471" y="438" type="curve" smooth="yes"/>
      <point x="1471" y="656" type="line"/>
      <point x="1661" y="656" type="line"/>
      <point x="1661" y="445" type="line" smooth="yes"/>
      <point x="1661" y="238"/>
      <point x="1735" y="145"/>
      <point x="1894" y="145" type="curve" smooth="yes"/>
      <point x="2052" y="145"/>
      <point x="2128" y="240"/>
      <point x="2128" y="447" type="curve" smooth="yes"/>
      <point x="2128" y="685" type="line" smooth="yes"/>
      <point x="2128" y="914"/>
      <point x="2053" y="1012"/>
      <point x="1898" y="1012" type="curve" smooth="yes"/>
      <point x="1885" y="1012"/>
      <point x="1872" y="1012"/>
      <point x="1856" y="1010" type="curve"/>
      <point x="1856" y="1180" type="line"/>
      <point x="1883" y="1183"/>
      <point x="1906" y="1185"/>
      <point x="1933" y="1185" type="curve" smooth="yes"/>
      <point x="2192" y="1185"/>
      <point x="2320" y="1023"/>
      <point x="2320" y="684" type="curve" smooth="yes"/>
    </contour>
  </outline>
</glyph>
<glyph name="vowelUu.kn" format="2">
  <advance width="3152"/>
  <unicode hex="0C8A"/>
  <outline>
    <contour>
      <point x="2152" y="541" type="line"/>
      <point x="2152" y="345" type="line" smooth="yes"/>
      <point x="2152" y="98"/>
      <point x="2037" y="-27"/>
      <point x="1809" y="-27" type="curve" smooth="yes"/>
      <point x="1584" y="-27"/>
      <point x="1471" y="98"/>
      <point x="1471" y="345" type="curve" smooth="yes"/>
      <point x="1471" y="647" type="line"/>
      <point x="1661" y="642" type="line"/>
      <point x="1661" y="349" type="line" smooth="yes"/>
      <point x="1661" y="209"/>
      <point x="1708" y="144"/>
      <point x="1811" y="144" type="curve" smooth="yes"/>
      <point x="1915" y="144"/>
      <point x="1962" y="209"/>
      <point x="1962" y="349" type="curve" smooth="yes"/>
      <point x="1962" y="541" type="line"/>
    </contour>
    <contour>
      <point x="466" y="1202" type="curve" smooth="yes"/>
      <point x="690" y="1202"/>
      <point x="803" y="1080"/>
      <point x="803" y="845" type="curve" smooth="yes"/>
      <point x="803" y="810" type="line" smooth="yes"/>
      <point x="803" y="595"/>
      <point x="713" y="484"/>
      <point x="538" y="484" type="curve" smooth="yes"/>
      <point x="414" y="484"/>
      <point x="335" y="538"/>
      <point x="303" y="626" type="curve"/>
      <point x="268" y="626" type="line"/>
      <point x="275" y="775" type="line"/>
      <point x="313" y="691"/>
      <point x="380" y="644"/>
      <point x="477" y="644" type="curve" smooth="yes"/>
      <point x="570" y="644"/>
      <point x="616" y="696"/>
      <point x="616" y="813" type="curve" smooth="yes"/>
      <point x="616" y="848" type="line" smooth="yes"/>
      <point x="616" y="973"/>
      <point x="568" y="1037"/>
      <point x="465" y="1037" type="curve" smooth="yes"/>
      <point x="341" y="1037"/>
      <point x="295" y="959"/>
      <point x="295" y="780" type="curve" smooth="yes"/>
      <point x="295" y="650" type="line"/>
      <point x="108" y="640" type="line"/>
      <point x="108" y="766" type="line" smooth="yes"/>
      <point x="108" y="1062"/>
      <point x="221" y="1202"/>
    </contour>
    <contour>
      <point x="295" y="531" type="line" smooth="yes"/>
      <point x="295" y="274"/>
      <point x="407" y="145"/>
      <point x="634" y="145" type="curve" smooth="yes"/>
      <point x="852" y="145"/>
      <point x="962" y="270"/>
      <point x="962" y="514" type="curve" smooth="yes"/>
      <point x="962" y="805" type="line" smooth="yes"/>
      <point x="962" y="1066"/>
      <point x="1077" y="1197"/>
      <point x="1311" y="1197" type="curve" smooth="yes"/>
      <point x="1545" y="1197"/>
      <point x="1661" y="1066"/>
      <point x="1661" y="805" type="curve" smooth="yes"/>
      <point x="1661" y="613" type="line"/>
      <point x="1471" y="613" type="line"/>
      <point x="1471" y="805" type="line" smooth="yes"/>
      <point x="1471" y="956"/>
      <point x="1422" y="1026"/>
      <point x="1311" y="1026" type="curve" smooth="yes"/>
      <point x="1200" y="1026"/>
      <point x="1152" y="957"/>
      <point x="1152" y="805" type="curve" smooth="yes"/>
      <point x="1152" y="509" type="line" smooth="yes"/>
      <point x="1152" y="154"/>
      <point x="978" y="-27"/>
      <point x="635" y="-27" type="curve" smooth="yes"/>
      <point x="283" y="-27"/>
      <point x="108" y="161"/>
      <point x="108" y="531" type="curve" smooth="yes"/>
      <point x="108" y="662" type="line"/>
      <point x="295" y="678" type="line"/>
    </contour>
    <contour>
      <point x="2500" y="1202" type="curve" smooth="yes"/>
      <point x="2856" y="1202"/>
      <point x="3039" y="1011"/>
      <point x="3039" y="637" type="curve" smooth="yes"/>
      <point x="3039" y="509" type="line"/>
      <point x="2849" y="499" type="line"/>
      <point x="2849" y="639" type="line" smooth="yes"/>
      <point x="2849" y="898"/>
      <point x="2736" y="1031"/>
      <point x="2500" y="1031" type="curve" smooth="yes"/>
      <point x="2264" y="1031"/>
      <point x="2152" y="900"/>
      <point x="2152" y="639" type="curve" smooth="yes"/>
      <point x="2152" y="525" type="line"/>
      <point x="1962" y="525" type="line"/>
      <point x="1962" y="641" type="line" smooth="yes"/>
      <point x="1962" y="1013"/>
      <point x="2143" y="1202"/>
    </contour>
    <contour>
      <point x="3039" y="395" type="line" smooth="yes"/>
      <point x="3039" y="107"/>
      <point x="2932" y="-27"/>
      <point x="2690" y="-27" type="curve" smooth="yes"/>
      <point x="2462" y="-27"/>
      <point x="2350" y="91"/>
      <point x="2350" y="316" type="curve" smooth="yes"/>
      <point x="2350" y="365" type="line" smooth="yes"/>
      <point x="2350" y="582"/>
      <point x="2439" y="696"/>
      <point x="2626" y="696" type="curve" smooth="yes"/>
      <point x="2742" y="696"/>
      <point x="2813" y="643"/>
      <point x="2843" y="552" type="curve"/>
      <point x="2877" y="552" type="line"/>
      <point x="2863" y="411" type="line"/>
      <point x="2830" y="490"/>
      <point x="2771" y="534"/>
      <point x="2685" y="534" type="curve" smooth="yes"/>
      <point x="2586" y="534"/>
      <point x="2538" y="480"/>
      <point x="2538" y="362" type="curve" smooth="yes"/>
      <point x="2538" y="317" type="line" smooth="yes"/>
      <point x="2538" y="199"/>
      <point x="2587" y="139"/>
      <point x="2692" y="139" type="curve" smooth="yes"/>
      <point x="2808" y="139"/>
      <point x="2850" y="210"/>
      <point x="2850" y="376" type="curve" smooth="yes"/>
      <point x="2850" y="504" type="line"/>
      <point x="3039" y="514" type="line"/>
    </contour>
  </outline>
</glyph>
<glyph name="vowelLru.kn" format="2">
  <advance width="1529"/>
  <unicode hex="0C8C"/>
  <outline>
    <contour>
      <point x="393" y="0" type="line"/>
      <point x="334" y="98"/>
      <point x="292" y="222"/>
      <point x="292" y="356" type="curve" smooth="yes"/>
      <point x="292" y="428" type="line" smooth="yes"/>
      <point x="292" y="579"/>
      <point x="355" y="652"/>
      <point x="484" y="652" type="curve" smooth="yes"/>
      <point x="606" y="652"/>
      <point x="666.38" y="574.005"/>
      <point x="668" y="434" type="curve" smooth="yes"/>
      <point x="673" y="2" type="line"/>
      <point x="854" y="2" type="line"/>
      <point x="859" y="434" type="line" smooth="yes"/>
      <point x="860.62" y="574.005"/>
      <point x="921" y="652"/>
      <point x="1043" y="652" type="curve" smooth="yes"/>
      <point x="1172" y="652"/>
      <point x="1235" y="579"/>
      <point x="1235" y="428" type="curve" smooth="yes"/>
      <point x="1235" y="356" type="line" smooth="yes"/>
      <point x="1235" y="222"/>
      <point x="1193" y="98"/>
      <point x="1134" y="0" type="curve"/>
      <point x="1327" y="0" type="line"/>
      <point x="1391" y="83"/>
      <point x="1426" y="209"/>
      <point x="1426" y="359" type="curve" smooth="yes"/>
      <point x="1426" y="432" type="line" smooth="yes"/>
      <point x="1426" y="690"/>
      <point x="1310" y="821"/>
      <point x="1086" y="821" type="curve" smooth="yes"/>
      <point x="955" y="821"/>
      <point x="874" y="772"/>
      <point x="842" y="689" type="curve"/>
      <point x="836" y="691" type="line"/>
      <point x="848" y="757"/>
      <point x="859" y="819.976"/>
      <point x="859" y="903" type="curve" smooth="yes"/>
      <point x="859" y="1170" type="line"/>
      <point x="669" y="1170" type="line"/>
      <point x="669" y="903" type="line" smooth="yes"/>
      <point x="669" y="820"/>
      <point x="679" y="757"/>
      <point x="691" y="691" type="curve"/>
      <point x="685" y="689" type="line"/>
      <point x="653" y="772"/>
      <point x="572" y="821"/>
      <point x="441" y="821" type="curve" smooth="yes"/>
      <point x="217" y="821"/>
      <point x="101" y="690"/>
      <point x="101" y="432" type="curve" smooth="yes"/>
      <point x="101" y="359" type="line" smooth="yes"/>
      <point x="101" y="209"/>
      <point x="136" y="83"/>
      <point x="200" y="0" type="curve"/>
    </contour>
  </outline>
</glyph>
<glyph name="vowelE.kn" format="2">
  <advance width="1547"/>
  <unicode hex="0C8E"/>
  <outline>
    <contour>
      <point x="1093" y="-27" type="curve" smooth="yes"/>
      <point x="1320" y="-27"/>
      <point x="1436" y="105"/>
      <point x="1436" y="372" type="curve" smooth="yes"/>
      <point x="1436" y="451" type="line" smooth="yes"/>
      <point x="1436" y="975"/>
      <point x="1152" y="1214"/>
      <point x="558" y="1214" type="curve" smooth="yes"/>
      <point x="531" y="1214"/>
      <point x="482" y="1214"/>
      <point x="435" y="1214" type="curve"/>
      <point x="378" y="1048" type="line"/>
      <point x="434" y="1048"/>
      <point x="495" y="1048"/>
      <point x="525" y="1048" type="curve" smooth="yes"/>
      <point x="1020" y="1048"/>
      <point x="1244" y="869"/>
      <point x="1244" y="456" type="curve" smooth="yes"/>
      <point x="1244" y="380" type="line" smooth="yes"/>
      <point x="1244" y="223"/>
      <point x="1186" y="147"/>
      <point x="1064" y="147" type="curve" smooth="yes"/>
      <point x="942" y="147"/>
      <point x="885" y="218"/>
      <point x="878" y="367" type="curve" smooth="yes"/>
      <point x="873" y="469" type="line"/>
      <point x="686" y="469" type="line"/>
      <point x="681" y="367" type="line" smooth="yes"/>
      <point x="674" y="217"/>
      <point x="610" y="144"/>
      <point x="474" y="144" type="curve" smooth="yes"/>
      <point x="349" y="144"/>
      <point x="286" y="209"/>
      <point x="286" y="339" type="curve" smooth="yes"/>
      <point x="286" y="376" type="line" smooth="yes"/>
      <point x="286" y="494"/>
      <point x="332" y="552"/>
      <point x="434" y="552" type="curve" smooth="yes"/>
      <point x="482" y="552"/>
      <point x="523" y="538"/>
      <point x="555" y="519" type="curve"/>
      <point x="545" y="681" type="line"/>
      <point x="504" y="705"/>
      <point x="455" y="718"/>
      <point x="390" y="718" type="curve" smooth="yes"/>
      <point x="199" y="718"/>
      <point x="98" y="600"/>
      <point x="98" y="382" type="curve" smooth="yes"/>
      <point x="98" y="333" type="line" smooth="yes"/>
      <point x="98" y="96"/>
      <point x="220" y="-27"/>
      <point x="453" y="-27" type="curve" smooth="yes"/>
      <point x="655" y="-27"/>
      <point x="760" y="60"/>
      <point x="776" y="212" type="curve"/>
      <point x="782" y="212" type="line"/>
      <point x="798" y="60"/>
      <point x="901" y="-27"/>
    </contour>
  </outline>
  <guideline angle="0" x="0" y="304"/>
  <guideline angle="90" x="391" y="0"/>
</glyph>
<glyph name="vowelEe.kn" format="2">
  <advance width="1547"/>
  <unicode hex="0C8F"/>
  <outline>
    <contour>
      <point x="1244" y="456" type="curve" smooth="yes"/>
      <point x="1244" y="380" type="line" smooth="yes"/>
      <point x="1244" y="223"/>
      <point x="1186" y="147"/>
      <point x="1064" y="147" type="curve" smooth="yes"/>
      <point x="942" y="147"/>
      <point x="885" y="218"/>
      <point x="878" y="367" type="curve" smooth="yes"/>
      <point x="873" y="469" type="line"/>
      <point x="686" y="469" type="line"/>
      <point x="681" y="367" type="line" smooth="yes"/>
      <point x="674" y="217"/>
      <point x="610" y="144"/>
      <point x="474" y="144" type="curve" smooth="yes"/>
      <point x="349" y="144"/>
      <point x="286" y="209"/>
      <point x="286" y="339" type="curve" smooth="yes"/>
      <point x="286" y="376" type="line" smooth="yes"/>
      <point x="286" y="494"/>
      <point x="332" y="552"/>
      <point x="434" y="552" type="curve" smooth="yes"/>
      <point x="482" y="552"/>
      <point x="523" y="538"/>
      <point x="555" y="519" type="curve"/>
      <point x="545" y="681" type="line"/>
      <point x="504" y="705"/>
      <point x="455" y="718"/>
      <point x="390" y="718" type="curve" smooth="yes"/>
      <point x="199" y="718"/>
      <point x="98" y="600"/>
      <point x="98" y="382" type="curve" smooth="yes"/>
      <point x="98" y="333" type="line" smooth="yes"/>
      <point x="98" y="96"/>
      <point x="220" y="-27"/>
      <point x="453" y="-27" type="curve" smooth="yes"/>
      <point x="655" y="-27"/>
      <point x="760" y="60"/>
      <point x="776" y="212" type="curve"/>
      <point x="782" y="212" type="line"/>
      <point x="798" y="60"/>
      <point x="901" y="-27"/>
      <point x="1093" y="-27" type="curve" smooth="yes"/>
      <point x="1320" y="-27"/>
      <point x="1436" y="105"/>
      <point x="1436" y="372" type="curve" smooth="yes"/>
      <point x="1436" y="451" type="line" smooth="yes"/>
      <point x="1436" y="958"/>
      <point x="1221" y="1194"/>
      <point x="784" y="1218" type="curve"/>
      <point x="812" y="1038" type="line"/>
      <point x="1104" y="1012"/>
      <point x="1244" y="839"/>
    </contour>
    <contour>
      <point x="592" y="838" type="curve" smooth="yes"/>
      <point x="802" y="838"/>
      <point x="934" y="940"/>
      <point x="934" y="1159" type="curve"/>
      <point x="784" y="1218" type="line"/>
      <point x="784" y="1205" type="line" smooth="yes"/>
      <point x="784" y="1073"/>
      <point x="716" y="1004"/>
      <point x="594" y="1004" type="curve" smooth="yes"/>
      <point x="467" y="1004"/>
      <point x="400" y="1073"/>
      <point x="400" y="1205" type="curve" smooth="yes"/>
      <point x="400" y="1221" type="line"/>
      <point x="215" y="1201" type="line"/>
      <point x="215" y="1183" type="line" smooth="yes"/>
      <point x="215" y="954"/>
      <point x="350" y="838"/>
    </contour>
  </outline>
</glyph>
<glyph name="vowelAi.kn" format="2">
  <advance width="1575"/>
  <unicode hex="0C90"/>
  <outline>
    <contour>
      <point x="1090" y="1202" type="curve" smooth="yes"/>
      <point x="908" y="1202"/>
      <point x="811" y="1119"/>
      <point x="794" y="979" type="curve"/>
      <point x="788" y="979" type="line"/>
      <point x="772" y="1119"/>
      <point x="675" y="1202"/>
      <point x="490" y="1202" type="curve" smooth="yes"/>
      <point x="256" y="1202"/>
      <point x="137" y="1074"/>
      <point x="137" y="820" type="curve" smooth="yes"/>
      <point x="137" y="770" type="line"/>
      <point x="325" y="770" type="line"/>
      <point x="325" y="811" type="line" smooth="yes"/>
      <point x="325" y="957"/>
      <point x="387" y="1029"/>
      <point x="509" y="1029" type="curve" smooth="yes"/>
      <point x="631" y="1029"/>
      <point x="688.606" y="958.989"/>
      <point x="693" y="814" type="curve" smooth="yes"/>
      <point x="696" y="715" type="line"/>
      <point x="883" y="715" type="line"/>
      <point x="886" y="813" type="line" smooth="yes"/>
      <point x="890" y="959"/>
      <point x="951" y="1029"/>
      <point x="1074" y="1029" type="curve" smooth="yes"/>
      <point x="1212" y="1029"/>
      <point x="1267" y="939"/>
      <point x="1267" y="752" type="curve" smooth="yes"/>
      <point x="1267" y="415" type="line" smooth="yes"/>
      <point x="1267" y="234"/>
      <point x="1205" y="147"/>
      <point x="1076" y="147" type="curve" smooth="yes"/>
      <point x="953" y="147"/>
      <point x="895" y="218"/>
      <point x="888" y="367" type="curve" smooth="yes"/>
      <point x="883" y="469" type="line"/>
      <point x="696" y="469" type="line"/>
      <point x="691" y="367" type="line" smooth="yes"/>
      <point x="684" y="217"/>
      <point x="619" y="144"/>
      <point x="482" y="144" type="curve" smooth="yes"/>
      <point x="356" y="144"/>
      <point x="292" y="209"/>
      <point x="292" y="339" type="curve" smooth="yes"/>
      <point x="292" y="359" type="line" smooth="yes"/>
      <point x="292" y="477"/>
      <point x="338" y="535"/>
      <point x="440" y="535" type="curve" smooth="yes"/>
      <point x="488" y="535"/>
      <point x="529" y="521"/>
      <point x="561" y="502" type="curve"/>
      <point x="551" y="664" type="line"/>
      <point x="510" y="688"/>
      <point x="461" y="701"/>
      <point x="396" y="701" type="curve" smooth="yes"/>
      <point x="205" y="701"/>
      <point x="104" y="583"/>
      <point x="104" y="365" type="curve" smooth="yes"/>
      <point x="104" y="333" type="line" smooth="yes"/>
      <point x="104" y="96"/>
      <point x="227" y="-27"/>
      <point x="461" y="-27" type="curve" smooth="yes"/>
      <point x="665" y="-27"/>
      <point x="770" y="60"/>
      <point x="786" y="212" type="curve"/>
      <point x="792" y="212" type="line"/>
      <point x="808" y="60"/>
      <point x="911" y="-27"/>
      <point x="1105" y="-27" type="curve" smooth="yes"/>
      <point x="1340" y="-27"/>
      <point x="1459" y="116"/>
      <point x="1459" y="407" type="curve" smooth="yes"/>
      <point x="1459" y="751" type="line" smooth="yes"/>
      <point x="1459" y="1053"/>
      <point x="1344" y="1202"/>
    </contour>
  </outline>
  <guideline angle="90" x="992" y="0"/>
  <guideline angle="90" x="1030" y="0"/>
</glyph>
<glyph name="vowelO.kn" format="2">
  <advance width="1546"/>
  <unicode hex="0C92"/>
  <outline>
    <contour>
      <point x="1197" y="607" type="line"/>
      <point x="1238" y="542"/>
      <point x="1262" y="456"/>
      <point x="1262" y="362" type="curve" smooth="yes"/>
      <point x="1262" y="351" type="line" smooth="yes"/>
      <point x="1262" y="217"/>
      <point x="1203" y="147"/>
      <point x="1080" y="147" type="curve" smooth="yes"/>
      <point x="950" y="147"/>
      <point x="888" y="218"/>
      <point x="883" y="366" type="curve" smooth="yes"/>
      <point x="880" y="451" type="line"/>
      <point x="778" y="451" type="line"/>
      <point x="788" y="213" type="line"/>
      <point x="802" y="60"/>
      <point x="907" y="-27"/>
      <point x="1110" y="-27" type="curve" smooth="yes"/>
      <point x="1336" y="-27"/>
      <point x="1454" y="97"/>
      <point x="1454" y="326" type="curve" smooth="yes"/>
      <point x="1454" y="340" type="line" smooth="yes"/>
      <point x="1454" y="456"/>
      <point x="1429" y="539"/>
      <point x="1382" y="607" type="curve"/>
    </contour>
    <contour>
      <point x="471" y="1203" type="curve" smooth="yes"/>
      <point x="240" y="1203"/>
      <point x="117" y="1093"/>
      <point x="117" y="879" type="curve" smooth="yes"/>
      <point x="117" y="871" type="line" smooth="yes"/>
      <point x="117" y="791"/>
      <point x="134" y="727"/>
      <point x="156" y="686" type="curve"/>
      <point x="332" y="686" type="line"/>
      <point x="312" y="736"/>
      <point x="299" y="793"/>
      <point x="299" y="862" type="curve" smooth="yes"/>
      <point x="299" y="868" type="line" smooth="yes"/>
      <point x="299" y="983"/>
      <point x="356" y="1038"/>
      <point x="467" y="1038" type="curve" smooth="yes"/>
      <point x="578" y="1038"/>
      <point x="634" y="987"/>
      <point x="634" y="882" type="curve" smooth="yes"/>
      <point x="634" y="876" type="line" smooth="yes"/>
      <point x="634" y="784"/>
      <point x="591" y="736"/>
      <point x="469" y="681" type="curve" smooth="yes"/>
      <point x="375" y="639" type="line" smooth="yes"/>
      <point x="178" y="551"/>
      <point x="93" y="464"/>
      <point x="93" y="296" type="curve" smooth="yes"/>
      <point x="93" y="287" type="line" smooth="yes"/>
      <point x="93" y="81"/>
      <point x="217" y="-27"/>
      <point x="448" y="-27" type="curve" smooth="yes"/>
      <point x="656" y="-27"/>
      <point x="766" y="60"/>
      <point x="782" y="213" type="curve"/>
      <point x="797" y="213" type="line"/>
      <point x="794" y="451" type="line"/>
      <point x="691" y="451" type="line"/>
      <point x="687" y="366" type="line" smooth="yes"/>
      <point x="679" y="218"/>
      <point x="612" y="147"/>
      <point x="468" y="147" type="curve" smooth="yes"/>
      <point x="346" y="147"/>
      <point x="283" y="200"/>
      <point x="283" y="299" type="curve" smooth="yes"/>
      <point x="283" y="305" type="line" smooth="yes"/>
      <point x="283" y="398"/>
      <point x="335" y="442"/>
      <point x="468" y="505" type="curve" smooth="yes"/>
      <point x="565" y="550" type="line" smooth="yes"/>
      <point x="743" y="634"/>
      <point x="819" y="718"/>
      <point x="819" y="880" type="curve" smooth="yes"/>
      <point x="819" y="888" type="line" smooth="yes"/>
      <point x="819" y="1095"/>
      <point x="699" y="1203"/>
    </contour>
  </outline>
</glyph>
<glyph name="vowelOo.kn" format="2">
  <advance width="1546"/>
  <unicode hex="0C93"/>
  <outline>
    <component base="vowelO.kn"/>
    <contour>
      <point x="597" y="1643" type="curve" smooth="yes"/>
      <point x="372" y="1643"/>
      <point x="252" y="1547"/>
      <point x="252" y="1376" type="curve" smooth="yes"/>
      <point x="252" y="1368" type="line" smooth="yes"/>
      <point x="252" y="1247"/>
      <point x="309" y="1168"/>
      <point x="446" y="1145" type="curve"/>
      <point x="542" y="1193" type="line"/>
      <point x="462" y="1217"/>
      <point x="433" y="1270"/>
      <point x="433" y="1341" type="curve" smooth="yes"/>
      <point x="433" y="1347" type="line" smooth="yes"/>
      <point x="433" y="1438"/>
      <point x="491" y="1486"/>
      <point x="599" y="1486" type="curve" smooth="yes"/>
      <point x="709" y="1486"/>
      <point x="766" y="1438"/>
      <point x="766" y="1345" type="curve" smooth="yes"/>
      <point x="766" y="1340" type="line" smooth="yes"/>
      <point x="766" y="1310"/>
      <point x="763" y="1284"/>
      <point x="757" y="1262" type="curve"/>
      <point x="926" y="1262" type="line"/>
      <point x="935" y="1287"/>
      <point x="940" y="1323"/>
      <point x="940" y="1362" type="curve" smooth="yes"/>
      <point x="940" y="1367" type="line" smooth="yes"/>
      <point x="940" y="1545"/>
      <point x="821" y="1643"/>
    </contour>
  </outline>
</glyph>
<glyph name="vowelAu.kn" format="2">
  <advance width="1671"/>
  <unicode hex="0C94"/>
  <outline>
    <contour>
      <point x="1265" y="358" type="curve" smooth="yes"/>
      <point x="1265" y="347" type="line" smooth="yes"/>
      <point x="1265" y="215"/>
      <point x="1205" y="147"/>
      <point x="1080" y="147" type="curve" smooth="yes"/>
      <point x="950" y="147"/>
      <point x="888" y="218"/>
      <point x="883" y="366" type="curve" smooth="yes"/>
      <point x="880" y="451" type="line"/>
      <point x="778" y="451" type="line"/>
      <point x="788" y="213" type="line"/>
      <point x="802" y="60"/>
      <point x="907" y="-27"/>
      <point x="1110" y="-27" type="curve" smooth="yes"/>
      <point x="1338" y="-27"/>
      <point x="1457" y="96"/>
      <point x="1457" y="322" type="curve" smooth="yes"/>
      <point x="1457" y="336" type="line" smooth="yes"/>
      <point x="1457" y="389"/>
      <point x="1449" y="436"/>
      <point x="1434" y="477" type="curve"/>
      <point x="1249" y="477" type="line"/>
      <point x="1259" y="440"/>
      <point x="1265" y="400"/>
    </contour>
    <contour>
      <point x="471" y="1203" type="curve" smooth="yes"/>
      <point x="240" y="1203"/>
      <point x="117" y="1093"/>
      <point x="117" y="879" type="curve" smooth="yes"/>
      <point x="117" y="871" type="line" smooth="yes"/>
      <point x="117" y="791"/>
      <point x="134" y="727"/>
      <point x="156" y="686" type="curve"/>
      <point x="332" y="686" type="line"/>
      <point x="312" y="736"/>
      <point x="299" y="793"/>
      <point x="299" y="862" type="curve" smooth="yes"/>
      <point x="299" y="868" type="line" smooth="yes"/>
      <point x="299" y="983"/>
      <point x="356" y="1038"/>
      <point x="467" y="1038" type="curve" smooth="yes"/>
      <point x="578" y="1038"/>
      <point x="634" y="987"/>
      <point x="634" y="882" type="curve" smooth="yes"/>
      <point x="634" y="876" type="line" smooth="yes"/>
      <point x="634" y="784"/>
      <point x="591" y="736"/>
      <point x="469" y="681" type="curve" smooth="yes"/>
      <point x="375" y="639" type="line" smooth="yes"/>
      <point x="178" y="551"/>
      <point x="93" y="464"/>
      <point x="93" y="296" type="curve" smooth="yes"/>
      <point x="93" y="287" type="line" smooth="yes"/>
      <point x="93" y="81"/>
      <point x="217" y="-27"/>
      <point x="448" y="-27" type="curve" smooth="yes"/>
      <point x="656" y="-27"/>
      <point x="766" y="60"/>
      <point x="782" y="213" type="curve"/>
      <point x="796" y="213" type="line"/>
      <point x="796" y="451" type="line"/>
      <point x="691" y="451" type="line"/>
      <point x="687" y="366" type="line" smooth="yes"/>
      <point x="679" y="218"/>
      <point x="612" y="147"/>
      <point x="468" y="147" type="curve" smooth="yes"/>
      <point x="346" y="147"/>
      <point x="283" y="200"/>
      <point x="283" y="299" type="curve" smooth="yes"/>
      <point x="283" y="305" type="line" smooth="yes"/>
      <point x="283" y="398"/>
      <point x="335" y="442"/>
      <point x="468" y="505" type="curve" smooth="yes"/>
      <point x="565" y="550" type="line" smooth="yes"/>
      <point x="743" y="634"/>
      <point x="819" y="718"/>
      <point x="819" y="880" type="curve" smooth="yes"/>
      <point x="819" y="888" type="line" smooth="yes"/>
      <point x="819" y="1095"/>
      <point x="699" y="1203"/>
    </contour>
    <contour>
      <point x="610" y="1074" type="line" smooth="yes"/>
      <point x="767" y="1074"/>
      <point x="848" y="1142"/>
      <point x="848" y="1270" type="curve" smooth="yes"/>
      <point x="848" y="1276" type="line" smooth="yes"/>
      <point x="848" y="1358"/>
      <point x="810" y="1410"/>
      <point x="740" y="1424" type="curve"/>
      <point x="740" y="1453" type="line"/>
      <point x="537" y="1453" type="line"/>
      <point x="536" y="1430" type="line"/>
      <point x="620" y="1430"/>
      <point x="662" y="1394"/>
      <point x="662" y="1320" type="curve" smooth="yes"/>
      <point x="662" y="1314" type="line" smooth="yes"/>
      <point x="662" y="1241"/>
      <point x="620" y="1203"/>
      <point x="535" y="1203" type="curve" smooth="yes"/>
      <point x="471" y="1203" type="line"/>
      <point x="471" y="1074" type="line"/>
    </contour>
    <contour>
      <point x="1617" y="1052" type="line"/>
      <point x="1617" y="1063" type="line" smooth="yes"/>
      <point x="1617" y="1417"/>
      <point x="1433" y="1590"/>
      <point x="1052" y="1590" type="curve" smooth="yes"/>
      <point x="211" y="1590" type="line"/>
      <point x="211" y="1430" type="line"/>
      <point x="1049" y="1430" type="line" smooth="yes"/>
      <point x="1305" y="1430"/>
      <point x="1430" y="1317"/>
      <point x="1430" y="1063" type="curve" smooth="yes"/>
      <point x="1430" y="1045" type="line"/>
    </contour>
    <contour>
      <point x="1431" y="1052" type="line"/>
      <point x="1431" y="931" type="line" smooth="yes"/>
      <point x="1431" y="791"/>
      <point x="1390" y="732"/>
      <point x="1288" y="732" type="curve" smooth="yes"/>
      <point x="1194" y="732"/>
      <point x="1149" y="784"/>
      <point x="1149" y="884" type="curve" smooth="yes"/>
      <point x="1149" y="902" type="line" smooth="yes"/>
      <point x="1149" y="1003"/>
      <point x="1193" y="1052"/>
      <point x="1281" y="1052" type="curve" smooth="yes"/>
      <point x="1362" y="1052"/>
      <point x="1416" y="1012"/>
      <point x="1446" y="941" type="curve"/>
      <point x="1457" y="1082" type="line"/>
      <point x="1424" y="1082" type="line"/>
      <point x="1397" y="1162"/>
      <point x="1331" y="1208"/>
      <point x="1224" y="1208" type="curve" smooth="yes"/>
      <point x="1052" y="1208"/>
      <point x="967" y="1101"/>
      <point x="967" y="899" type="curve" smooth="yes"/>
      <point x="967" y="880" type="line" smooth="yes"/>
      <point x="967" y="676"/>
      <point x="1077" y="571"/>
      <point x="1289" y="571" type="curve" smooth="yes"/>
      <point x="1511" y="571"/>
      <point x="1617" y="691"/>
      <point x="1617" y="945" type="curve" smooth="yes"/>
      <point x="1617" y="1052" type="line"/>
    </contour>
  </outline>
</glyph>
<glyph name="Ka.kn" format="2">
  <advance width="1191"/>
  <unicode hex="0C95"/>
  <outline>
    <contour>
      <point x="85" y="770" type="line"/>
      <point x="85" y="609" type="line"/>
      <point x="389" y="615" type="line"/>
      <point x="388" y="643" type="line"/>
      <point x="805" y="643" type="line"/>
      <point x="805" y="615" type="line"/>
      <point x="1107" y="609" type="line"/>
      <point x="1107" y="770" type="line"/>
    </contour>
    <contour>
      <point x="500" y="1086" type="line"/>
      <point x="500" y="698" type="line"/>
      <point x="690" y="698" type="line"/>
      <point x="690" y="1086" type="line"/>
    </contour>
    <contour>
      <point x="85" y="1171" type="line"/>
      <point x="85" y="1010" type="line"/>
      <point x="807" y="1010" type="line"/>
      <point x="807" y="1171" type="line"/>
    </contour>
    <contour>
      <point x="596" y="134" type="curve" smooth="yes"/>
      <point x="420" y="134"/>
      <point x="332" y="208"/>
      <point x="332" y="364" type="curve" smooth="yes"/>
      <point x="332" y="378" type="line" smooth="yes"/>
      <point x="332" y="533"/>
      <point x="420" y="610"/>
      <point x="596" y="610" type="curve" smooth="yes"/>
      <point x="772" y="610"/>
      <point x="860" y="533"/>
      <point x="860" y="378" type="curve" smooth="yes"/>
      <point x="860" y="364" type="line" smooth="yes"/>
      <point x="860" y="208"/>
      <point x="772" y="134"/>
    </contour>
    <contour>
      <point x="314" y="656" type="line"/>
      <point x="314" y="608" type="line"/>
      <point x="212" y="584"/>
      <point x="145" y="504"/>
      <point x="145" y="347" type="curve" smooth="yes"/>
      <point x="145" y="328" type="line" smooth="yes"/>
      <point x="145" y="89"/>
      <point x="299" y="-35"/>
      <point x="596" y="-35" type="curve" smooth="yes"/>
      <point x="894" y="-35"/>
      <point x="1047" y="89"/>
      <point x="1047" y="328" type="curve" smooth="yes"/>
      <point x="1047" y="347" type="line" smooth="yes"/>
      <point x="1047" y="504"/>
      <point x="981" y="584"/>
      <point x="879" y="608" type="curve"/>
      <point x="879" y="656" type="line"/>
    </contour>
    <contour>
      <point x="886" y="1535" type="line"/>
      <point x="919" y="1463"/>
      <point x="943" y="1384"/>
      <point x="943" y="1306" type="curve" smooth="yes"/>
      <point x="943" y="1210"/>
      <point x="906" y="1171"/>
      <point x="815" y="1171" type="curve" smooth="yes"/>
      <point x="752" y="1171" type="line"/>
      <point x="766" y="1010" type="line"/>
      <point x="884" y="1010" type="line" smooth="yes"/>
      <point x="1043" y="1010"/>
      <point x="1120" y="1093.65"/>
      <point x="1120" y="1268" type="curve" smooth="yes"/>
      <point x="1120" y="1371"/>
      <point x="1092" y="1462"/>
      <point x="1043" y="1535" type="curve"/>
    </contour>
  </outline>
</glyph>
<glyph name="Kha.kn" format="2">
  <advance width="1628"/>
  <unicode hex="0C96"/>
  <outline>
    <contour>
      <point x="464" y="-27" type="curve" smooth="yes"/>
      <point x="721" y="-27"/>
      <point x="854" y="106"/>
      <point x="869" y="310" type="curve"/>
      <point x="813" y="289" type="line"/>
      <point x="890" y="287" type="line"/>
      <point x="903" y="350"/>
      <point x="909" y="449"/>
      <point x="909" y="515" type="curve" smooth="yes"/>
      <point x="909" y="730" type="line" smooth="yes"/>
      <point x="909" y="1047"/>
      <point x="777" y="1202"/>
      <point x="499" y="1202" type="curve" smooth="yes"/>
      <point x="246" y="1202"/>
      <point x="115" y="1083"/>
      <point x="115" y="859" type="curve" smooth="yes"/>
      <point x="115" y="849" type="line" smooth="yes"/>
      <point x="115" y="783"/>
      <point x="128" y="724"/>
      <point x="148" y="684" type="curve"/>
      <point x="328" y="684" type="line"/>
      <point x="313" y="721"/>
      <point x="302" y="771"/>
      <point x="302" y="834" type="curve" smooth="yes"/>
      <point x="302" y="844" type="line" smooth="yes"/>
      <point x="302" y="970"/>
      <point x="369" y="1036"/>
      <point x="499" y="1036" type="curve" smooth="yes"/>
      <point x="652" y="1036"/>
      <point x="718" y="940"/>
      <point x="718" y="734" type="curve" smooth="yes"/>
      <point x="718" y="523" type="line"/>
      <point x="719" y="464"/>
      <point x="715" y="426"/>
      <point x="711" y="369" type="curve"/>
      <point x="711" y="367"/>
      <point x="710" y="347"/>
      <point x="710" y="345" type="curve"/>
      <point x="683" y="202"/>
      <point x="611" y="138"/>
      <point x="476" y="138" type="curve" smooth="yes"/>
      <point x="345" y="138"/>
      <point x="281" y="187"/>
      <point x="281" y="289" type="curve" smooth="yes"/>
      <point x="281" y="297" type="line" smooth="yes"/>
      <point x="281" y="398"/>
      <point x="343" y="448"/>
      <point x="468" y="448" type="curve" smooth="yes"/>
      <point x="586" y="448"/>
      <point x="675" y="397"/>
      <point x="717" y="306" type="curve"/>
      <point x="742" y="446" type="line"/>
      <point x="700" y="545"/>
      <point x="604" y="609"/>
      <point x="435" y="609" type="curve" smooth="yes"/>
      <point x="212" y="609"/>
      <point x="96" y="501"/>
      <point x="96" y="301" type="curve" smooth="yes"/>
      <point x="96" y="292" type="line" smooth="yes"/>
      <point x="96" y="82"/>
      <point x="220" y="-27"/>
    </contour>
    <contour>
      <point x="1148" y="-27" type="curve" smooth="yes"/>
      <point x="1394" y="-27"/>
      <point x="1513" y="123"/>
      <point x="1513" y="426" type="curve" smooth="yes"/>
      <point x="1513" y="685" type="line" smooth="yes"/>
      <point x="1513" y="1023"/>
      <point x="1387" y="1184"/>
      <point x="1131" y="1184" type="curve" smooth="yes"/>
      <point x="1104" y="1184"/>
      <point x="1079" y="1182"/>
      <point x="1052" y="1178" type="curve"/>
      <point x="1052" y="1008" type="line"/>
      <point x="1066" y="1010"/>
      <point x="1081" y="1011"/>
      <point x="1096" y="1011" type="curve" smooth="yes"/>
      <point x="1249" y="1011"/>
      <point x="1321" y="913"/>
      <point x="1321" y="684" type="curve" smooth="yes"/>
      <point x="1321" y="433" type="line" smooth="yes"/>
      <point x="1321" y="239"/>
      <point x="1256" y="145"/>
      <point x="1114" y="145" type="curve" smooth="yes"/>
      <point x="986" y="145"/>
      <point x="913" y="215"/>
      <point x="903" y="375" type="curve"/>
      <point x="903" y="444" type="line"/>
      <point x="816" y="421" type="line"/>
      <point x="816" y="278" type="line"/>
      <point x="826" y="72"/>
      <point x="942" y="-27"/>
    </contour>
  </outline>
  <guideline angle="90" x="282" y="0"/>
  <guideline angle="90" x="270" y="0"/>
  <guideline angle="0" x="0" y="-14"/>
  <guideline angle="0" x="0" y="484"/>
  <guideline angle="90" x="-1496" y="0"/>
</glyph>
<glyph name="Ga.kn" format="2">
  <advance width="1270"/>
  <unicode hex="0C97"/>
  <outline>
    <contour>
      <point x="347" y="1030" type="line"/>
      <point x="347" y="1005" type="line"/>
      <point x="213" y="970"/>
      <point x="138" y="852"/>
      <point x="138" y="610" type="curve" smooth="yes"/>
      <point x="138" y="0" type="line"/>
      <point x="331" y="0" type="line"/>
      <point x="331" y="640" type="line" smooth="yes"/>
      <point x="331" y="897"/>
      <point x="431" y="1011"/>
      <point x="634" y="1011" type="curve" smooth="yes"/>
      <point x="837" y="1011"/>
      <point x="938" y="897"/>
      <point x="938" y="640" type="curve" smooth="yes"/>
      <point x="938" y="0" type="line"/>
      <point x="1131" y="0" type="line"/>
      <point x="1131" y="610" type="line" smooth="yes"/>
      <point x="1131" y="852.613"/>
      <point x="1056.71" y="968.911"/>
      <point x="923" y="1004" type="curve"/>
      <point x="923" y="1030" type="line"/>
    </contour>
    <contour>
      <point x="119" y="1171" type="line"/>
      <point x="119" y="1011" type="line"/>
      <point x="875" y="1011" type="line"/>
      <point x="874" y="1171" type="line"/>
    </contour>
    <contour>
      <point x="938" y="1535" type="line"/>
      <point x="971" y="1463"/>
      <point x="995" y="1384"/>
      <point x="995" y="1306" type="curve" smooth="yes"/>
      <point x="995" y="1210"/>
      <point x="958" y="1171"/>
      <point x="867" y="1171" type="curve" smooth="yes"/>
      <point x="804" y="1171" type="line"/>
      <point x="818" y="1010" type="line"/>
      <point x="936" y="1010" type="line" smooth="yes"/>
      <point x="1095" y="1010"/>
      <point x="1172" y="1093.65"/>
      <point x="1172" y="1268" type="curve" smooth="yes"/>
      <point x="1172" y="1371"/>
      <point x="1144" y="1462"/>
      <point x="1095" y="1535" type="curve"/>
    </contour>
  </outline>
  <guideline angle="90" x="848" y="0"/>
  <guideline angle="90" x="363" y="0"/>
</glyph>
<glyph name="Ca.kn" format="2">
  <advance width="1594"/>
  <unicode hex="0C9A"/>
  <outline>
    <contour>
      <point x="1212" y="546" type="line"/>
      <point x="1316" y="540" type="line"/>
      <point x="1316" y="551" type="line"/>
      <point x="1516" y="546" type="line"/>
      <point x="1516" y="707" type="line"/>
      <point x="1318" y="702" type="line"/>
      <point x="1185" y="707" type="line"/>
      <point x="941" y="707" type="line"/>
      <point x="941" y="546" type="line"/>
    </contour>
    <contour>
      <point x="1281" y="1010" type="line"/>
      <point x="1281" y="1171" type="line"/>
      <point x="929" y="1171" type="line"/>
      <point x="929" y="1010" type="line"/>
    </contour>
    <contour>
      <point x="1461" y="327" type="line" smooth="yes"/>
      <point x="1461" y="448"/>
      <point x="1418" y="522"/>
      <point x="1316" y="545" type="curve"/>
      <point x="1088" y="571" type="line"/>
      <point x="1086" y="546" type="line"/>
      <point x="1210" y="546"/>
      <point x="1270" y="486"/>
      <point x="1270" y="362" type="curve" smooth="yes"/>
      <point x="1270" y="346" type="line" smooth="yes"/>
      <point x="1270" y="212"/>
      <point x="1210" y="147"/>
      <point x="1083" y="147" type="curve" smooth="yes"/>
      <point x="950" y="147"/>
      <point x="888" y="217"/>
      <point x="883" y="365" type="curve" smooth="yes"/>
      <point x="880" y="451" type="line"/>
      <point x="777" y="451" type="line"/>
      <point x="788" y="213" type="line"/>
      <point x="804" y="60"/>
      <point x="909" y="-27"/>
      <point x="1107" y="-27" type="curve" smooth="yes"/>
      <point x="1344" y="-27"/>
      <point x="1461" y="85"/>
      <point x="1461" y="310" type="curve" smooth="yes"/>
    </contour>
    <contour>
      <point x="1416" y="861" type="line" smooth="yes"/>
      <point x="1416" y="941.877"/>
      <point x="1377" y="989.219"/>
      <point x="1306" y="1005" type="curve"/>
      <point x="1306" y="1031" type="line"/>
      <point x="1080" y="1034" type="line"/>
      <point x="1083" y="1010" type="line"/>
      <point x="1181" y="1010"/>
      <point x="1228" y="960.671"/>
      <point x="1228" y="863" type="curve" smooth="yes"/>
      <point x="1228" y="852" type="line" smooth="yes"/>
      <point x="1228" y="758.293"/>
      <point x="1181" y="707"/>
      <point x="1083" y="707" type="curve"/>
      <point x="1079" y="675" type="line"/>
      <point x="1318" y="674" type="line"/>
      <point x="1318" y="708" type="line"/>
      <point x="1380" y="722.792"/>
      <point x="1416" y="771.111"/>
      <point x="1416" y="850" type="curve" smooth="yes"/>
    </contour>
    <contour>
      <point x="471" y="1203" type="curve" smooth="yes"/>
      <point x="240" y="1203"/>
      <point x="117" y="1093"/>
      <point x="117" y="879" type="curve" smooth="yes"/>
      <point x="117" y="871" type="line" smooth="yes"/>
      <point x="117" y="791"/>
      <point x="134" y="727"/>
      <point x="156" y="686" type="curve"/>
      <point x="332" y="686" type="line"/>
      <point x="312" y="736"/>
      <point x="299" y="793"/>
      <point x="299" y="862" type="curve" smooth="yes"/>
      <point x="299" y="868" type="line" smooth="yes"/>
      <point x="299" y="983"/>
      <point x="356" y="1038"/>
      <point x="467" y="1038" type="curve" smooth="yes"/>
      <point x="578" y="1038"/>
      <point x="634" y="987"/>
      <point x="634" y="882" type="curve" smooth="yes"/>
      <point x="634" y="876" type="line" smooth="yes"/>
      <point x="634" y="784"/>
      <point x="591" y="736"/>
      <point x="469" y="681" type="curve" smooth="yes"/>
      <point x="375" y="639" type="line" smooth="yes"/>
      <point x="178" y="551"/>
      <point x="93" y="464"/>
      <point x="93" y="296" type="curve" smooth="yes"/>
      <point x="93" y="287" type="line" smooth="yes"/>
      <point x="93" y="81"/>
      <point x="217" y="-27"/>
      <point x="448" y="-27" type="curve" smooth="yes"/>
      <point x="656" y="-27"/>
      <point x="766" y="60"/>
      <point x="782" y="213" type="curve"/>
      <point x="797" y="213" type="line"/>
      <point x="794" y="451" type="line"/>
      <point x="691" y="451" type="line"/>
      <point x="687" y="366" type="line" smooth="yes"/>
      <point x="679" y="218"/>
      <point x="612" y="147"/>
      <point x="468" y="147" type="curve" smooth="yes"/>
      <point x="346" y="147"/>
      <point x="283" y="200"/>
      <point x="283" y="299" type="curve" smooth="yes"/>
      <point x="283" y="305" type="line" smooth="yes"/>
      <point x="283" y="398"/>
      <point x="335" y="442"/>
      <point x="468" y="505" type="curve" smooth="yes"/>
      <point x="565" y="550" type="line" smooth="yes"/>
      <point x="743" y="634"/>
      <point x="819" y="718"/>
      <point x="819" y="880" type="curve" smooth="yes"/>
      <point x="819" y="888" type="line" smooth="yes"/>
      <point x="819" y="1095"/>
      <point x="699" y="1203"/>
    </contour>
    <contour>
      <point x="1285" y="1535" type="line"/>
      <point x="1318" y="1463"/>
      <point x="1342" y="1384"/>
      <point x="1342" y="1306" type="curve" smooth="yes"/>
      <point x="1342" y="1210"/>
      <point x="1305" y="1171"/>
      <point x="1214" y="1171" type="curve" smooth="yes"/>
      <point x="1151" y="1171" type="line"/>
      <point x="1165" y="1010" type="line"/>
      <point x="1283" y="1010" type="line" smooth="yes"/>
      <point x="1442" y="1010"/>
      <point x="1519" y="1093.65"/>
      <point x="1519" y="1268" type="curve" smooth="yes"/>
      <point x="1519" y="1371"/>
      <point x="1491" y="1462"/>
      <point x="1442" y="1535" type="curve"/>
    </contour>
  </outline>
</glyph>
<glyph name="Cha.kn" format="2">
  <advance width="1614"/>
  <unicode hex="0C9B"/>
  <outline>
    <contour>
      <point x="1499" y="403" type="curve" smooth="yes"/>
      <point x="1499" y="608" type="line" smooth="yes"/>
      <point x="1499" y="855.749"/>
      <point x="1424.69" y="972.161"/>
      <point x="1285" y="1004" type="curve"/>
      <point x="1285" y="1010.24"/>
      <point x="1285" y="1024.8"/>
      <point x="1285" y="1030" type="curve"/>
      <point x="991" y="1030" type="line"/>
      <point x="991" y="1011" type="line"/>
      <point x="1204" y="1011"/>
      <point x="1307" y="899.302"/>
      <point x="1307" y="641" type="curve" smooth="yes"/>
      <point x="1307" y="417" type="line" smooth="yes"/>
      <point x="1307" y="232"/>
      <point x="1243" y="147"/>
      <point x="1111" y="147" type="curve" smooth="yes"/>
      <point x="979" y="147"/>
      <point x="921" y="221"/>
      <point x="913" y="376" type="curve" smooth="yes"/>
      <point x="909" y="450" type="line"/>
      <point x="719" y="450" type="line"/>
      <point x="715" y="376" type="line" smooth="yes"/>
      <point x="707" y="221"/>
      <point x="648" y="147"/>
      <point x="514" y="147" type="curve" smooth="yes"/>
      <point x="369" y="147"/>
      <point x="300" y="232"/>
      <point x="300" y="419" type="curve" smooth="yes"/>
      <point x="300" y="709" type="line"/>
      <point x="111" y="672" type="line"/>
      <point x="111" y="414" type="line" smooth="yes"/>
      <point x="111" y="117"/>
      <point x="238" y="-27"/>
      <point x="486" y="-27" type="curve" smooth="yes"/>
      <point x="687" y="-27"/>
      <point x="795" y="65"/>
      <point x="811" y="227" type="curve"/>
      <point x="817" y="227" type="line"/>
      <point x="833" y="65"/>
      <point x="939" y="-27"/>
      <point x="1138" y="-27" type="curve" smooth="yes"/>
      <point x="1376" y="-27"/>
      <point x="1499" y="114"/>
    </contour>
    <contour>
      <point x="1227" y="1011" type="line"/>
      <point x="1227" y="1171" type="line"/>
      <point x="911" y="1171" type="line"/>
      <point x="911" y="1011" type="line"/>
    </contour>
    <contour>
      <point x="467" y="1202" type="curve" smooth="yes"/>
      <point x="224" y="1202"/>
      <point x="111" y="1063"/>
      <point x="111" y="770" type="curve" smooth="yes"/>
      <point x="111" y="644" type="line"/>
      <point x="298" y="669" type="line"/>
      <point x="298" y="784" type="line" smooth="yes"/>
      <point x="298" y="960"/>
      <point x="343" y="1037"/>
      <point x="466" y="1037" type="curve" smooth="yes"/>
      <point x="567" y="1037"/>
      <point x="615" y="975"/>
      <point x="615" y="853" type="curve" smooth="yes"/>
      <point x="615" y="827" type="line" smooth="yes"/>
      <point x="615" y="713"/>
      <point x="569" y="663"/>
      <point x="478" y="663" type="curve" smooth="yes"/>
      <point x="382" y="663"/>
      <point x="316" y="710"/>
      <point x="278" y="794" type="curve"/>
      <point x="271" y="645" type="line"/>
      <point x="306" y="645" type="line"/>
      <point x="338" y="557"/>
      <point x="416" y="503"/>
      <point x="539" y="503" type="curve" smooth="yes"/>
      <point x="712" y="503"/>
      <point x="802" y="612"/>
      <point x="802" y="824" type="curve" smooth="yes"/>
      <point x="802" y="850" type="line" smooth="yes"/>
      <point x="802" y="1082"/>
      <point x="689" y="1202"/>
    </contour>
    <contour>
      <point x="814" y="-408" type="curve" smooth="yes"/>
      <point x="882" y="-408"/>
      <point x="916" y="-366"/>
      <point x="916" y="-281" type="curve" smooth="yes"/>
      <point x="916" y="-272" type="line" smooth="yes"/>
      <point x="916" y="-141"/>
      <point x="881" y="-38"/>
      <point x="814" y="56" type="curve"/>
      <point x="748" y="-38"/>
      <point x="713" y="-141"/>
      <point x="713" y="-272" type="curve" smooth="yes"/>
      <point x="713" y="-281" type="line" smooth="yes"/>
      <point x="713" y="-366"/>
      <point x="746" y="-408"/>
    </contour>
    <contour>
      <point x="1278" y="1535" type="line"/>
      <point x="1311" y="1463"/>
      <point x="1335" y="1384"/>
      <point x="1335" y="1306" type="curve" smooth="yes"/>
      <point x="1335" y="1210"/>
      <point x="1298" y="1171"/>
      <point x="1207" y="1171" type="curve" smooth="yes"/>
      <point x="1144" y="1171" type="line"/>
      <point x="1158" y="1010" type="line"/>
      <point x="1276" y="1010" type="line" smooth="yes"/>
      <point x="1435" y="1010"/>
      <point x="1512" y="1093.65"/>
      <point x="1512" y="1268" type="curve" smooth="yes"/>
      <point x="1512" y="1371"/>
      <point x="1484" y="1462"/>
      <point x="1435" y="1535" type="curve"/>
    </contour>
  </outline>
</glyph>
<glyph name="Ja.kn" format="2">
  <advance width="1553"/>
  <unicode hex="0C9C"/>
  <anchor x="783" y="0" name="nukta"/>
  <outline>
    <contour>
      <point x="1167" y="1170" type="line"/>
      <point x="1201" y="1115"/>
      <point x="1225" y="1044"/>
      <point x="1225" y="969" type="curve" smooth="yes"/>
      <point x="1225" y="962" type="line" smooth="yes"/>
      <point x="1225" y="827"/>
      <point x="1162" y="758"/>
      <point x="1034" y="758" type="curve" smooth="yes"/>
      <point x="905" y="758"/>
      <point x="829" y="823"/>
      <point x="811" y="941" type="curve"/>
      <point x="811" y="950" type="line"/>
      <point x="719" y="907" type="line"/>
      <point x="719" y="902" type="line"/>
      <point x="726" y="708"/>
      <point x="840" y="595"/>
      <point x="1068" y="595" type="curve" smooth="yes"/>
      <point x="1293" y="595"/>
      <point x="1413" y="711"/>
      <point x="1413" y="934" type="curve" smooth="yes"/>
      <point x="1413" y="942" type="line" smooth="yes"/>
      <point x="1413" y="1034"/>
      <point x="1388" y="1113"/>
      <point x="1346" y="1170" type="curve"/>
    </contour>
    <contour>
      <point x="1265" y="358" type="curve" smooth="yes"/>
      <point x="1265" y="347" type="line" smooth="yes"/>
      <point x="1265" y="215"/>
      <point x="1205" y="147"/>
      <point x="1080" y="147" type="curve" smooth="yes"/>
      <point x="950" y="147"/>
      <point x="888" y="218"/>
      <point x="883" y="366" type="curve" smooth="yes"/>
      <point x="880" y="451" type="line"/>
      <point x="778" y="451" type="line"/>
      <point x="788" y="213" type="line"/>
      <point x="802" y="60"/>
      <point x="907" y="-27"/>
      <point x="1110" y="-27" type="curve" smooth="yes"/>
      <point x="1338" y="-27"/>
      <point x="1457" y="96"/>
      <point x="1457" y="322" type="curve" smooth="yes"/>
      <point x="1457" y="336" type="line" smooth="yes"/>
      <point x="1457" y="389"/>
      <point x="1449" y="436"/>
      <point x="1434" y="477" type="curve"/>
      <point x="1249" y="477" type="line"/>
      <point x="1259" y="440"/>
      <point x="1265" y="400"/>
    </contour>
    <contour>
      <point x="471" y="1203" type="curve" smooth="yes"/>
      <point x="240" y="1203"/>
      <point x="117" y="1093"/>
      <point x="117" y="879" type="curve" smooth="yes"/>
      <point x="117" y="871" type="line" smooth="yes"/>
      <point x="117" y="791"/>
      <point x="134" y="727"/>
      <point x="156" y="686" type="curve"/>
      <point x="332" y="686" type="line"/>
      <point x="312" y="736"/>
      <point x="299" y="793"/>
      <point x="299" y="862" type="curve" smooth="yes"/>
      <point x="299" y="868" type="line" smooth="yes"/>
      <point x="299" y="983"/>
      <point x="356" y="1038"/>
      <point x="467" y="1038" type="curve" smooth="yes"/>
      <point x="578" y="1038"/>
      <point x="634" y="987"/>
      <point x="634" y="882" type="curve" smooth="yes"/>
      <point x="634" y="876" type="line" smooth="yes"/>
      <point x="634" y="784"/>
      <point x="591" y="736"/>
      <point x="469" y="681" type="curve" smooth="yes"/>
      <point x="375" y="639" type="line" smooth="yes"/>
      <point x="178" y="551"/>
      <point x="93" y="464"/>
      <point x="93" y="296" type="curve" smooth="yes"/>
      <point x="93" y="287" type="line" smooth="yes"/>
      <point x="93" y="81"/>
      <point x="217" y="-27"/>
      <point x="448" y="-27" type="curve" smooth="yes"/>
      <point x="656" y="-27"/>
      <point x="766" y="60"/>
      <point x="782" y="213" type="curve"/>
      <point x="796" y="213" type="line"/>
      <point x="796" y="451" type="line"/>
      <point x="691" y="451" type="line"/>
      <point x="687" y="366" type="line" smooth="yes"/>
      <point x="679" y="218"/>
      <point x="612" y="147"/>
      <point x="468" y="147" type="curve" smooth="yes"/>
      <point x="346" y="147"/>
      <point x="283" y="200"/>
      <point x="283" y="299" type="curve" smooth="yes"/>
      <point x="283" y="305" type="line" smooth="yes"/>
      <point x="283" y="398"/>
      <point x="335" y="442"/>
      <point x="468" y="505" type="curve" smooth="yes"/>
      <point x="565" y="550" type="line" smooth="yes"/>
      <point x="743" y="634"/>
      <point x="819" y="718"/>
      <point x="819" y="880" type="curve" smooth="yes"/>
      <point x="819" y="888" type="line" smooth="yes"/>
      <point x="819" y="1095"/>
      <point x="699" y="1203"/>
    </contour>
  </outline>
  <guideline angle="90" x="1517" y="0"/>
  <guideline angle="90" x="1045" y="0"/>
</glyph>
<glyph name="Jha.kn" format="2">
  <advance width="2600"/>
  <unicode hex="0C9D"/>
  <outline>
    <component base="matraU.kn" xOffset="1296"/>
    <component base="matraU.kn" xOffset="1952"/>
    <component base="Ra.kn"/>
    <contour>
      <point x="1088" y="392" type="line"/>
      <point x="1171" y="393" type="line"/>
      <point x="1171" y="533" type="line"/>
      <point x="1088" y="533" type="line"/>
    </contour>
    <contour>
      <point x="1771" y="-409" type="curve" smooth="yes"/>
      <point x="1839" y="-409"/>
      <point x="1873" y="-367"/>
      <point x="1873" y="-282" type="curve" smooth="yes"/>
      <point x="1873" y="-273" type="line" smooth="yes"/>
      <point x="1873" y="-142"/>
      <point x="1838" y="-39"/>
      <point x="1771" y="55" type="curve"/>
      <point x="1705" y="-39"/>
      <point x="1670" y="-142"/>
      <point x="1670" y="-273" type="curve" smooth="yes"/>
      <point x="1670" y="-282" type="line" smooth="yes"/>
      <point x="1670" y="-367"/>
      <point x="1703" y="-409"/>
    </contour>
  </outline>
</glyph>
<glyph name="Nya.kn" format="2">
  <advance width="1934"/>
  <unicode hex="0C9E"/>
  <outline>
    <contour>
      <point x="1687" y="845" type="curve" smooth="yes"/>
      <point x="1687" y="838" type="line" smooth="yes"/>
      <point x="1687" y="770"/>
      <point x="1674" y="716"/>
      <point x="1659" y="677" type="curve"/>
      <point x="1841" y="677" type="line"/>
      <point x="1863" y="723"/>
      <point x="1874" y="787"/>
      <point x="1874" y="859" type="curve" smooth="yes"/>
      <point x="1874" y="867" type="line" smooth="yes"/>
      <point x="1874" y="1091"/>
      <point x="1766" y="1202"/>
      <point x="1555" y="1202" type="curve" smooth="yes"/>
      <point x="1407" y="1202"/>
      <point x="1320" y="1138"/>
      <point x="1296" y="1030" type="curve"/>
      <point x="1272" y="1030" type="line"/>
      <point x="1293" y="711" type="line"/>
      <point x="1347" y="716" type="line"/>
      <point x="1347" y="826" type="line" smooth="yes"/>
      <point x="1347" y="964"/>
      <point x="1403" y="1029"/>
      <point x="1515" y="1029" type="curve" smooth="yes"/>
      <point x="1629" y="1029"/>
      <point x="1687" y="969"/>
    </contour>
    <contour>
      <point x="1387" y="-165" type="line"/>
      <point x="1347" y="18"/>
      <point x="1291" y="181"/>
      <point x="1213" y="308" type="curve"/>
      <point x="1106" y="180" type="line"/>
      <point x="1142" y="74"/>
      <point x="1167" y="-39"/>
      <point x="1180" y="-165" type="curve"/>
    </contour>
    <contour>
      <point x="974" y="1029" type="curve" smooth="yes"/>
      <point x="1095" y="1029"/>
      <point x="1155" y="953"/>
      <point x="1155" y="799" type="curve" smooth="yes"/>
      <point x="1155" y="693" type="line" smooth="yes"/>
      <point x="1155" y="556"/>
      <point x="1141" y="457"/>
      <point x="1093" y="367" type="curve"/>
      <point x="1076" y="337" type="line"/>
      <point x="1009" y="225"/>
      <point x="866" y="141"/>
      <point x="672" y="141" type="curve" smooth="yes"/>
      <point x="502" y="141"/>
      <point x="417" y="189"/>
      <point x="417" y="285" type="curve" smooth="yes"/>
      <point x="417" y="290" type="line" smooth="yes"/>
      <point x="417" y="387"/>
      <point x="499" y="436"/>
      <point x="666" y="436" type="curve" smooth="yes"/>
      <point x="852" y="436"/>
      <point x="983" y="370"/>
      <point x="1066" y="247" type="curve"/>
      <point x="1159" y="359" type="line"/>
      <point x="1066" y="513"/>
      <point x="907" y="598"/>
      <point x="654" y="598" type="curve" smooth="yes"/>
      <point x="374" y="598"/>
      <point x="225" y="498"/>
      <point x="225" y="289" type="curve" smooth="yes"/>
      <point x="225" y="284" type="line" smooth="yes"/>
      <point x="225" y="75"/>
      <point x="377" y="-26"/>
      <point x="665" y="-26" type="curve" smooth="yes"/>
      <point x="888" y="-26"/>
      <point x="1067" y="50"/>
      <point x="1166" y="173" type="curve"/>
      <point x="1215" y="214" type="line"/>
      <point x="1313" y="333"/>
      <point x="1347" y="487"/>
      <point x="1347" y="695" type="curve" smooth="yes"/>
      <point x="1347" y="817" type="line" smooth="yes"/>
      <point x="1347" y="893"/>
      <point x="1314" y="966"/>
      <point x="1291" y="1030" type="curve"/>
      <point x="1256" y="1141"/>
      <point x="1154" y="1202"/>
      <point x="1004" y="1202" type="curve" smooth="yes"/>
      <point x="817" y="1202"/>
      <point x="722" y="1120"/>
      <point x="705" y="981" type="curve"/>
      <point x="699" y="981" type="line"/>
      <point x="683" y="1120"/>
      <point x="588" y="1202"/>
      <point x="403" y="1202" type="curve" smooth="yes"/>
      <point x="181" y="1202"/>
      <point x="67" y="1091"/>
      <point x="67" y="868" type="curve" smooth="yes"/>
      <point x="67" y="861" type="line" smooth="yes"/>
      <point x="67" y="781"/>
      <point x="77" y="724"/>
      <point x="99" y="681" type="curve"/>
      <point x="280" y="681" type="line"/>
      <point x="266" y="719"/>
      <point x="254" y="772"/>
      <point x="254" y="839" type="curve" smooth="yes"/>
      <point x="254" y="846" type="line" smooth="yes"/>
      <point x="254" y="968"/>
      <point x="313" y="1029"/>
      <point x="428" y="1029" type="curve" smooth="yes"/>
      <point x="546" y="1029"/>
      <point x="601" y="961"/>
      <point x="605" y="821" type="curve" smooth="yes"/>
      <point x="609" y="706" type="line"/>
      <point x="796" y="706" type="line"/>
      <point x="800" y="821" type="line" smooth="yes"/>
      <point x="805" y="961"/>
      <point x="858" y="1029"/>
    </contour>
  </outline>
  <guideline angle="90" x="273" y="0"/>
  <guideline angle="0" x="0" y="-161"/>
  <guideline angle="0" x="0" y="1389"/>
</glyph>
<glyph name="Ttha.kn" format="2">
  <advance width="1302"/>
  <unicode hex="0CA0"/>
  <outline>
    <contour>
      <point x="343" y="1035" type="line"/>
      <point x="343" y="1005" type="line"/>
      <point x="193" y="965.099"/>
      <point x="113" y="835.422"/>
      <point x="113" y="603" type="curve" smooth="yes"/>
      <point x="113" y="496" type="line" smooth="yes"/>
      <point x="113" y="145"/>
      <point x="295.34" y="-33"/>
      <point x="650" y="-33" type="curve" smooth="yes"/>
      <point x="1005.66" y="-33"/>
      <point x="1187" y="145"/>
      <point x="1187" y="496" type="curve" smooth="yes"/>
      <point x="1187" y="603" type="line" smooth="yes"/>
      <point x="1187" y="834.844"/>
      <point x="1110.67" y="964.199"/>
      <point x="959" y="1004" type="curve"/>
      <point x="959" y="1035" type="line"/>
    </contour>
    <contour>
      <point x="113" y="1171" type="line"/>
      <point x="113" y="1011" type="line"/>
      <point x="890" y="1011" type="line"/>
      <point x="883" y="1171" type="line"/>
    </contour>
    <contour>
      <point x="651" y="750" type="curve" smooth="yes"/>
      <point x="583" y="750"/>
      <point x="549" y="709"/>
      <point x="549" y="609" type="curve" smooth="yes"/>
      <point x="549" y="563" type="line" smooth="yes"/>
      <point x="549" y="463"/>
      <point x="583" y="421"/>
      <point x="651" y="421" type="curve" smooth="yes"/>
      <point x="719" y="421"/>
      <point x="751" y="463"/>
      <point x="751" y="563" type="curve" smooth="yes"/>
      <point x="751" y="609" type="line" smooth="yes"/>
      <point x="751" y="709"/>
      <point x="719" y="750"/>
    </contour>
    <contour>
      <point x="995" y="634" type="curve" smooth="yes"/>
      <point x="995" y="516" type="line" smooth="yes"/>
      <point x="995" y="268"/>
      <point x="881.672" y="140"/>
      <point x="650" y="140" type="curve" smooth="yes"/>
      <point x="419.331" y="140"/>
      <point x="305" y="268"/>
      <point x="305" y="516" type="curve" smooth="yes"/>
      <point x="305" y="634" type="line" smooth="yes"/>
      <point x="305" y="885.333"/>
      <point x="419.331" y="1011"/>
      <point x="650" y="1011" type="curve" smooth="yes"/>
      <point x="881.672" y="1011"/>
      <point x="995" y="885.333"/>
    </contour>
    <contour>
      <point x="975" y="1535" type="line"/>
      <point x="1008" y="1463"/>
      <point x="1032" y="1384"/>
      <point x="1032" y="1306" type="curve" smooth="yes"/>
      <point x="1032" y="1210"/>
      <point x="995" y="1171"/>
      <point x="904" y="1171" type="curve" smooth="yes"/>
      <point x="841" y="1171" type="line"/>
      <point x="855" y="1010" type="line"/>
      <point x="973" y="1010" type="line" smooth="yes"/>
      <point x="1132" y="1010"/>
      <point x="1209" y="1093.65"/>
      <point x="1209" y="1268" type="curve" smooth="yes"/>
      <point x="1209" y="1371"/>
      <point x="1181" y="1462"/>
      <point x="1132" y="1535" type="curve"/>
    </contour>
  </outline>
</glyph>
<glyph name="Dda.kn" format="2">
  <advance width="1530"/>
  <unicode hex="0CA1"/>
  <outline>
    <contour>
      <point x="1244" y="334" type="line" smooth="yes"/>
      <point x="1244" y="208"/>
      <point x="1182" y="145"/>
      <point x="1066" y="145" type="curve" smooth="yes"/>
      <point x="933" y="145"/>
      <point x="874" y="215"/>
      <point x="867" y="363" type="curve" smooth="yes"/>
      <point x="863" y="453" type="line"/>
      <point x="674" y="453" type="line"/>
      <point x="670" y="362" type="line" smooth="yes"/>
      <point x="664" y="217"/>
      <point x="611" y="147"/>
      <point x="492" y="147" type="curve" smooth="yes"/>
      <point x="365" y="147"/>
      <point x="306" y="226"/>
      <point x="306" y="399" type="curve" smooth="yes"/>
      <point x="306" y="535" type="line" smooth="yes"/>
      <point x="306" y="857.323"/>
      <point x="446" y="1011"/>
      <point x="749" y="1011" type="curve"/>
      <point x="742" y="1034" type="line"/>
      <point x="389" y="1034" type="line"/>
      <point x="389" y="1005" type="line"/>
      <point x="213" y="962.089"/>
      <point x="114" y="813.395"/>
      <point x="114" y="520" type="curve" smooth="yes"/>
      <point x="114" y="385" type="line" smooth="yes"/>
      <point x="114" y="107"/>
      <point x="232" y="-27"/>
      <point x="464" y="-27" type="curve" smooth="yes"/>
      <point x="654" y="-27"/>
      <point x="751" y="59"/>
      <point x="766" y="207" type="curve"/>
      <point x="772" y="207" type="line"/>
      <point x="788" y="59"/>
      <point x="893" y="-27"/>
      <point x="1094" y="-27" type="curve" smooth="yes"/>
      <point x="1318" y="-27"/>
      <point x="1434" y="87"/>
      <point x="1434" y="310" type="curve" smooth="yes"/>
      <point x="1434" y="334" type="line" smooth="yes"/>
      <point x="1434" y="510"/>
      <point x="1358" y="607"/>
      <point x="1208" y="624" type="curve"/>
      <point x="1208" y="630" type="line"/>
      <point x="1314" y="642"/>
      <point x="1367" y="702"/>
      <point x="1367" y="812" type="curve" smooth="yes"/>
      <point x="1367" y="820" type="line" smooth="yes"/>
      <point x="1367" y="923.865"/>
      <point x="1313.33" y="988.162"/>
      <point x="1204" y="1003" type="curve"/>
      <point x="1204" y="1044" type="line"/>
      <point x="878" y="1044" type="line"/>
      <point x="818" y="1011" type="line"/>
      <point x="1066" y="1011"/>
      <point x="1177" y="952.337"/>
      <point x="1177" y="837" type="curve" smooth="yes"/>
      <point x="1177" y="831" type="line" smooth="yes"/>
      <point x="1177" y="742"/>
      <point x="1130" y="707.091"/>
      <point x="1011" y="704" type="curve" smooth="yes"/>
      <point x="934" y="702" type="line"/>
      <point x="934" y="542" type="line"/>
      <point x="1039" y="540" type="line" smooth="yes"/>
      <point x="1181" y="537"/>
      <point x="1244" y="487"/>
      <point x="1244" y="357" type="curve" smooth="yes"/>
    </contour>
    <contour>
      <point x="1148" y="1011" type="line"/>
      <point x="1143" y="1171" type="line"/>
      <point x="114" y="1171" type="line"/>
      <point x="114" y="1011" type="line"/>
    </contour>
    <contour>
      <point x="1213" y="1535" type="line"/>
      <point x="1246" y="1463"/>
      <point x="1270" y="1384"/>
      <point x="1270" y="1306" type="curve" smooth="yes"/>
      <point x="1270" y="1210"/>
      <point x="1233" y="1171"/>
      <point x="1142" y="1171" type="curve" smooth="yes"/>
      <point x="1079" y="1171" type="line"/>
      <point x="1093" y="1010" type="line"/>
      <point x="1211" y="1010" type="line" smooth="yes"/>
      <point x="1370" y="1010"/>
      <point x="1447" y="1093.65"/>
      <point x="1447" y="1268" type="curve" smooth="yes"/>
      <point x="1447" y="1371"/>
      <point x="1419" y="1462"/>
      <point x="1370" y="1535" type="curve"/>
    </contour>
  </outline>
  <guideline angle="90" x="426" y="0"/>
</glyph>
<glyph name="Nna.kn" format="2">
  <advance width="1598"/>
  <unicode hex="0CA3"/>
  <outline>
    <contour>
      <point x="1484" y="494" type="line"/>
      <point x="1484" y="727" type="line" smooth="yes"/>
      <point x="1484" y="1044"/>
      <point x="1361" y="1202"/>
      <point x="1098" y="1202" type="curve" smooth="yes"/>
      <point x="907" y="1202"/>
      <point x="807" y="1119"/>
      <point x="790" y="977" type="curve"/>
      <point x="784" y="977" type="line"/>
      <point x="767" y="1119"/>
      <point x="665" y="1202"/>
      <point x="470" y="1202" type="curve" smooth="yes"/>
      <point x="229" y="1202"/>
      <point x="107" y="1087"/>
      <point x="107" y="858" type="curve" smooth="yes"/>
      <point x="107" y="837" type="line" smooth="yes"/>
      <point x="107" y="677"/>
      <point x="179" y="586"/>
      <point x="320" y="570" type="curve"/>
      <point x="320" y="564" type="line"/>
      <point x="177" y="547"/>
      <point x="104" y="457"/>
      <point x="104" y="297" type="curve" smooth="yes"/>
      <point x="104" y="284" type="line" smooth="yes"/>
      <point x="104" y="79"/>
      <point x="224" y="-27"/>
      <point x="463" y="-27" type="curve" smooth="yes"/>
      <point x="533" y="-27"/>
      <point x="602" y="-16"/>
      <point x="654" y="5" type="curve"/>
      <point x="671" y="172" type="line"/>
      <point x="622" y="152"/>
      <point x="559" y="139"/>
      <point x="485" y="139" type="curve" smooth="yes"/>
      <point x="359" y="139"/>
      <point x="296" y="194"/>
      <point x="296" y="303" type="curve" smooth="yes"/>
      <point x="296" y="313" type="line" smooth="yes"/>
      <point x="296" y="429"/>
      <point x="359" y="478"/>
      <point x="496" y="481" type="curve" smooth="yes"/>
      <point x="595" y="483" type="line"/>
      <point x="595" y="646" type="line"/>
      <point x="494" y="647" type="line" smooth="yes"/>
      <point x="360" y="648"/>
      <point x="299" y="700"/>
      <point x="299" y="817" type="curve" smooth="yes"/>
      <point x="299" y="837" type="line" smooth="yes"/>
      <point x="299" y="966"/>
      <point x="363" y="1030"/>
      <point x="488" y="1030" type="curve" smooth="yes"/>
      <point x="619" y="1030"/>
      <point x="684" y="962"/>
      <point x="690" y="821" type="curve" smooth="yes"/>
      <point x="694" y="730" type="line"/>
      <point x="881" y="730" type="line"/>
      <point x="885" y="819" type="line" smooth="yes"/>
      <point x="891" y="962"/>
      <point x="955" y="1030"/>
      <point x="1082" y="1030" type="curve" smooth="yes"/>
      <point x="1232" y="1030"/>
      <point x="1294" y="929"/>
      <point x="1294" y="725" type="curve" smooth="yes"/>
      <point x="1294" y="469" type="line"/>
    </contour>
    <contour>
      <point x="1295" y="500" type="line"/>
      <point x="1295" y="372" type="line" smooth="yes"/>
      <point x="1295" y="207"/>
      <point x="1250" y="138"/>
      <point x="1136" y="138" type="curve" smooth="yes"/>
      <point x="1031" y="138"/>
      <point x="982" y="197"/>
      <point x="982" y="314" type="curve" smooth="yes"/>
      <point x="982" y="340" type="line" smooth="yes"/>
      <point x="982" y="457"/>
      <point x="1031" y="511"/>
      <point x="1132" y="511" type="curve" smooth="yes"/>
      <point x="1215" y="511"/>
      <point x="1273" y="470"/>
      <point x="1305" y="398" type="curve"/>
      <point x="1323" y="529" type="line"/>
      <point x="1288" y="529" type="line"/>
      <point x="1257" y="617"/>
      <point x="1188" y="670"/>
      <point x="1067" y="670" type="curve" smooth="yes"/>
      <point x="886" y="670"/>
      <point x="798" y="558"/>
      <point x="798" y="344" type="curve" smooth="yes"/>
      <point x="798" y="312" type="line" smooth="yes"/>
      <point x="798" y="89"/>
      <point x="908" y="-27"/>
      <point x="1135" y="-27" type="curve" smooth="yes"/>
      <point x="1376" y="-27"/>
      <point x="1484" y="108"/>
      <point x="1484" y="395" type="curve" smooth="yes"/>
      <point x="1484" y="510" type="line"/>
    </contour>
  </outline>
</glyph>
<glyph name="Ta.kn" format="2">
  <advance width="1102"/>
  <unicode hex="0CA4"/>
  <outline>
    <contour>
      <point x="532" y="141" type="curve" smooth="yes"/>
      <point x="346" y="141"/>
      <point x="193" y="193"/>
      <point x="62" y="273" type="curve"/>
      <point x="73" y="87" type="line"/>
      <point x="182" y="23"/>
      <point x="342" y="-31"/>
      <point x="543" y="-31" type="curve" smooth="yes"/>
      <point x="853" y="-31"/>
      <point x="1004" y="85"/>
      <point x="1004" y="327" type="curve" smooth="yes"/>
      <point x="1004" y="338" type="line" smooth="yes"/>
      <point x="1004" y="513"/>
      <point x="926" y="606"/>
      <point x="770" y="622" type="curve"/>
      <point x="770" y="628" type="line"/>
      <point x="880" y="641"/>
      <point x="936" y="704"/>
      <point x="936" y="816" type="curve" smooth="yes"/>
      <point x="936" y="823" type="line" smooth="yes"/>
      <point x="936" y="923.885"/>
      <point x="889.653" y="987.186"/>
      <point x="794" y="1004" type="curve"/>
      <point x="794" y="1046" type="line"/>
      <point x="536" y="1044" type="line"/>
      <point x="528" y="1011" type="line"/>
      <point x="677" y="1011"/>
      <point x="744" y="960.319"/>
      <point x="744" y="852" type="curve" smooth="yes"/>
      <point x="744" y="845" type="line" smooth="yes"/>
      <point x="744" y="744"/>
      <point x="689.006" y="700.528"/>
      <point x="551" y="699" type="curve" smooth="yes"/>
      <point x="280" y="696" type="line"/>
      <point x="280" y="536" type="line"/>
      <point x="586" y="533" type="line" smooth="yes"/>
      <point x="741" y="531"/>
      <point x="812" y="481"/>
      <point x="812" y="353" type="curve" smooth="yes"/>
      <point x="812" y="344" type="line" smooth="yes"/>
      <point x="812" y="208"/>
      <point x="718" y="141"/>
    </contour>
    <contour>
      <point x="719" y="1011" type="line"/>
      <point x="717" y="1171" type="line"/>
      <point x="93" y="1171" type="line"/>
      <point x="93" y="1011" type="line"/>
    </contour>
    <contour>
      <point x="790" y="1535" type="line"/>
      <point x="823" y="1463"/>
      <point x="847" y="1384"/>
      <point x="847" y="1306" type="curve" smooth="yes"/>
      <point x="847" y="1210"/>
      <point x="810" y="1171"/>
      <point x="719" y="1171" type="curve" smooth="yes"/>
      <point x="656" y="1171" type="line"/>
      <point x="670" y="1010" type="line"/>
      <point x="788" y="1010" type="line" smooth="yes"/>
      <point x="947" y="1010"/>
      <point x="1024" y="1093.65"/>
      <point x="1024" y="1268" type="curve" smooth="yes"/>
      <point x="1024" y="1371"/>
      <point x="996" y="1462"/>
      <point x="947" y="1535" type="curve"/>
    </contour>
  </outline>
</glyph>
<glyph name="Da.kn" format="2">
  <advance width="1529"/>
  <unicode hex="0CA6"/>
  <outline>
    <contour>
      <point x="306" y="535" type="line" smooth="yes"/>
      <point x="306" y="857.323"/>
      <point x="447" y="1011"/>
      <point x="748" y="1011" type="curve"/>
      <point x="747" y="1034" type="line"/>
      <point x="389" y="1034" type="line"/>
      <point x="389" y="1005" type="line"/>
      <point x="214" y="963.086"/>
      <point x="114" y="812.397"/>
      <point x="114" y="520" type="curve" smooth="yes"/>
      <point x="114" y="384" type="line" smooth="yes"/>
      <point x="114" y="107"/>
      <point x="232" y="-27"/>
      <point x="463" y="-27" type="curve" smooth="yes"/>
      <point x="648" y="-27"/>
      <point x="747" y="57"/>
      <point x="762" y="207" type="curve"/>
      <point x="767" y="207" type="line"/>
      <point x="782" y="57"/>
      <point x="880" y="-27"/>
      <point x="1065" y="-27" type="curve" smooth="yes"/>
      <point x="1296" y="-27"/>
      <point x="1415" y="108"/>
      <point x="1415" y="385" type="curve" smooth="yes"/>
      <point x="1415" y="520" type="line" smooth="yes"/>
      <point x="1415" y="811.794"/>
      <point x="1314.73" y="962.173"/>
      <point x="1141" y="1004" type="curve"/>
      <point x="1141" y="1035" type="line"/>
      <point x="781" y="1035" type="line"/>
      <point x="781" y="1011" type="line"/>
      <point x="1082" y="1011"/>
      <point x="1223" y="857.323"/>
      <point x="1223" y="535" type="curve" smooth="yes"/>
      <point x="1223" y="399" type="line" smooth="yes"/>
      <point x="1223" y="226"/>
      <point x="1163" y="147"/>
      <point x="1038" y="147" type="curve" smooth="yes"/>
      <point x="921" y="147"/>
      <point x="869" y="216"/>
      <point x="863" y="361" type="curve" smooth="yes"/>
      <point x="858" y="468" type="line"/>
      <point x="671" y="468" type="line"/>
      <point x="666" y="361" type="line" smooth="yes"/>
      <point x="660" y="216"/>
      <point x="608" y="147"/>
      <point x="491" y="147" type="curve" smooth="yes"/>
      <point x="366" y="147"/>
      <point x="306" y="226"/>
      <point x="306" y="399" type="curve" smooth="yes"/>
    </contour>
    <contour>
      <point x="1121" y="1011" type="line"/>
      <point x="1113" y="1171" type="line"/>
      <point x="114" y="1171" type="line"/>
      <point x="114" y="1011" type="line"/>
    </contour>
    <contour>
      <point x="1189" y="1535" type="line"/>
      <point x="1222" y="1463"/>
      <point x="1246" y="1384"/>
      <point x="1246" y="1306" type="curve" smooth="yes"/>
      <point x="1246" y="1210"/>
      <point x="1209" y="1171"/>
      <point x="1118" y="1171" type="curve" smooth="yes"/>
      <point x="1055" y="1171" type="line"/>
      <point x="1069" y="1010" type="line"/>
      <point x="1187" y="1010" type="line" smooth="yes"/>
      <point x="1346" y="1010"/>
      <point x="1423" y="1093.65"/>
      <point x="1423" y="1268" type="curve" smooth="yes"/>
      <point x="1423" y="1371"/>
      <point x="1395" y="1462"/>
      <point x="1346" y="1535" type="curve"/>
    </contour>
  </outline>
  <guideline angle="90" x="728" y="0"/>
  <guideline angle="90" x="780" y="0"/>
  <guideline angle="90" x="421" y="0"/>
</glyph>
<glyph name="Na.kn" format="2">
  <advance width="1439"/>
  <unicode hex="0CA8"/>
  <outline>
    <contour>
      <point x="973" y="-27" type="curve" smooth="yes"/>
      <point x="1202" y="-27"/>
      <point x="1326" y="110"/>
      <point x="1326" y="367" type="curve" smooth="yes"/>
      <point x="1326" y="464" type="line" smooth="yes"/>
      <point x="1326" y="811.712"/>
      <point x="1210" y="959.166"/>
      <point x="990" y="1004" type="curve"/>
      <point x="990" y="1033" type="line"/>
      <point x="497" y="1032" type="line"/>
      <point x="497" y="1010" type="line"/>
      <point x="945" y="1010"/>
      <point x="1134" y="857.572"/>
      <point x="1134" y="477" type="curve" smooth="yes"/>
      <point x="1134" y="380" type="line" smooth="yes"/>
      <point x="1134" y="227"/>
      <point x="1079" y="146"/>
      <point x="966" y="146" type="curve" smooth="yes"/>
      <point x="871" y="146"/>
      <point x="812" y="196"/>
      <point x="783" y="324" type="curve" smooth="yes"/>
      <point x="755" y="446" type="line" smooth="yes"/>
      <point x="712" y="634"/>
      <point x="611" y="717"/>
      <point x="431" y="717" type="curve" smooth="yes"/>
      <point x="219" y="717"/>
      <point x="104" y="602"/>
      <point x="104" y="360" type="curve" smooth="yes"/>
      <point x="104" y="323" type="line" smooth="yes"/>
      <point x="104" y="178"/>
      <point x="129" y="66"/>
      <point x="177" y="-17" type="curve"/>
      <point x="369" y="-17" type="line"/>
      <point x="323" y="71"/>
      <point x="293" y="193"/>
      <point x="293" y="320" type="curve" smooth="yes"/>
      <point x="293" y="357" type="line" smooth="yes"/>
      <point x="293" y="485"/>
      <point x="340" y="546"/>
      <point x="436" y="546" type="curve" smooth="yes"/>
      <point x="520" y="546"/>
      <point x="562" y="502"/>
      <point x="590" y="378" type="curve" smooth="yes"/>
      <point x="618" y="253" type="line" smooth="yes"/>
      <point x="662" y="57"/>
      <point x="780" y="-27"/>
    </contour>
    <contour>
      <point x="1008" y="1010" type="line"/>
      <point x="1001" y="1171" type="line"/>
      <point x="133" y="1171" type="line"/>
      <point x="133" y="1010" type="line"/>
    </contour>
    <contour>
      <point x="1100" y="1535" type="line"/>
      <point x="1133" y="1463"/>
      <point x="1157" y="1384"/>
      <point x="1157" y="1306" type="curve" smooth="yes"/>
      <point x="1157" y="1210"/>
      <point x="1120" y="1171"/>
      <point x="1029" y="1171" type="curve" smooth="yes"/>
      <point x="966" y="1171" type="line"/>
      <point x="980" y="1010" type="line"/>
      <point x="1098" y="1010" type="line" smooth="yes"/>
      <point x="1257" y="1010"/>
      <point x="1334" y="1093.65"/>
      <point x="1334" y="1268" type="curve" smooth="yes"/>
      <point x="1334" y="1371"/>
      <point x="1306" y="1462"/>
      <point x="1257" y="1535" type="curve"/>
    </contour>
  </outline>
</glyph>
<glyph name="Pa.kn" format="2">
  <advance width="1553"/>
  <unicode hex="0CAA"/>
  <outline>
    <contour>
      <point x="391" y="718" type="curve" smooth="yes"/>
      <point x="200" y="718"/>
      <point x="99" y="600"/>
      <point x="99" y="382" type="curve" smooth="yes"/>
      <point x="99" y="333" type="line" smooth="yes"/>
      <point x="99" y="96"/>
      <point x="221" y="-27"/>
      <point x="454" y="-27" type="curve" smooth="yes"/>
      <point x="656" y="-27"/>
      <point x="761" y="60"/>
      <point x="777" y="212" type="curve"/>
      <point x="783" y="212" type="line"/>
      <point x="799" y="60"/>
      <point x="903" y="-27"/>
      <point x="1099" y="-27" type="curve" smooth="yes"/>
      <point x="1330" y="-27"/>
      <point x="1447" y="107"/>
      <point x="1447" y="369" type="curve" smooth="yes"/>
      <point x="1447" y="433" type="line" smooth="yes"/>
      <point x="1447" y="616"/>
      <point x="1406" y="738"/>
      <point x="1324" y="834" type="curve"/>
      <point x="1134" y="834" type="line"/>
      <point x="1206" y="740"/>
      <point x="1255" y="616"/>
      <point x="1255" y="444" type="curve" smooth="yes"/>
      <point x="1255" y="380" type="line" smooth="yes"/>
      <point x="1255" y="223"/>
      <point x="1195" y="147"/>
      <point x="1070" y="147" type="curve" smooth="yes"/>
      <point x="945" y="147"/>
      <point x="886" y="218"/>
      <point x="879" y="367" type="curve" smooth="yes"/>
      <point x="874" y="469" type="line"/>
      <point x="687" y="469" type="line"/>
      <point x="682" y="367" type="line" smooth="yes"/>
      <point x="675" y="217"/>
      <point x="611" y="144"/>
      <point x="475" y="144" type="curve" smooth="yes"/>
      <point x="350" y="144"/>
      <point x="287" y="209"/>
      <point x="287" y="339" type="curve" smooth="yes"/>
      <point x="287" y="376" type="line" smooth="yes"/>
      <point x="287" y="494"/>
      <point x="333" y="552"/>
      <point x="435" y="552" type="curve" smooth="yes"/>
      <point x="483" y="552"/>
      <point x="524" y="538"/>
      <point x="556" y="519" type="curve"/>
      <point x="546" y="681" type="line"/>
      <point x="505" y="705"/>
      <point x="456" y="718"/>
    </contour>
    <contour>
      <point x="1119" y="1010" type="line"/>
      <point x="1119" y="1171" type="line"/>
      <point x="145" y="1171" type="line"/>
      <point x="145" y="1010" type="line"/>
    </contour>
    <contour>
      <point x="782" y="630" type="curve" smooth="yes"/>
      <point x="851" y="630"/>
      <point x="883" y="673"/>
      <point x="883" y="774" type="curve" smooth="yes"/>
      <point x="883" y="818" type="line" smooth="yes"/>
      <point x="883" y="921"/>
      <point x="851" y="963"/>
      <point x="782" y="963" type="curve" smooth="yes"/>
      <point x="714" y="963"/>
      <point x="680" y="921"/>
      <point x="680" y="819" type="curve" smooth="yes"/>
      <point x="680" y="774" type="line" smooth="yes"/>
      <point x="680" y="673"/>
      <point x="714" y="630"/>
    </contour>
    <contour>
      <point x="1213" y="1535" type="line"/>
      <point x="1246" y="1463"/>
      <point x="1270" y="1384"/>
      <point x="1270" y="1306" type="curve" smooth="yes"/>
      <point x="1270" y="1210"/>
      <point x="1233" y="1171"/>
      <point x="1142" y="1171" type="curve" smooth="yes"/>
      <point x="1079" y="1171" type="line"/>
      <point x="1093" y="1010" type="line"/>
      <point x="1211" y="1010" type="line" smooth="yes"/>
      <point x="1370" y="1010"/>
      <point x="1447" y="1093.65"/>
      <point x="1447" y="1268" type="curve" smooth="yes"/>
      <point x="1447" y="1371"/>
      <point x="1419" y="1462"/>
      <point x="1370" y="1535" type="curve"/>
    </contour>
  </outline>
  <guideline angle="90" x="690" y="0"/>
  <guideline angle="90" x="1292" y="0"/>
  <guideline angle="90" x="1478" y="0"/>
  <guideline angle="90" x="833" y="0"/>
  <guideline angle="90" x="100" y="0"/>
  <guideline angle="90" x="428" y="0"/>
  <guideline angle="90" x="428" y="0"/>
</glyph>
<glyph name="Pha.kn" format="2">
  <advance width="1553"/>
  <unicode hex="0CAB"/>
  <anchor x="780" y="0" name="nukta"/>
  <outline>
    <contour>
      <point x="391" y="718" type="curve" smooth="yes"/>
      <point x="200" y="718"/>
      <point x="99" y="600"/>
      <point x="99" y="382" type="curve" smooth="yes"/>
      <point x="99" y="333" type="line" smooth="yes"/>
      <point x="99" y="96"/>
      <point x="221" y="-27"/>
      <point x="454" y="-27" type="curve" smooth="yes"/>
      <point x="656" y="-27"/>
      <point x="761" y="60"/>
      <point x="777" y="212" type="curve"/>
      <point x="783" y="212" type="line"/>
      <point x="799" y="60"/>
      <point x="903" y="-27"/>
      <point x="1099" y="-27" type="curve" smooth="yes"/>
      <point x="1330" y="-27"/>
      <point x="1447" y="107"/>
      <point x="1447" y="369" type="curve" smooth="yes"/>
      <point x="1447" y="433" type="line" smooth="yes"/>
      <point x="1447" y="616"/>
      <point x="1406" y="738"/>
      <point x="1324" y="834" type="curve"/>
      <point x="1134" y="834" type="line"/>
      <point x="1206" y="740"/>
      <point x="1255" y="616"/>
      <point x="1255" y="444" type="curve" smooth="yes"/>
      <point x="1255" y="380" type="line" smooth="yes"/>
      <point x="1255" y="223"/>
      <point x="1195" y="147"/>
      <point x="1070" y="147" type="curve" smooth="yes"/>
      <point x="945" y="147"/>
      <point x="886" y="218"/>
      <point x="879" y="367" type="curve" smooth="yes"/>
      <point x="874" y="469" type="line"/>
      <point x="687" y="469" type="line"/>
      <point x="682" y="367" type="line" smooth="yes"/>
      <point x="675" y="217"/>
      <point x="611" y="144"/>
      <point x="475" y="144" type="curve" smooth="yes"/>
      <point x="350" y="144"/>
      <point x="287" y="209"/>
      <point x="287" y="339" type="curve" smooth="yes"/>
      <point x="287" y="376" type="line" smooth="yes"/>
      <point x="287" y="494"/>
      <point x="333" y="552"/>
      <point x="435" y="552" type="curve" smooth="yes"/>
      <point x="483" y="552"/>
      <point x="524" y="538"/>
      <point x="556" y="519" type="curve"/>
      <point x="546" y="681" type="line"/>
      <point x="505" y="705"/>
      <point x="456" y="718"/>
    </contour>
    <contour>
      <point x="1119" y="1010" type="line"/>
      <point x="1119" y="1171" type="line"/>
      <point x="145" y="1171" type="line"/>
      <point x="145" y="1010" type="line"/>
    </contour>
    <contour>
      <point x="782" y="630" type="curve" smooth="yes"/>
      <point x="851" y="630"/>
      <point x="883" y="673"/>
      <point x="883" y="774" type="curve" smooth="yes"/>
      <point x="883" y="818" type="line" smooth="yes"/>
      <point x="883" y="921"/>
      <point x="851" y="963"/>
      <point x="782" y="963" type="curve" smooth="yes"/>
      <point x="714" y="963"/>
      <point x="680" y="921"/>
      <point x="680" y="819" type="curve" smooth="yes"/>
      <point x="680" y="774" type="line" smooth="yes"/>
      <point x="680" y="673"/>
      <point x="714" y="630"/>
    </contour>
    <contour>
      <point x="1213" y="1535" type="line"/>
      <point x="1246" y="1463"/>
      <point x="1270" y="1384"/>
      <point x="1270" y="1306" type="curve" smooth="yes"/>
      <point x="1270" y="1210"/>
      <point x="1233" y="1171"/>
      <point x="1142" y="1171" type="curve" smooth="yes"/>
      <point x="1079" y="1171" type="line"/>
      <point x="1093" y="1010" type="line"/>
      <point x="1211" y="1010" type="line" smooth="yes"/>
      <point x="1370" y="1010"/>
      <point x="1447" y="1093.65"/>
      <point x="1447" y="1268" type="curve" smooth="yes"/>
      <point x="1447" y="1371"/>
      <point x="1419" y="1462"/>
      <point x="1370" y="1535" type="curve"/>
    </contour>
    <contour>
      <point x="780" y="-408" type="curve" smooth="yes"/>
      <point x="848" y="-408"/>
      <point x="882" y="-366"/>
      <point x="882" y="-281" type="curve" smooth="yes"/>
      <point x="882" y="-272" type="line" smooth="yes"/>
      <point x="882" y="-141"/>
      <point x="847" y="-38"/>
      <point x="780" y="56" type="curve"/>
      <point x="714" y="-38"/>
      <point x="679" y="-141"/>
      <point x="679" y="-272" type="curve" smooth="yes"/>
      <point x="679" y="-281" type="line" smooth="yes"/>
      <point x="679" y="-366"/>
      <point x="712" y="-408"/>
    </contour>
  </outline>
</glyph>
<glyph name="Ba.kn" format="2">
  <advance width="1576"/>
  <unicode hex="0CAC"/>
  <outline>
    <contour>
      <point x="1079" y="1184" type="curve" smooth="yes"/>
      <point x="1052" y="1184"/>
      <point x="1027" y="1183"/>
      <point x="1000" y="1179" type="curve"/>
      <point x="1000" y="1009" type="line"/>
      <point x="1014" y="1010"/>
      <point x="1030" y="1011"/>
      <point x="1044" y="1011" type="curve" smooth="yes"/>
      <point x="1200" y="1011"/>
      <point x="1269" y="912"/>
      <point x="1269" y="684" type="curve" smooth="yes"/>
      <point x="1269" y="428" type="line" smooth="yes"/>
      <point x="1269" y="234"/>
      <point x="1207" y="147"/>
      <point x="1073" y="147" type="curve" smooth="yes"/>
      <point x="947" y="147"/>
      <point x="888" y="217"/>
      <point x="883" y="365" type="curve" smooth="yes"/>
      <point x="880" y="451" type="line"/>
      <point x="777" y="451" type="line"/>
      <point x="788" y="213" type="line"/>
      <point x="804" y="60"/>
      <point x="909" y="-27"/>
      <point x="1107" y="-27" type="curve" smooth="yes"/>
      <point x="1344" y="-27"/>
      <point x="1461" y="121"/>
      <point x="1461" y="425" type="curve" smooth="yes"/>
      <point x="1461" y="685" type="line" smooth="yes"/>
      <point x="1461" y="1023"/>
      <point x="1338" y="1184"/>
    </contour>
    <contour>
      <point x="471" y="1203" type="curve" smooth="yes"/>
      <point x="240" y="1203"/>
      <point x="117" y="1093"/>
      <point x="117" y="879" type="curve" smooth="yes"/>
      <point x="117" y="871" type="line" smooth="yes"/>
      <point x="117" y="791"/>
      <point x="134" y="727"/>
      <point x="156" y="686" type="curve"/>
      <point x="332" y="686" type="line"/>
      <point x="312" y="736"/>
      <point x="299" y="793"/>
      <point x="299" y="862" type="curve" smooth="yes"/>
      <point x="299" y="868" type="line" smooth="yes"/>
      <point x="299" y="983"/>
      <point x="356" y="1038"/>
      <point x="467" y="1038" type="curve" smooth="yes"/>
      <point x="578" y="1038"/>
      <point x="634" y="987"/>
      <point x="634" y="882" type="curve" smooth="yes"/>
      <point x="634" y="876" type="line" smooth="yes"/>
      <point x="634" y="784"/>
      <point x="591" y="736"/>
      <point x="469" y="681" type="curve" smooth="yes"/>
      <point x="375" y="639" type="line" smooth="yes"/>
      <point x="178" y="551"/>
      <point x="93" y="464"/>
      <point x="93" y="296" type="curve" smooth="yes"/>
      <point x="93" y="287" type="line" smooth="yes"/>
      <point x="93" y="81"/>
      <point x="217" y="-27"/>
      <point x="448" y="-27" type="curve" smooth="yes"/>
      <point x="656" y="-27"/>
      <point x="766" y="60"/>
      <point x="782" y="213" type="curve"/>
      <point x="797" y="213" type="line"/>
      <point x="794" y="451" type="line"/>
      <point x="691" y="451" type="line"/>
      <point x="687" y="366" type="line" smooth="yes"/>
      <point x="679" y="218"/>
      <point x="612" y="147"/>
      <point x="468" y="147" type="curve" smooth="yes"/>
      <point x="346" y="147"/>
      <point x="283" y="200"/>
      <point x="283" y="299" type="curve" smooth="yes"/>
      <point x="283" y="305" type="line" smooth="yes"/>
      <point x="283" y="398"/>
      <point x="335" y="442"/>
      <point x="468" y="505" type="curve" smooth="yes"/>
      <point x="565" y="550" type="line" smooth="yes"/>
      <point x="743" y="634"/>
      <point x="819" y="718"/>
      <point x="819" y="880" type="curve" smooth="yes"/>
      <point x="819" y="888" type="line" smooth="yes"/>
      <point x="819" y="1095"/>
      <point x="699" y="1203"/>
    </contour>
  </outline>
</glyph>
<glyph name="Bha.kn" format="2">
  <advance width="1576"/>
  <unicode hex="0CAD"/>
  <outline>
    <contour>
      <point x="471" y="1203" type="curve" smooth="yes"/>
      <point x="240" y="1203"/>
      <point x="117" y="1093"/>
      <point x="117" y="879" type="curve" smooth="yes"/>
      <point x="117" y="871" type="line" smooth="yes"/>
      <point x="117" y="791"/>
      <point x="134" y="727"/>
      <point x="156" y="686" type="curve"/>
      <point x="332" y="686" type="line"/>
      <point x="312" y="736"/>
      <point x="299" y="793"/>
      <point x="299" y="862" type="curve" smooth="yes"/>
      <point x="299" y="868" type="line" smooth="yes"/>
      <point x="299" y="983"/>
      <point x="356" y="1038"/>
      <point x="467" y="1038" type="curve" smooth="yes"/>
      <point x="578" y="1038"/>
      <point x="634" y="987"/>
      <point x="634" y="882" type="curve" smooth="yes"/>
      <point x="634" y="876" type="line" smooth="yes"/>
      <point x="634" y="784"/>
      <point x="591" y="736"/>
      <point x="469" y="681" type="curve" smooth="yes"/>
      <point x="375" y="639" type="line" smooth="yes"/>
      <point x="178" y="551"/>
      <point x="93" y="464"/>
      <point x="93" y="296" type="curve" smooth="yes"/>
      <point x="93" y="287" type="line" smooth="yes"/>
      <point x="93" y="81"/>
      <point x="217" y="-27"/>
      <point x="448" y="-27" type="curve" smooth="yes"/>
      <point x="656" y="-27"/>
      <point x="766" y="60"/>
      <point x="782" y="213" type="curve"/>
      <point x="788" y="213" type="line"/>
      <point x="804" y="60"/>
      <point x="909" y="-27"/>
      <point x="1107" y="-27" type="curve" smooth="yes"/>
      <point x="1344" y="-27"/>
      <point x="1461" y="121"/>
      <point x="1461" y="425" type="curve" smooth="yes"/>
      <point x="1461" y="608" type="line" smooth="yes"/>
      <point x="1461" y="855.749"/>
      <point x="1389" y="972.161"/>
      <point x="1248" y="1004" type="curve"/>
      <point x="1248" y="1029" type="line"/>
      <point x="954" y="1029" type="line"/>
      <point x="954" y="1011" type="line"/>
      <point x="1167" y="1011"/>
      <point x="1269" y="899.302"/>
      <point x="1269" y="641" type="curve" smooth="yes"/>
      <point x="1269" y="428" type="line" smooth="yes"/>
      <point x="1269" y="234"/>
      <point x="1207" y="147"/>
      <point x="1073" y="147" type="curve" smooth="yes"/>
      <point x="947" y="147"/>
      <point x="888" y="217"/>
      <point x="883" y="365" type="curve" smooth="yes"/>
      <point x="880" y="451" type="line"/>
      <point x="691" y="451" type="line"/>
      <point x="687" y="366" type="line" smooth="yes"/>
      <point x="679" y="218"/>
      <point x="612" y="147"/>
      <point x="468" y="147" type="curve" smooth="yes"/>
      <point x="346" y="147"/>
      <point x="283" y="200"/>
      <point x="283" y="299" type="curve" smooth="yes"/>
      <point x="283" y="305" type="line" smooth="yes"/>
      <point x="283" y="398"/>
      <point x="335" y="442"/>
      <point x="468" y="505" type="curve" smooth="yes"/>
      <point x="565" y="550" type="line" smooth="yes"/>
      <point x="743" y="634"/>
      <point x="819" y="718"/>
      <point x="819" y="880" type="curve" smooth="yes"/>
      <point x="819" y="888" type="line" smooth="yes"/>
      <point x="819" y="1095"/>
      <point x="699" y="1203"/>
    </contour>
    <contour>
      <point x="920" y="1011" type="line"/>
      <point x="1190" y="1011" type="line"/>
      <point x="1190" y="1171" type="line"/>
      <point x="920" y="1171" type="line"/>
    </contour>
    <contour>
      <point x="1239" y="1535" type="line"/>
      <point x="1272" y="1463"/>
      <point x="1296" y="1384"/>
      <point x="1296" y="1306" type="curve" smooth="yes"/>
      <point x="1296" y="1210"/>
      <point x="1259" y="1171"/>
      <point x="1168" y="1171" type="curve" smooth="yes"/>
      <point x="1105" y="1171" type="line"/>
      <point x="1119" y="1010" type="line"/>
      <point x="1237" y="1010" type="line" smooth="yes"/>
      <point x="1396" y="1010"/>
      <point x="1473" y="1093.65"/>
      <point x="1473" y="1268" type="curve" smooth="yes"/>
      <point x="1473" y="1371"/>
      <point x="1445" y="1462"/>
      <point x="1396" y="1535" type="curve"/>
    </contour>
    <contour>
      <point x="785" y="-408" type="curve" smooth="yes"/>
      <point x="853" y="-408"/>
      <point x="887" y="-366"/>
      <point x="887" y="-281" type="curve" smooth="yes"/>
      <point x="887" y="-272" type="line" smooth="yes"/>
      <point x="887" y="-141"/>
      <point x="852" y="-38"/>
      <point x="785" y="56" type="curve"/>
      <point x="719" y="-38"/>
      <point x="684" y="-141"/>
      <point x="684" y="-272" type="curve" smooth="yes"/>
      <point x="684" y="-281" type="line" smooth="yes"/>
      <point x="684" y="-366"/>
      <point x="717" y="-408"/>
    </contour>
  </outline>
</glyph>
<glyph name="Ra.kn" format="2">
  <advance width="1292"/>
  <unicode hex="0CB0"/>
  <outline>
    <contour>
      <point x="338" y="1036" type="line"/>
      <point x="338" y="1005" type="line"/>
      <point x="191" y="965.099"/>
      <point x="113" y="835.422"/>
      <point x="113" y="603" type="curve" smooth="yes"/>
      <point x="113" y="496" type="line" smooth="yes"/>
      <point x="113" y="145"/>
      <point x="293.679" y="-33"/>
      <point x="645" y="-33" type="curve" smooth="yes"/>
      <point x="997.325" y="-33"/>
      <point x="1177" y="145"/>
      <point x="1177" y="496" type="curve" smooth="yes"/>
      <point x="1177" y="603" type="line" smooth="yes"/>
      <point x="1177" y="834.844"/>
      <point x="1101.67" y="964.199"/>
      <point x="953" y="1004" type="curve"/>
      <point x="953" y="1036" type="line"/>
    </contour>
    <contour>
      <point x="645" y="140" type="curve" smooth="yes"/>
      <point x="417.663" y="140"/>
      <point x="305" y="268"/>
      <point x="305" y="516" type="curve" smooth="yes"/>
      <point x="305" y="634" type="line" smooth="yes"/>
      <point x="305" y="885.333"/>
      <point x="417.663" y="1011"/>
      <point x="645" y="1011" type="curve" smooth="yes"/>
      <point x="873.343" y="1011"/>
      <point x="985" y="885.333"/>
      <point x="985" y="634" type="curve" smooth="yes"/>
      <point x="985" y="516" type="line" smooth="yes"/>
      <point x="985" y="268"/>
      <point x="873.343" y="140"/>
    </contour>
    <contour>
      <point x="885" y="1011" type="line"/>
      <point x="885" y="1171" type="line"/>
      <point x="113" y="1171" type="line"/>
      <point x="113" y="1011" type="line"/>
    </contour>
    <contour>
      <point x="954" y="1535" type="line"/>
      <point x="987" y="1463"/>
      <point x="1011" y="1384"/>
      <point x="1011" y="1306" type="curve" smooth="yes"/>
      <point x="1011" y="1210"/>
      <point x="974" y="1171"/>
      <point x="883" y="1171" type="curve" smooth="yes"/>
      <point x="820" y="1171" type="line"/>
      <point x="834" y="1010" type="line"/>
      <point x="952" y="1010" type="line" smooth="yes"/>
      <point x="1111" y="1010"/>
      <point x="1188" y="1093.65"/>
      <point x="1188" y="1268" type="curve" smooth="yes"/>
      <point x="1188" y="1371"/>
      <point x="1160" y="1462"/>
      <point x="1111" y="1535" type="curve"/>
    </contour>
  </outline>
</glyph>
<glyph name="Sha.kn" format="2">
  <advance width="1218"/>
  <unicode hex="0CB6"/>
  <outline>
    <contour>
      <point x="99" y="1171" type="line"/>
      <point x="99" y="1011" type="line"/>
      <point x="415" y="1011" type="line"/>
      <point x="428" y="1011" type="line"/>
      <point x="823" y="1011" type="line"/>
      <point x="823" y="1171" type="line"/>
    </contour>
    <contour>
      <point x="907" y="658" type="curve" smooth="yes"/>
      <point x="907" y="475" type="line" smooth="yes"/>
      <point x="907" y="249"/>
      <point x="800" y="139"/>
      <point x="575" y="139" type="curve" smooth="yes"/>
      <point x="388" y="139"/>
      <point x="292" y="214"/>
      <point x="292" y="335" type="curve" smooth="yes"/>
      <point x="292" y="342" type="line" smooth="yes"/>
      <point x="292" y="446"/>
      <point x="350" y="492"/>
      <point x="488" y="549" type="curve" smooth="yes"/>
      <point x="939" y="734" type="line"/>
      <point x="912" y="896" type="line"/>
      <point x="403" y="693" type="line" smooth="yes"/>
      <point x="190" y="608"/>
      <point x="100" y="523"/>
      <point x="100" y="338" type="curve" smooth="yes"/>
      <point x="100" y="331" type="line" smooth="yes"/>
      <point x="100" y="94"/>
      <point x="277" y="-33"/>
      <point x="576" y="-33" type="curve" smooth="yes"/>
      <point x="931" y="-33"/>
      <point x="1099" y="126"/>
      <point x="1099" y="458" type="curve" smooth="yes"/>
      <point x="1099" y="612" type="line" smooth="yes"/>
      <point x="1099" y="840.835"/>
      <point x="1038.62" y="965.203"/>
      <point x="903" y="1005" type="curve"/>
      <point x="903" y="1035" type="line"/>
      <point x="311" y="1035" type="line"/>
      <point x="311" y="1005" type="line"/>
      <point x="197" y="979.104"/>
      <point x="138" y="906.394"/>
      <point x="138" y="755" type="curve" smooth="yes"/>
      <point x="138" y="727" type="line"/>
      <point x="333" y="727" type="line"/>
      <point x="333" y="765" type="line" smooth="yes"/>
      <point x="333" y="927.34"/>
      <point x="425" y="1011"/>
      <point x="606" y="1011" type="curve" smooth="yes"/>
      <point x="813" y="1011"/>
      <point x="907" y="893.333"/>
    </contour>
    <contour>
      <point x="873" y="1535" type="line"/>
      <point x="906" y="1463"/>
      <point x="930" y="1384"/>
      <point x="930" y="1306" type="curve" smooth="yes"/>
      <point x="930" y="1210"/>
      <point x="893" y="1171"/>
      <point x="802" y="1171" type="curve" smooth="yes"/>
      <point x="739" y="1171" type="line"/>
      <point x="753" y="1010" type="line"/>
      <point x="871" y="1010" type="line" smooth="yes"/>
      <point x="1030" y="1010"/>
      <point x="1107" y="1093.65"/>
      <point x="1107" y="1268" type="curve" smooth="yes"/>
      <point x="1107" y="1371"/>
      <point x="1079" y="1462"/>
      <point x="1030" y="1535" type="curve"/>
    </contour>
  </outline>
</glyph>
<glyph name="Ha.kn" format="2">
  <advance width="1612"/>
  <unicode hex="0CB9"/>
  <outline>
    <contour>
      <point x="476" y="-27" type="curve" smooth="yes"/>
      <point x="679" y="-27"/>
      <point x="780" y="61.8462"/>
      <point x="801" y="204" type="curve"/>
      <point x="807" y="204" type="line"/>
      <point x="846" y="52.9615"/>
      <point x="950" y="-27"/>
      <point x="1146" y="-27" type="curve" smooth="yes"/>
      <point x="1384" y="-27"/>
      <point x="1505" y="106"/>
      <point x="1505" y="366" type="curve" smooth="yes"/>
      <point x="1505" y="433" type="line" smooth="yes"/>
      <point x="1505" y="690"/>
      <point x="1380" y="829"/>
      <point x="1146" y="829" type="curve" smooth="yes"/>
      <point x="964.433" y="829"/>
      <point x="840.044" y="741.011"/>
      <point x="826" y="562" type="curve"/>
      <point x="862" y="559" type="line"/>
      <point x="826" y="774" type="line" smooth="yes"/>
      <point x="801.105" y="922.68"/>
      <point x="739.961" y="986.155"/>
      <point x="647" y="1004" type="curve"/>
      <point x="647" y="1023" type="line"/>
      <point x="348" y="1024" type="line"/>
      <point x="348" y="1010" type="line"/>
      <point x="534.254" y="1010"/>
      <point x="612.82" y="951.481"/>
      <point x="645" y="763" type="curve" smooth="yes"/>
      <point x="715" y="353" type="line"/>
      <point x="697.84" y="213"/>
      <point x="637.274" y="143"/>
      <point x="501" y="143" type="curve" smooth="yes"/>
      <point x="364" y="143"/>
      <point x="295" y="220"/>
      <point x="295" y="370" type="curve" smooth="yes"/>
      <point x="295" y="423" type="line" smooth="yes"/>
      <point x="295" y="583"/>
      <point x="363.962" y="651"/>
      <point x="510" y="651" type="curve" smooth="yes"/>
      <point x="574" y="651"/>
      <point x="636" y="634.723"/>
      <point x="692" y="600" type="curve"/>
      <point x="701" y="697" type="line"/>
      <point x="653" y="688" type="line"/>
      <point x="594" y="790" type="line"/>
      <point x="553" y="806.667"/>
      <point x="505" y="815"/>
      <point x="459" y="815" type="curve" smooth="yes"/>
      <point x="228.032" y="815"/>
      <point x="107" y="688"/>
      <point x="107" y="422" type="curve" smooth="yes"/>
      <point x="107" y="363" type="line" smooth="yes"/>
      <point x="107" y="105"/>
      <point x="232" y="-27"/>
    </contour>
    <contour>
      <point x="1123" y="144" type="curve" smooth="yes"/>
      <point x="994.819" y="144"/>
      <point x="929.945" y="206.95"/>
      <point x="906" y="343" type="curve" smooth="yes"/>
      <point x="884" y="468" type="line"/>
      <point x="906.097" y="587.844"/>
      <point x="983.434" y="663.023"/>
      <point x="1113" y="663" type="curve" smooth="yes"/>
      <point x="1250" y="662.975"/>
      <point x="1317" y="581"/>
      <point x="1317" y="433" type="curve" smooth="yes"/>
      <point x="1317" y="369" type="line" smooth="yes"/>
      <point x="1317" y="219"/>
      <point x="1253" y="144"/>
    </contour>
    <contour>
      <point x="1203" y="1010" type="line"/>
      <point x="1203" y="1171" type="line"/>
      <point x="100" y="1171" type="line"/>
      <point x="100" y="1010" type="line"/>
    </contour>
    <contour>
      <point x="1279" y="1535" type="line"/>
      <point x="1312" y="1463"/>
      <point x="1336" y="1384"/>
      <point x="1336" y="1306" type="curve" smooth="yes"/>
      <point x="1336" y="1210"/>
      <point x="1299" y="1171"/>
      <point x="1208" y="1171" type="curve" smooth="yes"/>
      <point x="1145" y="1171" type="line"/>
      <point x="1159" y="1010" type="line"/>
      <point x="1277" y="1010" type="line" smooth="yes"/>
      <point x="1436" y="1010"/>
      <point x="1513" y="1093.65"/>
      <point x="1513" y="1268" type="curve" smooth="yes"/>
      <point x="1513" y="1371"/>
      <point x="1485" y="1462"/>
      <point x="1436" y="1535" type="curve"/>
    </contour>
  </outline>
</glyph>
<glyph name="Avagraha" format="2">
  <advance width="897"/>
  <unicode hex="0CBD"/>
  <outline>
    <contour>
      <point x="769" y="1171" type="line"/>
      <point x="398" y="1171" type="line" smooth="yes"/>
      <point x="178" y="1171"/>
      <point x="66" y="1082"/>
      <point x="66" y="904" type="curve" smooth="yes"/>
      <point x="66" y="898" type="line" smooth="yes"/>
      <point x="66" y="539"/>
      <point x="620" y="581"/>
      <point x="620" y="313" type="curve" smooth="yes"/>
      <point x="620" y="305" type="line" smooth="yes"/>
      <point x="620" y="196"/>
      <point x="552" y="142"/>
      <point x="412" y="142" type="curve" smooth="yes"/>
      <point x="288" y="142"/>
      <point x="178" y="171"/>
      <point x="65" y="226" type="curve"/>
      <point x="91" y="44" type="line"/>
      <point x="187" y="-4"/>
      <point x="305" y="-28"/>
      <point x="436" y="-28" type="curve" smooth="yes"/>
      <point x="685" y="-28"/>
      <point x="812" y="82"/>
      <point x="812" y="293" type="curve" smooth="yes"/>
      <point x="812" y="303" type="line" smooth="yes"/>
      <point x="812" y="703"/>
      <point x="258" y="669"/>
      <point x="258" y="894" type="curve"/>
      <point x="258" y="896" type="line"/>
      <point x="258" y="971.333"/>
      <point x="306" y="1009"/>
      <point x="411" y="1009" type="curve" smooth="yes"/>
      <point x="769" y="1009" type="line"/>
    </contour>
  </outline>
</glyph>
<glyph name="matraAa.kn" format="2">
  <advance width="1471"/>
  <unicode hex="0CBE"/>
  <outline>
    <contour>
      <point x="1357" y="504" type="line"/>
      <point x="1357" y="594" type="line" smooth="yes"/>
      <point x="1357" y="980"/>
      <point x="1169" y="1171"/>
      <point x="777" y="1171" type="curve" smooth="yes"/>
      <point x="161" y="1171" type="line"/>
      <point x="161" y="1010" type="line"/>
      <point x="756" y="1010" type="line" smooth="yes"/>
      <point x="1036" y="1010"/>
      <point x="1167" y="877.638"/>
      <point x="1167" y="595" type="curve" smooth="yes"/>
      <point x="1167" y="499" type="line"/>
    </contour>
    <contour>
      <point x="1008" y="-27" type="curve" smooth="yes"/>
      <point x="1250" y="-27"/>
      <point x="1357" y="107"/>
      <point x="1357" y="395" type="curve" smooth="yes"/>
      <point x="1357" y="514" type="line"/>
      <point x="1168" y="504" type="line"/>
      <point x="1168" y="376" type="line" smooth="yes"/>
      <point x="1168" y="210"/>
      <point x="1126" y="139"/>
      <point x="1010" y="139" type="curve" smooth="yes"/>
      <point x="905" y="139"/>
      <point x="856" y="199"/>
      <point x="856" y="317" type="curve" smooth="yes"/>
      <point x="856" y="362" type="line" smooth="yes"/>
      <point x="856" y="480"/>
      <point x="904" y="534"/>
      <point x="1003" y="534" type="curve" smooth="yes"/>
      <point x="1089" y="534"/>
      <point x="1148" y="490"/>
      <point x="1181" y="411" type="curve"/>
      <point x="1195" y="552" type="line"/>
      <point x="1161" y="552" type="line"/>
      <point x="1131" y="643"/>
      <point x="1060" y="696"/>
      <point x="944" y="696" type="curve" smooth="yes"/>
      <point x="757" y="696"/>
      <point x="668" y="582"/>
      <point x="668" y="365" type="curve" smooth="yes"/>
      <point x="668" y="316" type="line" smooth="yes"/>
      <point x="668" y="91"/>
      <point x="780" y="-27"/>
    </contour>
  </outline>
</glyph>
<glyph name="matraUu.kn" format="2">
  <advance width="1385"/>
  <unicode hex="0CC2"/>
  <outline>
    <contour>
      <point x="42" y="146" type="curve" smooth="yes"/>
      <point x="-66" y="146"/>
      <point x="-118" y="214"/>
      <point x="-118" y="349" type="curve" smooth="yes"/>
      <point x="-118" y="377" type="line"/>
      <point x="-204" y="377" type="line"/>
      <point x="-204" y="289" type="line" smooth="yes"/>
      <point x="-204" y="81"/>
      <point x="-110" y="-27"/>
      <point x="75" y="-27" type="curve" smooth="yes"/>
      <point x="281" y="-27"/>
      <point x="385" y="99"/>
      <point x="385" y="342" type="curve" smooth="yes"/>
      <point x="385" y="539" type="line"/>
      <point x="195" y="539" type="line"/>
      <point x="195" y="353" type="line" smooth="yes"/>
      <point x="195" y="213"/>
      <point x="145" y="146"/>
    </contour>
    <contour>
      <point x="733" y="1202" type="curve" smooth="yes"/>
      <point x="376" y="1202"/>
      <point x="195" y="1013"/>
      <point x="195" y="641" type="curve" smooth="yes"/>
      <point x="195" y="525" type="line"/>
      <point x="385" y="525" type="line"/>
      <point x="385" y="639" type="line" smooth="yes"/>
      <point x="385" y="900"/>
      <point x="497" y="1031"/>
      <point x="733" y="1031" type="curve" smooth="yes"/>
      <point x="969" y="1031"/>
      <point x="1082" y="898"/>
      <point x="1082" y="639" type="curve" smooth="yes"/>
      <point x="1082" y="499" type="line"/>
      <point x="1272" y="509" type="line"/>
      <point x="1272" y="637" type="line" smooth="yes"/>
      <point x="1272" y="1011"/>
      <point x="1089" y="1202"/>
    </contour>
    <contour>
      <point x="1272" y="514" type="line"/>
      <point x="1083" y="504" type="line"/>
      <point x="1083" y="376" type="line" smooth="yes"/>
      <point x="1083" y="210"/>
      <point x="1041" y="139"/>
      <point x="925" y="139" type="curve" smooth="yes"/>
      <point x="820" y="139"/>
      <point x="771" y="199"/>
      <point x="771" y="317" type="curve" smooth="yes"/>
      <point x="771" y="362" type="line" smooth="yes"/>
      <point x="771" y="480"/>
      <point x="819" y="534"/>
      <point x="918" y="534" type="curve" smooth="yes"/>
      <point x="1004" y="534"/>
      <point x="1063" y="490"/>
      <point x="1096" y="411" type="curve"/>
      <point x="1110" y="552" type="line"/>
      <point x="1076" y="552" type="line"/>
      <point x="1046" y="643"/>
      <point x="975" y="696"/>
      <point x="859" y="696" type="curve" smooth="yes"/>
      <point x="672" y="696"/>
      <point x="583" y="582"/>
      <point x="583" y="365" type="curve" smooth="yes"/>
      <point x="583" y="316" type="line" smooth="yes"/>
      <point x="583" y="91"/>
      <point x="695" y="-27"/>
      <point x="923" y="-27" type="curve" smooth="yes"/>
      <point x="1165" y="-27"/>
      <point x="1272" y="107"/>
      <point x="1272" y="395" type="curve" smooth="yes"/>
    </contour>
  </outline>
</glyph>
<glyph name="matraRu.kn" format="2">
  <advance width="182"/>
  <unicode hex="0CC3"/>
  <outline>
    <contour>
      <point x="-477" y="-411" type="line"/>
      <point x="-477" y="-430" type="line" smooth="yes"/>
      <point x="-477" y="-647"/>
      <point x="-346" y="-763"/>
      <point x="-112" y="-763" type="curve" smooth="yes"/>
      <point x="140" y="-763"/>
      <point x="266" y="-631"/>
      <point x="266" y="-368" type="curve" smooth="yes"/>
      <point x="266" y="-286" type="line" smooth="yes"/>
      <point x="266" y="-85"/>
      <point x="225" y="62"/>
      <point x="142" y="184" type="curve"/>
      <point x="-11" y="184" type="line"/>
      <point x="75" y="46"/>
      <point x="115" y="-89"/>
      <point x="115" y="-285" type="curve" smooth="yes"/>
      <point x="115" y="-367" type="line" smooth="yes"/>
      <point x="115" y="-544"/>
      <point x="44" y="-633"/>
      <point x="-110" y="-633" type="curve" smooth="yes"/>
      <point x="-258" y="-633"/>
      <point x="-332" y="-565"/>
      <point x="-332" y="-431" type="curve" smooth="yes"/>
      <point x="-332" y="-406" type="line"/>
    </contour>
    <contour>
      <point x="-242" y="-120" type="curve" smooth="yes"/>
      <point x="-397" y="-120"/>
      <point x="-477" y="-202"/>
      <point x="-477" y="-371" type="curve" smooth="yes"/>
      <point x="-477" y="-412" type="line"/>
      <point x="-333" y="-412" type="line"/>
      <point x="-333" y="-349" type="line" smooth="yes"/>
      <point x="-333" y="-277"/>
      <point x="-308" y="-239"/>
      <point x="-247" y="-239" type="curve" smooth="yes"/>
      <point x="-196" y="-239"/>
      <point x="-171" y="-269"/>
      <point x="-171" y="-324" type="curve" smooth="yes"/>
      <point x="-171" y="-331" type="line" smooth="yes"/>
      <point x="-171" y="-385"/>
      <point x="-199" y="-407"/>
      <point x="-245" y="-407" type="curve" smooth="yes"/>
      <point x="-290" y="-407"/>
      <point x="-324" y="-385"/>
      <point x="-345" y="-341" type="curve"/>
      <point x="-375" y="-435" type="line"/>
      <point x="-328" y="-435" type="line"/>
      <point x="-308" y="-486"/>
      <point x="-261" y="-515"/>
      <point x="-193" y="-515" type="curve" smooth="yes"/>
      <point x="-87" y="-515"/>
      <point x="-29" y="-454"/>
      <point x="-29" y="-338" type="curve" smooth="yes"/>
      <point x="-29" y="-326" type="line" smooth="yes"/>
      <point x="-29" y="-191"/>
      <point x="-101" y="-120"/>
    </contour>
  </outline>
</glyph>
<glyph name="matraRuu.kn" format="2">
  <advance width="696"/>
  <unicode hex="0CC4"/>
  <outline>
    <contour>
      <point x="-9" y="180" type="line"/>
      <point x="75" y="43"/>
      <point x="114" y="-91"/>
      <point x="114" y="-285" type="curve" smooth="yes"/>
      <point x="114" y="-367" type="line" smooth="yes"/>
      <point x="114" y="-544"/>
      <point x="43" y="-633"/>
      <point x="-111" y="-633" type="curve" smooth="yes"/>
      <point x="-259" y="-633"/>
      <point x="-333" y="-565"/>
      <point x="-333" y="-431" type="curve" smooth="yes"/>
      <point x="-333" y="-406" type="line"/>
      <point x="-477" y="-411" type="line"/>
      <point x="-477" y="-430" type="line" smooth="yes"/>
      <point x="-477" y="-647"/>
      <point x="-346" y="-763"/>
      <point x="-112" y="-763" type="curve" smooth="yes"/>
      <point x="140" y="-763"/>
      <point x="266" y="-631"/>
      <point x="266" y="-368" type="curve" smooth="yes"/>
      <point x="266" y="-286" type="line" smooth="yes"/>
      <point x="266" y="-77"/>
      <point x="218" y="63"/>
      <point x="122" y="184" type="curve"/>
      <point x="-6" y="184" type="line"/>
    </contour>
    <contour>
      <point x="786" y="-161" type="line"/>
      <point x="786" y="-138" type="line" smooth="yes"/>
      <point x="786" y="73"/>
      <point x="671" y="184"/>
      <point x="442" y="184" type="curve" smooth="yes"/>
      <point x="77" y="184" type="line"/>
      <point x="122" y="64.5" type="line"/>
      <point x="440" y="64.5" type="line" smooth="yes"/>
      <point x="575" y="64.5"/>
      <point x="644" y="-4"/>
      <point x="644" y="-137" type="curve" smooth="yes"/>
      <point x="644" y="-167" type="line"/>
    </contour>
    <contour>
      <point x="645" y="-164" type="line"/>
      <point x="645" y="-238" type="line" smooth="yes"/>
      <point x="645" y="-302"/>
      <point x="624" y="-337"/>
      <point x="570" y="-337" type="curve" smooth="yes"/>
      <point x="519" y="-337"/>
      <point x="493" y="-311"/>
      <point x="493" y="-260" type="curve" smooth="yes"/>
      <point x="493" y="-253" type="line" smooth="yes"/>
      <point x="493" y="-199"/>
      <point x="518" y="-177"/>
      <point x="564" y="-177" type="curve" smooth="yes"/>
      <point x="606" y="-177"/>
      <point x="638" y="-198"/>
      <point x="660" y="-235" type="curve"/>
      <point x="668" y="-133" type="line"/>
      <point x="639" y="-133" type="line"/>
      <point x="619" y="-90"/>
      <point x="581" y="-65"/>
      <point x="515" y="-65" type="curve" smooth="yes"/>
      <point x="413" y="-65"/>
      <point x="353" y="-125"/>
      <point x="353" y="-249" type="curve" smooth="yes"/>
      <point x="353" y="-267" type="line" smooth="yes"/>
      <point x="353" y="-392"/>
      <point x="428" y="-455"/>
      <point x="566" y="-455" type="curve" smooth="yes"/>
      <point x="719" y="-455"/>
      <point x="786" y="-374"/>
      <point x="786" y="-216" type="curve" smooth="yes"/>
      <point x="786" y="-156" type="line"/>
    </contour>
    <contour>
      <point x="-242" y="-120" type="curve" smooth="yes"/>
      <point x="-397" y="-120"/>
      <point x="-477" y="-202"/>
      <point x="-477" y="-371" type="curve" smooth="yes"/>
      <point x="-477" y="-412" type="line"/>
      <point x="-333" y="-412" type="line"/>
      <point x="-333" y="-349" type="line" smooth="yes"/>
      <point x="-333" y="-277"/>
      <point x="-308" y="-239"/>
      <point x="-247" y="-239" type="curve" smooth="yes"/>
      <point x="-196" y="-239"/>
      <point x="-171" y="-269"/>
      <point x="-171" y="-324" type="curve" smooth="yes"/>
      <point x="-171" y="-331" type="line" smooth="yes"/>
      <point x="-171" y="-385"/>
      <point x="-199" y="-407"/>
      <point x="-245" y="-407" type="curve" smooth="yes"/>
      <point x="-290" y="-407"/>
      <point x="-324" y="-385"/>
      <point x="-345" y="-341" type="curve"/>
      <point x="-375" y="-435" type="line"/>
      <point x="-328" y="-435" type="line"/>
      <point x="-308" y="-486"/>
      <point x="-261" y="-515"/>
      <point x="-193" y="-515" type="curve" smooth="yes"/>
      <point x="-87" y="-515"/>
      <point x="-29" y="-454"/>
      <point x="-29" y="-338" type="curve" smooth="yes"/>
      <point x="-29" y="-326" type="line" smooth="yes"/>
      <point x="-29" y="-191"/>
      <point x="-101" y="-120"/>
    </contour>
  </outline>
  <guideline angle="0" x="0" y="-1153"/>
  <guideline angle="0" x="0" y="-640"/>
</glyph>
<glyph name="matraE.kn" format="2">
  <advance width="784"/>
  <unicode hex="0CC6"/>
  <outline>
    <contour>
      <point x="423" y="1010" type="line" smooth="yes"/>
      <point x="617" y="1010"/>
      <point x="718" y="1115.65"/>
      <point x="718" y="1337" type="curve" smooth="yes"/>
      <point x="718" y="1366" type="line" smooth="yes"/>
      <point x="718" y="1558"/>
      <point x="617" y="1661"/>
      <point x="428" y="1661" type="curve" smooth="yes"/>
      <point x="241" y="1661"/>
      <point x="143" y="1573"/>
      <point x="143" y="1405" type="curve" smooth="yes"/>
      <point x="143" y="1399" type="line" smooth="yes"/>
      <point x="143" y="1348"/>
      <point x="154" y="1300"/>
      <point x="174" y="1269" type="curve"/>
      <point x="340" y="1269" type="line"/>
      <point x="327" y="1299"/>
      <point x="318" y="1337"/>
      <point x="318" y="1379" type="curve" smooth="yes"/>
      <point x="318" y="1385" type="line" smooth="yes"/>
      <point x="318" y="1464"/>
      <point x="354" y="1503"/>
      <point x="429" y="1503" type="curve" smooth="yes"/>
      <point x="502" y="1503"/>
      <point x="539" y="1458"/>
      <point x="539" y="1372" type="curve" smooth="yes"/>
      <point x="539" y="1348" type="line" smooth="yes"/>
      <point x="539" y="1225"/>
      <point x="490" y="1171"/>
      <point x="383" y="1171" type="curve" smooth="yes"/>
      <point x="272" y="1171" type="line"/>
      <point x="273" y="1010" type="line"/>
    </contour>
  </outline>
</glyph>
<glyph name="matraAu.kn" format="2">
  <advance width="1420"/>
  <unicode hex="0CCC"/>
  <outline>
    <contour>
      <point x="329" y="1010" type="line" smooth="yes"/>
      <point x="494" y="1010"/>
      <point x="580" y="1089.7"/>
      <point x="580" y="1238" type="curve" smooth="yes"/>
      <point x="580" y="1244" type="line" smooth="yes"/>
      <point x="580" y="1344"/>
      <point x="537" y="1406"/>
      <point x="459" y="1424" type="curve"/>
      <point x="459" y="1453" type="line"/>
      <point x="256" y="1453" type="line"/>
      <point x="255" y="1430" type="line"/>
      <point x="348" y="1430"/>
      <point x="394" y="1388"/>
      <point x="394" y="1303" type="curve" smooth="yes"/>
      <point x="394" y="1297" type="line" smooth="yes"/>
      <point x="394" y="1214"/>
      <point x="348" y="1171"/>
      <point x="254" y="1171" type="curve" smooth="yes"/>
      <point x="175" y="1171" type="line"/>
      <point x="175" y="1010" type="line"/>
    </contour>
    <contour>
      <point x="1034" y="482" type="curve" smooth="yes"/>
      <point x="1259" y="482"/>
      <point x="1367" y="606"/>
      <point x="1367" y="869" type="curve" smooth="yes"/>
      <point x="1367" y="995" type="line"/>
      <point x="1181" y="989" type="line"/>
      <point x="1181" y="855" type="line" smooth="yes"/>
      <point x="1181" y="707"/>
      <point x="1138" y="645"/>
      <point x="1033" y="645" type="curve" smooth="yes"/>
      <point x="937" y="645"/>
      <point x="891" y="701"/>
      <point x="891" y="810" type="curve" smooth="yes"/>
      <point x="891" y="843" type="line" smooth="yes"/>
      <point x="891" y="953"/>
      <point x="936" y="1005"/>
      <point x="1026" y="1005" type="curve" smooth="yes"/>
      <point x="1110" y="1005"/>
      <point x="1165" y="961"/>
      <point x="1196" y="884" type="curve"/>
      <point x="1207" y="1027" type="line"/>
      <point x="1174" y="1027" type="line"/>
      <point x="1146" y="1112"/>
      <point x="1078" y="1163"/>
      <point x="969" y="1163" type="curve" smooth="yes"/>
      <point x="794" y="1163"/>
      <point x="707" y="1051"/>
      <point x="707" y="840" type="curve" smooth="yes"/>
      <point x="707" y="806" type="line" smooth="yes"/>
      <point x="707" y="592"/>
      <point x="819" y="482"/>
    </contour>
    <contour>
      <point x="1367" y="992" type="line"/>
      <point x="1367" y="1033" type="line" smooth="yes"/>
      <point x="1367" y="1409.35"/>
      <point x="1177" y="1590"/>
      <point x="782" y="1590" type="curve" smooth="yes"/>
      <point x="15" y="1590" type="line"/>
      <point x="15" y="1430" type="line"/>
      <point x="779" y="1430" type="line" smooth="yes"/>
      <point x="1048" y="1430"/>
      <point x="1180" y="1308"/>
      <point x="1180" y="1033" type="curve" smooth="yes"/>
      <point x="1180" y="985" type="line"/>
    </contour>
  </outline>
</glyph>
<glyph name="Lengthmark.kn" format="2">
  <advance width="883"/>
  <unicode hex="0CD5"/>
  <outline>
    <contour>
      <point x="284" y="650" type="line"/>
      <point x="284" y="777" type="line" smooth="yes"/>
      <point x="284" y="958"/>
      <point x="331" y="1037"/>
      <point x="460" y="1037" type="curve" smooth="yes"/>
      <point x="567" y="1037"/>
      <point x="617" y="972"/>
      <point x="617" y="845" type="curve" smooth="yes"/>
      <point x="617" y="816" type="line" smooth="yes"/>
      <point x="617" y="697"/>
      <point x="569" y="644"/>
      <point x="472" y="644" type="curve" smooth="yes"/>
      <point x="373" y="644"/>
      <point x="303" y="691"/>
      <point x="264" y="775" type="curve"/>
      <point x="257" y="626" type="line"/>
      <point x="292" y="626" type="line"/>
      <point x="325" y="538"/>
      <point x="405" y="484"/>
      <point x="533" y="484" type="curve" smooth="yes"/>
      <point x="712" y="484"/>
      <point x="804" y="596"/>
      <point x="804" y="813" type="curve" smooth="yes"/>
      <point x="804" y="842" type="line" smooth="yes"/>
      <point x="804" y="1079"/>
      <point x="689" y="1202"/>
      <point x="461" y="1202" type="curve" smooth="yes"/>
      <point x="212" y="1202"/>
      <point x="97" y="1061"/>
      <point x="97" y="763" type="curve" smooth="yes"/>
      <point x="97" y="640" type="line"/>
    </contour>
    <contour>
      <point x="97" y="656" type="line"/>
      <point x="97" y="560" type="line" smooth="yes"/>
      <point x="97" y="171"/>
      <point x="286" y="-13"/>
      <point x="664" y="-13" type="curve" smooth="yes"/>
      <point x="737" y="-13" type="line"/>
      <point x="772" y="153" type="line"/>
      <point x="701" y="153" type="line" smooth="yes"/>
      <point x="420" y="153"/>
      <point x="286" y="277"/>
      <point x="286" y="562" type="curve" smooth="yes"/>
      <point x="286" y="662" type="line"/>
    </contour>
  </outline>
  <guideline angle="90" x="749" y="0"/>
</glyph>
<glyph name="matraAiLengthmark.kn" format="2">
  <advance width="165"/>
  <unicode hex="0CD6"/>
  <outline>
    <contour>
      <point x="-410" y="-436" type="line"/>
      <point x="-555" y="-431" type="line"/>
      <point x="-555" y="-447" type="line" smooth="yes"/>
      <point x="-555" y="-653"/>
      <point x="-419" y="-763"/>
      <point x="-178" y="-763" type="curve" smooth="yes"/>
      <point x="75" y="-763"/>
      <point x="202" y="-646"/>
      <point x="202" y="-429" type="curve" smooth="yes"/>
      <point x="202" y="-394" type="line" smooth="yes"/>
      <point x="202" y="-249"/>
      <point x="150" y="-168"/>
      <point x="53" y="-146" type="curve"/>
      <point x="-119" y="-127" type="line"/>
      <point x="-119" y="-200" type="line"/>
      <point x="-81" y="-202" type="line" smooth="yes"/>
      <point x="8" y="-207"/>
      <point x="54" y="-263"/>
      <point x="54" y="-384" type="curve" smooth="yes"/>
      <point x="54" y="-417" type="line" smooth="yes"/>
      <point x="54" y="-560"/>
      <point x="-21" y="-636"/>
      <point x="-177" y="-636" type="curve" smooth="yes"/>
      <point x="-333" y="-636"/>
      <point x="-406" y="-573"/>
      <point x="-410" y="-450" type="curve" smooth="yes"/>
    </contour>
    <contour>
      <point x="53" y="-141" type="line"/>
      <point x="143" y="-131"/>
      <point x="189" y="-75"/>
      <point x="189" y="23" type="curve" smooth="yes"/>
      <point x="189" y="82"/>
      <point x="169" y="137"/>
      <point x="134" y="183" type="curve"/>
      <point x="-4" y="183" type="line"/>
      <point x="27" y="136"/>
      <point x="43" y="86"/>
      <point x="43" y="32" type="curve" smooth="yes"/>
      <point x="43" y="-39"/>
      <point x="6" y="-73"/>
      <point x="-73" y="-76" type="curve" smooth="yes"/>
      <point x="-119" y="-78" type="line"/>
      <point x="-119" y="-161" type="line"/>
      <point x="53" y="-166" type="line"/>
    </contour>
    <contour>
      <point x="-321" y="-170" type="curve" smooth="yes"/>
      <point x="-480" y="-170"/>
      <point x="-555" y="-255"/>
      <point x="-555" y="-421" type="curve" smooth="yes"/>
      <point x="-555" y="-443" type="line"/>
      <point x="-411" y="-441" type="line"/>
      <point x="-411" y="-401" type="line" smooth="yes"/>
      <point x="-411" y="-330"/>
      <point x="-386" y="-290"/>
      <point x="-326" y="-290" type="curve" smooth="yes"/>
      <point x="-277" y="-290"/>
      <point x="-251" y="-315"/>
      <point x="-251" y="-363" type="curve"/>
      <point x="-251" y="-364" type="line"/>
      <point x="-251" y="-412"/>
      <point x="-276" y="-434"/>
      <point x="-320" y="-434" type="curve" smooth="yes"/>
      <point x="-368" y="-434"/>
      <point x="-401" y="-413"/>
      <point x="-424" y="-369" type="curve"/>
      <point x="-440" y="-466" type="line"/>
      <point x="-406" y="-466" type="line"/>
      <point x="-387" y="-513"/>
      <point x="-340" y="-541"/>
      <point x="-273" y="-541" type="curve" smooth="yes"/>
      <point x="-166" y="-541"/>
      <point x="-107" y="-482"/>
      <point x="-107" y="-369" type="curve"/>
      <point x="-107" y="-367" type="line"/>
      <point x="-107" y="-238"/>
      <point x="-180" y="-170"/>
    </contour>
  </outline>
</glyph>
<glyph name="LllaObsolete.kn" format="2">
  <advance width="1740"/>
  <unicode hex="0CDE"/>
  <outline>
    <contour>
      <point x="111" y="672" type="line"/>
      <point x="111" y="457" type="line" smooth="yes"/>
      <point x="111" y="131"/>
      <point x="248" y="-27"/>
      <point x="517" y="-27" type="curve" smooth="yes"/>
      <point x="734" y="-27"/>
      <point x="849" y="69"/>
      <point x="867" y="240" type="curve"/>
      <point x="873" y="240" type="line"/>
      <point x="891" y="69"/>
      <point x="1006" y="-27"/>
      <point x="1223" y="-27" type="curve" smooth="yes"/>
      <point x="1492" y="-27"/>
      <point x="1629" y="131"/>
      <point x="1629" y="457" type="curve" smooth="yes"/>
      <point x="1629" y="672" type="line"/>
      <point x="1440" y="709" type="line"/>
      <point x="1440" y="462" type="line" smooth="yes"/>
      <point x="1440" y="246"/>
      <point x="1361" y="147"/>
      <point x="1195" y="147" type="curve" smooth="yes"/>
      <point x="1044" y="147"/>
      <point x="979" y="225"/>
      <point x="969" y="389" type="curve" smooth="yes"/>
      <point x="965" y="455" type="line"/>
      <point x="775" y="455" type="line"/>
      <point x="771" y="389" type="line" smooth="yes"/>
      <point x="761" y="225"/>
      <point x="696" y="147"/>
      <point x="545" y="147" type="curve" smooth="yes"/>
      <point x="379" y="147"/>
      <point x="300" y="246"/>
      <point x="300" y="462" type="curve" smooth="yes"/>
      <point x="300" y="709" type="line"/>
    </contour>
    <contour>
      <point x="465" y="1202" type="curve" smooth="yes"/>
      <point x="223" y="1202"/>
      <point x="111" y="1064"/>
      <point x="111" y="771" type="curve" smooth="yes"/>
      <point x="111" y="644" type="line"/>
      <point x="298" y="669" type="line"/>
      <point x="298" y="785" type="line" smooth="yes"/>
      <point x="298" y="960"/>
      <point x="343" y="1037"/>
      <point x="464" y="1037" type="curve" smooth="yes"/>
      <point x="564" y="1037"/>
      <point x="611" y="975"/>
      <point x="611" y="854" type="curve" smooth="yes"/>
      <point x="611" y="826" type="line" smooth="yes"/>
      <point x="611" y="713"/>
      <point x="566" y="663"/>
      <point x="476" y="663" type="curve" smooth="yes"/>
      <point x="381" y="663"/>
      <point x="315" y="710"/>
      <point x="278" y="794" type="curve"/>
      <point x="271" y="645" type="line"/>
      <point x="306" y="645" type="line"/>
      <point x="338" y="557"/>
      <point x="415" y="503"/>
      <point x="537" y="503" type="curve" smooth="yes"/>
      <point x="709" y="503"/>
      <point x="798" y="612"/>
      <point x="798" y="823" type="curve" smooth="yes"/>
      <point x="798" y="851" type="line" smooth="yes"/>
      <point x="798" y="1082"/>
      <point x="686" y="1202"/>
    </contour>
    <contour>
      <point x="1275" y="1202" type="curve" smooth="yes"/>
      <point x="1054" y="1202"/>
      <point x="942" y="1082"/>
      <point x="942" y="851" type="curve" smooth="yes"/>
      <point x="942" y="823" type="line" smooth="yes"/>
      <point x="942" y="612"/>
      <point x="1034" y="503"/>
      <point x="1213" y="503" type="curve" smooth="yes"/>
      <point x="1330" y="503"/>
      <point x="1404" y="557"/>
      <point x="1434" y="645" type="curve"/>
      <point x="1469" y="645" type="line"/>
      <point x="1462" y="794" type="line"/>
      <point x="1425" y="710"/>
      <point x="1359" y="663"/>
      <point x="1264" y="663" type="curve" smooth="yes"/>
      <point x="1174" y="663"/>
      <point x="1129" y="713"/>
      <point x="1129" y="826" type="curve" smooth="yes"/>
      <point x="1129" y="854" type="line" smooth="yes"/>
      <point x="1129" y="975"/>
      <point x="1176" y="1037"/>
      <point x="1276" y="1037" type="curve" smooth="yes"/>
      <point x="1397" y="1037"/>
      <point x="1442" y="960"/>
      <point x="1442" y="785" type="curve" smooth="yes"/>
      <point x="1442" y="669" type="line"/>
      <point x="1629" y="644" type="line"/>
      <point x="1629" y="771" type="line" smooth="yes"/>
      <point x="1629" y="1064"/>
      <point x="1517" y="1202"/>
    </contour>
  </outline>
</glyph>
<glyph name="vowelLruu.kn" format="2">
  <advance width="1525"/>
  <unicode hex="0CE1"/>
  <outline>
    <contour>
      <point x="733" y="-61" type="line"/>
      <point x="666" y="-61" type="line"/>
      <point x="643" y="17"/>
      <point x="573" y="58"/>
      <point x="464" y="58" type="curve" smooth="yes"/>
      <point x="287" y="58"/>
      <point x="192" y="-35"/>
      <point x="192" y="-222" type="curve" smooth="yes"/>
      <point x="192" y="-229" type="line" smooth="yes"/>
      <point x="192" y="-420"/>
      <point x="285" y="-511"/>
      <point x="456" y="-511" type="curve" smooth="yes"/>
      <point x="567" y="-511"/>
      <point x="640" y="-469"/>
      <point x="668" y="-397" type="curve"/>
      <point x="701" y="-397" type="line"/>
      <point x="685" y="-263" type="line"/>
      <point x="664" y="-327"/>
      <point x="594" y="-361"/>
      <point x="516" y="-361" type="curve" smooth="yes"/>
      <point x="422" y="-361"/>
      <point x="371" y="-318"/>
      <point x="371" y="-231" type="curve" smooth="yes"/>
      <point x="371" y="-225" type="line" smooth="yes"/>
      <point x="371" y="-136"/>
      <point x="420" y="-92"/>
      <point x="517" y="-92" type="curve" smooth="yes"/>
      <point x="624" y="-92"/>
      <point x="672" y="-144"/>
      <point x="674" y="-219" type="curve"/>
    </contour>
    <contour>
      <point x="669" y="1170" type="line"/>
      <point x="669" y="903" type="line" smooth="yes"/>
      <point x="669" y="820"/>
      <point x="679" y="756"/>
      <point x="691" y="691" type="curve"/>
      <point x="685" y="690" type="line"/>
      <point x="652" y="772"/>
      <point x="571" y="821"/>
      <point x="438" y="821" type="curve" smooth="yes"/>
      <point x="214" y="821"/>
      <point x="99" y="693"/>
      <point x="99" y="445" type="curve" smooth="yes"/>
      <point x="99" y="418" type="line" smooth="yes"/>
      <point x="99" y="309"/>
      <point x="118" y="203"/>
      <point x="161" y="130" type="curve"/>
      <point x="350" y="130" type="line"/>
      <point x="311" y="212"/>
      <point x="290" y="311"/>
      <point x="290" y="402" type="curve" smooth="yes"/>
      <point x="290" y="426" type="line" smooth="yes"/>
      <point x="290" y="578"/>
      <point x="353" y="652"/>
      <point x="482" y="652" type="curve" smooth="yes"/>
      <point x="602" y="652"/>
      <point x="667" y="574"/>
      <point x="668" y="436" type="curve" smooth="yes"/>
      <point x="675" y="-589" type="line"/>
      <point x="850" y="-589" type="line"/>
      <point x="857" y="436" type="line" smooth="yes"/>
      <point x="858" y="574"/>
      <point x="923" y="652"/>
      <point x="1043" y="652" type="curve" smooth="yes"/>
      <point x="1172" y="652"/>
      <point x="1235" y="578"/>
      <point x="1235" y="426" type="curve" smooth="yes"/>
      <point x="1235" y="402" type="line" smooth="yes"/>
      <point x="1235" y="311"/>
      <point x="1214" y="212"/>
      <point x="1175" y="130" type="curve"/>
      <point x="1364" y="130" type="line"/>
      <point x="1407" y="203"/>
      <point x="1426" y="309"/>
      <point x="1426" y="418" type="curve" smooth="yes"/>
      <point x="1426" y="445" type="line" smooth="yes"/>
      <point x="1426" y="693"/>
      <point x="1311" y="821"/>
      <point x="1087" y="821" type="curve" smooth="yes"/>
      <point x="954" y="821"/>
      <point x="873" y="772"/>
      <point x="840" y="690" type="curve"/>
      <point x="834" y="691" type="line"/>
      <point x="846" y="756"/>
      <point x="858" y="819.976"/>
      <point x="858" y="903" type="curve" smooth="yes"/>
      <point x="858" y="1170" type="line"/>
    </contour>
  </outline>
  <guideline angle="0" x="0" y="1519"/>
</glyph>
<glyph name="matraLru.kn" format="2">
  <unicode hex="0CE2"/>
  <outline>
    <contour>
      <point x="-315" y="-113" type="line"/>
      <point x="-315" y="-235" type="line" smooth="yes"/>
      <point x="-315" y="-288"/>
      <point x="-309" y="-327"/>
      <point x="-300" y="-372" type="curve"/>
      <point x="-305" y="-373" type="line"/>
      <point x="-323" y="-328"/>
      <point x="-365" y="-300"/>
      <point x="-439" y="-300" type="curve" smooth="yes"/>
      <point x="-571" y="-300"/>
      <point x="-643" y="-379"/>
      <point x="-643" y="-527" type="curve" smooth="yes"/>
      <point x="-643" y="-538" type="line" smooth="yes"/>
      <point x="-643" y="-618"/>
      <point x="-628" y="-685"/>
      <point x="-598" y="-734" type="curve"/>
      <point x="-454" y="-734" type="line"/>
      <point x="-480" y="-682"/>
      <point x="-498" y="-614"/>
      <point x="-498" y="-544" type="curve" smooth="yes"/>
      <point x="-498" y="-533" type="line" smooth="yes"/>
      <point x="-498" y="-462"/>
      <point x="-466" y="-427"/>
      <point x="-407" y="-427" type="curve" smooth="yes"/>
      <point x="-349" y="-427"/>
      <point x="-317" y="-463"/>
      <point x="-316" y="-533" type="curve" smooth="yes"/>
      <point x="-312" y="-731" type="line"/>
      <point x="-176" y="-731" type="line"/>
      <point x="-172" y="-533" type="line" smooth="yes"/>
      <point x="-171" y="-463"/>
      <point x="-139" y="-427"/>
      <point x="-81" y="-427" type="curve" smooth="yes"/>
      <point x="-21" y="-427"/>
      <point x="10" y="-462"/>
      <point x="10" y="-533" type="curve" smooth="yes"/>
      <point x="10" y="-544" type="line" smooth="yes"/>
      <point x="10" y="-613"/>
      <point x="-9" y="-682"/>
      <point x="-38" y="-734" type="curve"/>
      <point x="107" y="-734" type="line"/>
      <point x="137" y="-685"/>
      <point x="155" y="-619"/>
      <point x="155" y="-538" type="curve" smooth="yes"/>
      <point x="155" y="-527" type="line" smooth="yes"/>
      <point x="155" y="-379"/>
      <point x="84" y="-300"/>
      <point x="-44" y="-300" type="curve" smooth="yes"/>
      <point x="-121" y="-300"/>
      <point x="-164" y="-328"/>
      <point x="-183" y="-373" type="curve"/>
      <point x="-187" y="-372" type="line"/>
      <point x="-178" y="-327"/>
      <point x="-173" y="-288"/>
      <point x="-173" y="-235" type="curve" smooth="yes"/>
      <point x="-173" y="-113" type="line"/>
    </contour>
  </outline>
</glyph>
<glyph name="matraLruu.kn" format="2">
  <unicode hex="0CE3"/>
  <outline>
    <contour>
      <point x="-424" y="-607" type="curve" smooth="yes"/>
      <point x="-530" y="-607"/>
      <point x="-587" y="-663"/>
      <point x="-587" y="-765" type="curve" smooth="yes"/>
      <point x="-587" y="-771" type="line" smooth="yes"/>
      <point x="-587" y="-874"/>
      <point x="-530" y="-928"/>
      <point x="-426" y="-928" type="curve" smooth="yes"/>
      <point x="-363" y="-928"/>
      <point x="-322" y="-905"/>
      <point x="-307" y="-864" type="curve"/>
      <point x="-279" y="-864" type="line"/>
      <point x="-292" y="-776" type="line"/>
      <point x="-304" y="-809"/>
      <point x="-341" y="-827"/>
      <point x="-384" y="-827" type="curve" smooth="yes"/>
      <point x="-431" y="-827"/>
      <point x="-456" y="-807"/>
      <point x="-456" y="-770" type="curve" smooth="yes"/>
      <point x="-456" y="-766" type="line" smooth="yes"/>
      <point x="-456" y="-728"/>
      <point x="-431" y="-707"/>
      <point x="-383" y="-707" type="curve" smooth="yes"/>
      <point x="-328" y="-707"/>
      <point x="-305" y="-732"/>
      <point x="-304" y="-768" type="curve"/>
      <point x="-254" y="-668" type="line"/>
      <point x="-309" y="-668" type="line"/>
      <point x="-321" y="-627"/>
      <point x="-362" y="-607"/>
    </contour>
    <contour>
      <point x="-306" y="-113" type="line"/>
      <point x="-306" y="-214" type="line" smooth="yes"/>
      <point x="-306" y="-260"/>
      <point x="-301" y="-295"/>
      <point x="-292" y="-335" type="curve"/>
      <point x="-297" y="-336" type="line"/>
      <point x="-316" y="-292"/>
      <point x="-358" y="-265"/>
      <point x="-432" y="-265" type="curve" smooth="yes"/>
      <point x="-562" y="-265"/>
      <point x="-634" y="-339"/>
      <point x="-634" y="-475" type="curve"/>
      <point x="-634" y="-477" type="line"/>
      <point x="-634" y="-519"/>
      <point x="-631" y="-555"/>
      <point x="-617" y="-585" type="curve"/>
      <point x="-477" y="-585" type="line"/>
      <point x="-486" y="-558"/>
      <point x="-490" y="-528"/>
      <point x="-490" y="-498" type="curve" smooth="yes"/>
      <point x="-490" y="-495" type="line" smooth="yes"/>
      <point x="-490" y="-426"/>
      <point x="-456" y="-391"/>
      <point x="-397" y="-391" type="curve" smooth="yes"/>
      <point x="-338" y="-391"/>
      <point x="-308" y="-426"/>
      <point x="-307" y="-492" type="curve" smooth="yes"/>
      <point x="-302" y="-961" type="line"/>
      <point x="-167" y="-961" type="line"/>
      <point x="-163" y="-492" type="line" smooth="yes"/>
      <point x="-162" y="-426"/>
      <point x="-132" y="-391"/>
      <point x="-72" y="-391" type="curve" smooth="yes"/>
      <point x="-12" y="-391"/>
      <point x="20" y="-426"/>
      <point x="20" y="-495" type="curve" smooth="yes"/>
      <point x="20" y="-498" type="line" smooth="yes"/>
      <point x="20" y="-528"/>
      <point x="14" y="-558"/>
      <point x="5" y="-585" type="curve"/>
      <point x="146" y="-585" type="line"/>
      <point x="160" y="-555"/>
      <point x="164" y="-519"/>
      <point x="164" y="-477" type="curve"/>
      <point x="164" y="-475" type="line"/>
      <point x="164" y="-339"/>
      <point x="92" y="-265"/>
      <point x="-38" y="-265" type="curve" smooth="yes"/>
      <point x="-112" y="-265"/>
      <point x="-154" y="-292"/>
      <point x="-173" y="-336" type="curve"/>
      <point x="-177" y="-335" type="line"/>
      <point x="-168" y="-295"/>
      <point x="-164" y="-260"/>
      <point x="-164" y="-214" type="curve" smooth="yes"/>
      <point x="-164" y="-113" type="line"/>
    </contour>
  </outline>
</glyph>
<glyph name="Shunya.kn" format="2">
  <advance width="1251"/>
  <unicode hex="0CE6"/>
  <outline>
    <contour>
      <point x="305" y="580" type="line"/>
      <point x="305" y="675" type="line" smooth="yes"/>
      <point x="305" y="916"/>
      <point x="414" y="1037"/>
      <point x="625" y="1037" type="curve" smooth="yes"/>
      <point x="837" y="1037"/>
      <point x="945" y="915"/>
      <point x="945" y="674" type="curve" smooth="yes"/>
      <point x="945" y="580" type="line"/>
      <point x="1137" y="580" type="line"/>
      <point x="1137" y="676" type="line" smooth="yes"/>
      <point x="1137" y="1029"/>
      <point x="962" y="1208"/>
      <point x="625" y="1208" type="curve" smooth="yes"/>
      <point x="288" y="1208"/>
      <point x="113" y="1029"/>
      <point x="113" y="676" type="curve" smooth="yes"/>
      <point x="113" y="580" type="line"/>
    </contour>
    <contour>
      <point x="305" y="602" type="line"/>
      <point x="113" y="602" type="line"/>
      <point x="113" y="503" type="line" smooth="yes"/>
      <point x="113" y="150"/>
      <point x="290" y="-30"/>
      <point x="626" y="-30" type="curve" smooth="yes"/>
      <point x="963" y="-30"/>
      <point x="1137" y="150"/>
      <point x="1137" y="503" type="curve" smooth="yes"/>
      <point x="1137" y="602" type="line"/>
      <point x="945" y="602" type="line"/>
      <point x="945" y="505" type="line" smooth="yes"/>
      <point x="945" y="264"/>
      <point x="838" y="141"/>
      <point x="626" y="141" type="curve" smooth="yes"/>
      <point x="414" y="141"/>
      <point x="305" y="263"/>
      <point x="305" y="504" type="curve" smooth="yes"/>
    </contour>
  </outline>
</glyph>
<glyph name="Muru.kn" format="2">
  <advance width="1254"/>
  <unicode hex="0CE9"/>
  <outline>
    <contour>
      <point x="1200" y="-23" type="curve" smooth="yes"/>
      <point x="1232" y="-23" type="line"/>
      <point x="1260" y="144" type="line"/>
      <point x="1212" y="144" type="line" smooth="yes"/>
      <point x="1028" y="144"/>
      <point x="943" y="211"/>
      <point x="905" y="362" type="curve"/>
      <point x="898" y="396" type="line"/>
      <point x="821" y="383" type="line"/>
      <point x="823" y="264" type="line"/>
      <point x="849" y="72"/>
      <point x="969" y="-23"/>
    </contour>
    <contour>
      <point x="469" y="-27" type="curve" smooth="yes"/>
      <point x="730" y="-27"/>
      <point x="864" y="106"/>
      <point x="879" y="310" type="curve"/>
      <point x="823" y="289" type="line"/>
      <point x="900" y="287" type="line"/>
      <point x="913" y="350"/>
      <point x="919" y="449"/>
      <point x="919" y="515" type="curve" smooth="yes"/>
      <point x="919" y="730" type="line" smooth="yes"/>
      <point x="919" y="1047"/>
      <point x="786" y="1202"/>
      <point x="504" y="1202" type="curve" smooth="yes"/>
      <point x="248" y="1202"/>
      <point x="115" y="1083"/>
      <point x="115" y="859" type="curve" smooth="yes"/>
      <point x="115" y="849" type="line" smooth="yes"/>
      <point x="115" y="783"/>
      <point x="128" y="724"/>
      <point x="148" y="684" type="curve"/>
      <point x="328" y="684" type="line"/>
      <point x="313" y="721"/>
      <point x="302" y="771"/>
      <point x="302" y="834" type="curve" smooth="yes"/>
      <point x="302" y="844" type="line" smooth="yes"/>
      <point x="302" y="970"/>
      <point x="371" y="1036"/>
      <point x="504" y="1036" type="curve" smooth="yes"/>
      <point x="661" y="1036"/>
      <point x="728" y="940"/>
      <point x="728" y="734" type="curve" smooth="yes"/>
      <point x="728" y="523" type="line"/>
      <point x="729" y="464"/>
      <point x="725" y="426"/>
      <point x="721" y="369" type="curve"/>
      <point x="721" y="367"/>
      <point x="720" y="347"/>
      <point x="720" y="345" type="curve"/>
      <point x="693" y="202"/>
      <point x="619" y="138"/>
      <point x="481" y="138" type="curve" smooth="yes"/>
      <point x="347" y="138"/>
      <point x="281" y="187"/>
      <point x="281" y="289" type="curve" smooth="yes"/>
      <point x="281" y="297" type="line" smooth="yes"/>
      <point x="281" y="398"/>
      <point x="345" y="448"/>
      <point x="473" y="448" type="curve" smooth="yes"/>
      <point x="593" y="448"/>
      <point x="684" y="397"/>
      <point x="727" y="306" type="curve"/>
      <point x="752" y="446" type="line"/>
      <point x="709" y="545"/>
      <point x="612" y="609"/>
      <point x="440" y="609" type="curve" smooth="yes"/>
      <point x="214" y="609"/>
      <point x="96" y="501"/>
      <point x="96" y="301" type="curve" smooth="yes"/>
      <point x="96" y="292" type="line" smooth="yes"/>
      <point x="96" y="82"/>
      <point x="222" y="-27"/>
    </contour>
  </outline>
</glyph>
<glyph name="Aidu.kn" format="2">
  <advance width="1731"/>
  <unicode hex="0CEB"/>
  <outline>
    <contour>
      <point x="466" y="1202" type="curve" smooth="yes"/>
      <point x="233" y="1202"/>
      <point x="115" y="1089"/>
      <point x="115" y="872" type="curve" smooth="yes"/>
      <point x="115" y="857" type="line" smooth="yes"/>
      <point x="115" y="790"/>
      <point x="126" y="731"/>
      <point x="147" y="688" type="curve"/>
      <point x="325" y="688" type="line"/>
      <point x="310" y="725"/>
      <point x="301" y="774"/>
      <point x="301" y="836" type="curve" smooth="yes"/>
      <point x="301" y="848" type="line" smooth="yes"/>
      <point x="301" y="972"/>
      <point x="356" y="1036"/>
      <point x="470" y="1036" type="curve" smooth="yes"/>
      <point x="603" y="1036"/>
      <point x="652" y="945"/>
      <point x="652" y="768" type="curve" smooth="yes"/>
      <point x="652" y="563" type="line"/>
      <point x="654" y="537" type="line"/>
      <point x="654" y="412" type="line" smooth="yes"/>
      <point x="654" y="228"/>
      <point x="601" y="138"/>
      <point x="459" y="138" type="curve" smooth="yes"/>
      <point x="345" y="138"/>
      <point x="286" y="193"/>
      <point x="286" y="297" type="curve" smooth="yes"/>
      <point x="286" y="304" type="line" smooth="yes"/>
      <point x="286" y="411"/>
      <point x="347" y="464"/>
      <point x="469" y="464" type="curve" smooth="yes"/>
      <point x="701" y="464" type="line"/>
      <point x="797" y="464" type="line"/>
      <point x="1231" y="464" type="line" smooth="yes"/>
      <point x="1277" y="464"/>
      <point x="1316" y="470"/>
      <point x="1350" y="479" type="curve"/>
      <point x="1361" y="500" type="line"/>
      <point x="1526" y="524"/>
      <point x="1624" y="629"/>
      <point x="1624" y="829" type="curve" smooth="yes"/>
      <point x="1624" y="872" type="line" smooth="yes"/>
      <point x="1624" y="1089"/>
      <point x="1509" y="1202"/>
      <point x="1292" y="1202" type="curve" smooth="yes"/>
      <point x="1081" y="1202"/>
      <point x="970" y="1093"/>
      <point x="970" y="883" type="curve" smooth="yes"/>
      <point x="970" y="862" type="line" smooth="yes"/>
      <point x="970" y="716"/>
      <point x="1038" y="636"/>
      <point x="1131" y="590" type="curve"/>
      <point x="1251" y="487" type="line"/>
      <point x="1354" y="439"/>
      <point x="1419" y="392"/>
      <point x="1419" y="289" type="curve" smooth="yes"/>
      <point x="1419" y="284" type="line" smooth="yes"/>
      <point x="1419" y="187"/>
      <point x="1363" y="142"/>
      <point x="1246" y="142" type="curve" smooth="yes"/>
      <point x="1150" y="142"/>
      <point x="1053" y="163"/>
      <point x="978" y="199" type="curve"/>
      <point x="999" y="30" type="line"/>
      <point x="1075" y="-6"/>
      <point x="1171" y="-25"/>
      <point x="1274" y="-25" type="curve" smooth="yes"/>
      <point x="1498" y="-25"/>
      <point x="1608" y="69"/>
      <point x="1608" y="262" type="curve" smooth="yes"/>
      <point x="1608" y="268" type="line" smooth="yes"/>
      <point x="1608" y="413"/>
      <point x="1533" y="486"/>
      <point x="1398" y="550" type="curve"/>
      <point x="1304" y="616" type="line"/>
      <point x="1216" y="659"/>
      <point x="1156" y="721"/>
      <point x="1156" y="846" type="curve" smooth="yes"/>
      <point x="1156" y="873" type="line" smooth="yes"/>
      <point x="1156" y="982"/>
      <point x="1203" y="1036"/>
      <point x="1294" y="1036" type="curve" smooth="yes"/>
      <point x="1386" y="1036"/>
      <point x="1436" y="982"/>
      <point x="1436" y="873" type="curve" smooth="yes"/>
      <point x="1436" y="832" type="line" smooth="yes"/>
      <point x="1436" y="687"/>
      <point x="1362" y="621"/>
      <point x="1210" y="621" type="curve" smooth="yes"/>
      <point x="802" y="621" type="line"/>
      <point x="698" y="623" type="line"/>
      <point x="448" y="623" type="line" smooth="yes"/>
      <point x="216" y="623"/>
      <point x="96" y="514"/>
      <point x="96" y="305" type="curve" smooth="yes"/>
      <point x="96" y="294" type="line" smooth="yes"/>
      <point x="96" y="84"/>
      <point x="219" y="-27"/>
      <point x="455" y="-27" type="curve" smooth="yes"/>
      <point x="724" y="-27"/>
      <point x="842" y="120"/>
      <point x="842" y="418" type="curve" smooth="yes"/>
      <point x="842" y="764" type="line" smooth="yes"/>
      <point x="842" y="1053"/>
      <point x="725" y="1202"/>
    </contour>
  </outline>
</glyph>
<glyph name="Aaru.kn" format="2">
  <advance width="1173"/>
  <unicode hex="0CEC"/>
  <outline>
    <contour>
      <point x="296" y="343" type="curve" smooth="yes"/>
      <point x="296" y="354" type="line" smooth="yes"/>
      <point x="296" y="478"/>
      <point x="362" y="533"/>
      <point x="506" y="534" type="curve" smooth="yes"/>
      <point x="768" y="536" type="line"/>
      <point x="768" y="695" type="line"/>
      <point x="500" y="697" type="line" smooth="yes"/>
      <point x="363" y="698.022"/>
      <point x="301" y="747.689"/>
      <point x="301" y="860" type="curve" smooth="yes"/>
      <point x="301" y="872" type="line" smooth="yes"/>
      <point x="301" y="984"/>
      <point x="368" y="1038"/>
      <point x="505" y="1038" type="curve" smooth="yes"/>
      <point x="592" y="1038"/>
      <point x="669" y="1024"/>
      <point x="728" y="999" type="curve"/>
      <point x="710" y="1164" type="line"/>
      <point x="638" y="1189"/>
      <point x="560" y="1202"/>
      <point x="475" y="1202" type="curve" smooth="yes"/>
      <point x="231" y="1202"/>
      <point x="109" y="1097"/>
      <point x="109" y="891" type="curve" smooth="yes"/>
      <point x="109" y="876" type="line" smooth="yes"/>
      <point x="109" y="721"/>
      <point x="181" y="633"/>
      <point x="323" y="616" type="curve"/>
      <point x="323" y="611" type="line"/>
      <point x="178" y="595"/>
      <point x="104" y="501"/>
      <point x="104" y="338" type="curve" smooth="yes"/>
      <point x="104" y="323" type="line" smooth="yes"/>
      <point x="104" y="109"/>
      <point x="233" y="0"/>
      <point x="492" y="0" type="curve" smooth="yes"/>
      <point x="1113" y="0" type="line"/>
      <point x="1141" y="162" type="line"/>
      <point x="524" y="162" type="line" smooth="yes"/>
      <point x="372" y="162"/>
      <point x="296" y="221.67"/>
    </contour>
  </outline>
</glyph>
<glyph name="Yelu.kn" format="2">
  <advance width="1212"/>
  <unicode hex="0CED"/>
  <outline>
    <contour>
      <point x="498" y="1203" type="curve" smooth="yes"/>
      <point x="260" y="1203"/>
      <point x="134" y="1093"/>
      <point x="134" y="879" type="curve" smooth="yes"/>
      <point x="134" y="871" type="line" smooth="yes"/>
      <point x="134" y="791"/>
      <point x="151" y="727"/>
      <point x="173" y="686" type="curve"/>
      <point x="349" y="686" type="line"/>
      <point x="329" y="736"/>
      <point x="316" y="793"/>
      <point x="316" y="862" type="curve" smooth="yes"/>
      <point x="316" y="868" type="line" smooth="yes"/>
      <point x="316" y="983"/>
      <point x="376" y="1038"/>
      <point x="494" y="1038" type="curve" smooth="yes"/>
      <point x="612" y="1038"/>
      <point x="671" y="987"/>
      <point x="671" y="882" type="curve" smooth="yes"/>
      <point x="671" y="876" type="line" smooth="yes"/>
      <point x="671" y="779"/>
      <point x="620" y="731"/>
      <point x="480" y="671" type="curve" smooth="yes"/>
      <point x="382" y="629" type="line" smooth="yes"/>
      <point x="181" y="543"/>
      <point x="95" y="457"/>
      <point x="95" y="290" type="curve" smooth="yes"/>
      <point x="95" y="284" type="line" smooth="yes"/>
      <point x="95" y="98"/>
      <point x="216" y="0"/>
      <point x="450" y="0" type="curve" smooth="yes"/>
      <point x="1152" y="0" type="line"/>
      <point x="1180" y="162" type="line"/>
      <point x="465" y="162" type="line" smooth="yes"/>
      <point x="344" y="162"/>
      <point x="285" y="205.656"/>
      <point x="285" y="289" type="curve" smooth="yes"/>
      <point x="285" y="295" type="line" smooth="yes"/>
      <point x="285" y="387.535"/>
      <point x="338.128" y="433.017"/>
      <point x="475" y="494" type="curve" smooth="yes"/>
      <point x="576" y="539" type="line" smooth="yes"/>
      <point x="771.974" y="626.315"/>
      <point x="856" y="712.509"/>
      <point x="856" y="880" type="curve" smooth="yes"/>
      <point x="856" y="888" type="line" smooth="yes"/>
      <point x="856" y="1095"/>
      <point x="733" y="1203"/>
    </contour>
  </outline>
</glyph>
